<?xml version="1.0" encoding="utf-8"?>
<!-- Generator: Adobe Illustrator 16.0.3, SVG Export Plug-In . SVG Version: 6.00 Build 0)  -->
<!DOCTYPE svg PUBLIC "-//W3C//DTD SVG 1.1//EN" "http://www.w3.org/Graphics/SVG/1.1/DTD/svg11.dtd">
<svg version="1.1" id="Ebene_1" xmlns="http://www.w3.org/2000/svg" xmlns:xlink="http://www.w3.org/1999/xlink" x="0px" y="0px"
	 width="566.93px" height="566.93px" viewBox="0 0 566.93 566.93" enable-background="new 0 0 566.93 566.93" xml:space="preserve">
<g>
	<path fill-rule="evenodd" clip-rule="evenodd" fill="#FFFFFF" d="M279.12,283.59c0-2.06,0.007-4.12-0.008-6.18
		c-0.002-0.3,0.067-0.37,0.368-0.369c2.88,0.014,5.76,0.014,8.64,0c0.299-0.001,0.368,0.067,0.367,0.368
		c-0.011,4.12-0.011,8.24,0,12.36c0.001,0.299-0.066,0.369-0.367,0.368c-2.88-0.014-5.76-0.014-8.64,0
		c-0.3,0.001-0.371-0.066-0.369-0.368C279.127,287.71,279.12,285.651,279.12,283.59z M283.601,279.287
		c-1.018,0.024-1.641,0.496-2.015,1.446c-0.259,0.66-0.44,1.307-0.522,2.03c-0.172,1.515-0.15,2.972,0.468,4.381
		c0.349,0.795,0.909,1.085,1.781,0.898c2.66-0.567,3.191-2.131,3.222-4.38c0.01-0.718-0.262-1.436-0.354-2.16
		C286.02,280.24,284.897,279.257,283.601,279.287z"/>
	<path fill-rule="evenodd" clip-rule="evenodd" d="M283.601,279.287c1.296-0.03,2.418,0.953,2.581,2.216
		c0.092,0.724,0.363,1.442,0.354,2.16c-0.031,2.25-0.563,3.813-3.222,4.38c-0.872,0.187-1.432-0.104-1.781-0.898
		c-0.619-1.409-0.64-2.866-0.468-4.381c0.082-0.724,0.263-1.371,0.522-2.03C281.96,279.783,282.583,279.311,283.601,279.287z
		 M285.415,283.369c-0.005-0.535-0.27-1.356-0.884-2.109c-0.401-0.493-0.714-0.647-1.204-0.232
		c-0.549,0.465-0.895,0.997-0.972,1.761c-0.119,1.162-0.174,2.303,0.206,3.422c0.217,0.639,0.635,0.85,1.199,0.508
		C284.88,286.042,285.477,285.396,285.415,283.369z"/>
	<path fill-rule="evenodd" clip-rule="evenodd" fill="#FFFFFF" d="M285.415,283.369c0.062,2.027-0.535,2.673-1.655,3.349
		c-0.564,0.342-0.982,0.131-1.199-0.508c-0.38-1.119-0.324-2.26-0.206-3.422c0.078-0.764,0.423-1.296,0.972-1.761
		c0.49-0.415,0.803-0.26,1.204,0.232C285.146,282.013,285.41,282.833,285.415,283.369z"/>
</g>
</svg>
