<?xml version="1.0" encoding="utf-8"?>
<!-- Generator: Adobe Illustrator 16.0.3, SVG Export Plug-In . SVG Version: 6.00 Build 0)  -->
<!DOCTYPE svg PUBLIC "-//W3C//DTD SVG 1.1//EN" "http://www.w3.org/Graphics/SVG/1.1/DTD/svg11.dtd">
<svg version="1.1" id="Ebene_1" xmlns="http://www.w3.org/2000/svg" xmlns:xlink="http://www.w3.org/1999/xlink" x="0px" y="0px"
	 width="566.93px" height="566.93px" viewBox="0 0 566.93 566.93" enable-background="new 0 0 566.93 566.93" xml:space="preserve">
<g>
	<g opacity="0.5">
		<path fill-rule="evenodd" clip-rule="evenodd" fill="#FFFFFF" d="M291.8,292.648c-5.555,0.001-11.109,0.001-16.672,0.001
			c0-6.188,0-12.377,0-18.583c5.552,0,11.112,0,16.672,0C291.8,280.258,291.8,286.454,291.8,292.648z M283.936,280.716
			c0.072,0.036,0.146,0.072,0.218,0.108c0.045,0.825,0.132,1.65,0.124,2.474c-0.011,1.154-0.096,2.307-0.138,3.461
			c-0.008,0.217-0.042,0.492,0.068,0.642c0.181,0.243,0.448,0.472,0.726,0.564c0.11,0.037,0.477-0.289,0.503-0.48
			c0.094-0.684,0.144-1.382,0.119-2.071c-0.071-2.015-0.094-4.038-0.318-6.037c-0.142-1.253-0.655-1.755-1.684-1.041
			c-0.111,0.461-0.14,0.808-0.277,1.104c-0.289,0.626-0.626,1.232-0.959,1.837c-0.39,0.709-0.818,1.398-1.179,2.122
			c-0.076,0.153,0.066,0.415,0.107,0.626c0.208-0.067,0.5-0.07,0.608-0.212c0.516-0.684,0.984-1.403,1.462-2.115
			C283.532,281.377,283.729,281.044,283.936,280.716z"/>
		<path fill-rule="evenodd" clip-rule="evenodd" d="M283.936,280.716c-0.206,0.328-0.403,0.661-0.619,0.982
			c-0.478,0.712-0.947,1.431-1.462,2.115c-0.107,0.142-0.4,0.145-0.608,0.212c-0.042-0.212-0.184-0.474-0.107-0.626
			c0.361-0.723,0.789-1.413,1.179-2.122c0.333-0.605,0.67-1.21,0.959-1.837c0.137-0.297,0.166-0.644,0.277-1.104
			c1.028-0.714,1.542-0.212,1.684,1.041c0.225,1.999,0.247,4.022,0.318,6.037c0.024,0.689-0.025,1.388-0.119,2.071
			c-0.026,0.191-0.393,0.518-0.503,0.48c-0.277-0.093-0.545-0.321-0.726-0.564c-0.11-0.149-0.076-0.425-0.068-0.642
			c0.042-1.154,0.127-2.308,0.138-3.461c0.008-0.824-0.079-1.649-0.124-2.474C284.081,280.789,284.008,280.752,283.936,280.716z"/>
	</g>
	<g>
	</g>
</g>
</svg>
