<?xml version="1.0" encoding="utf-8"?>
<!-- Generator: Adobe Illustrator 16.0.3, SVG Export Plug-In . SVG Version: 6.00 Build 0)  -->
<!DOCTYPE svg PUBLIC "-//W3C//DTD SVG 1.1//EN" "http://www.w3.org/Graphics/SVG/1.1/DTD/svg11.dtd">
<svg version="1.1" id="Ebene_1" xmlns="http://www.w3.org/2000/svg" xmlns:xlink="http://www.w3.org/1999/xlink" x="0px" y="0px"
	 width="566.93px" height="566.93px" viewBox="0 0 566.93 566.93" enable-background="new 0 0 566.93 566.93" xml:space="preserve">
<g>
	<g opacity="0.5">
		<path fill-rule="evenodd" clip-rule="evenodd" fill="#FFFFFF" d="M290.76,290.686c-4.873,0-9.745,0-14.629,0
			c0-4.863,0-9.731,0-14.617c4.869,0,9.749,0,14.629,0C290.76,280.933,290.76,285.808,290.76,290.686z M283.066,278.979
			c-0.454,0.03-0.907,0.071-1.362,0.089c-0.599,0.022-1.623,0.881-1.789,1.445c-0.24,0.817-0.223,1.628-0.124,2.461
			c0.041,0.338,0.239,0.485,0.482,0.507c0.171,0.016,0.479-0.133,0.519-0.269c0.119-0.408,0.202-0.849,0.179-1.27
			c-0.043-0.786,0.126-1.093,0.888-1.306c0.692-0.194,1.369-0.16,2.052,0.084c0.814,0.291,1.055,0.638,0.749,1.44
			c-0.192,0.504-0.543,0.952-0.845,1.41c-0.556,0.842-1.112,1.685-1.703,2.501c-0.31,0.429-0.735,0.775-1.027,1.214
			c-0.153,0.229-0.273,0.68-0.153,0.845c0.178,0.244,0.582,0.448,0.891,0.449c0.828,0.003,1.657-0.108,2.485-0.178
			c0.455-0.038,0.912-0.065,1.362-0.132c0.385-0.058,0.712-0.425,0.681-0.706c-0.043-0.388-0.322-0.6-0.747-0.597
			c-0.591,0.004-1.183,0.008-1.772-0.026c-0.19-0.011-0.48-0.099-0.532-0.228c-0.056-0.138,0.088-0.387,0.197-0.553
			c0.864-1.317,1.848-2.571,2.577-3.958c0.477-0.906-0.07-2.466-1.15-2.834C284.316,279.163,283.724,278.94,283.066,278.979z"/>
		<path fill-rule="evenodd" clip-rule="evenodd" d="M283.066,278.979c0.658-0.039,1.25,0.184,1.856,0.39
			c1.08,0.368,1.627,1.928,1.15,2.834c-0.729,1.387-1.713,2.641-2.577,3.958c-0.109,0.166-0.252,0.415-0.197,0.553
			c0.052,0.129,0.342,0.217,0.532,0.228c0.589,0.034,1.181,0.03,1.772,0.026c0.425-0.003,0.704,0.209,0.747,0.597
			c0.031,0.281-0.296,0.648-0.681,0.706c-0.45,0.066-0.907,0.094-1.362,0.132c-0.828,0.069-1.657,0.181-2.485,0.178
			c-0.309-0.001-0.712-0.205-0.891-0.449c-0.12-0.165,0-0.615,0.153-0.845c0.292-0.438,0.717-0.785,1.027-1.214
			c0.591-0.816,1.146-1.659,1.703-2.501c0.302-0.458,0.653-0.906,0.845-1.41c0.307-0.803,0.065-1.149-0.749-1.44
			c-0.683-0.244-1.359-0.278-2.052-0.084c-0.761,0.213-0.931,0.52-0.888,1.306c0.023,0.421-0.06,0.862-0.179,1.27
			c-0.04,0.136-0.348,0.285-0.519,0.269c-0.243-0.022-0.441-0.169-0.482-0.507c-0.1-0.833-0.116-1.644,0.124-2.461
			c0.166-0.564,1.19-1.423,1.789-1.445C282.159,279.051,282.612,279.01,283.066,278.979z"/>
	</g>
	<g>
	</g>
</g>
</svg>
