<?xml version="1.0" encoding="utf-8"?>
<!-- Generator: Adobe Illustrator 16.0.3, SVG Export Plug-In . SVG Version: 6.00 Build 0)  -->
<!DOCTYPE svg PUBLIC "-//W3C//DTD SVG 1.1//EN" "http://www.w3.org/Graphics/SVG/1.1/DTD/svg11.dtd">
<svg version="1.1" id="Ebene_1" xmlns="http://www.w3.org/2000/svg" xmlns:xlink="http://www.w3.org/1999/xlink" x="0px" y="0px"
	 width="566.93px" height="566.93px" viewBox="0 0 566.93 566.93" enable-background="new 0 0 566.93 566.93" xml:space="preserve">
<g>
	<g opacity="0.5">
		<path fill-rule="evenodd" clip-rule="evenodd" fill="#FFFFFF" d="M278.12,283.89c0-2.16,0.007-4.32-0.008-6.48
			c-0.002-0.3,0.068-0.369,0.368-0.368c3.52,0.012,7.04,0.012,10.56,0c0.3-0.001,0.368,0.068,0.367,0.368
			c-0.011,4.32-0.011,8.64,0,12.959c0.001,0.3-0.067,0.369-0.367,0.368c-3.521-0.013-7.04-0.013-10.56,0
			c-0.3,0.001-0.37-0.067-0.368-0.368C278.127,288.209,278.12,286.05,278.12,283.89z M283.736,279.364
			c-0.431,0.1-0.909,0.225-1.392,0.318c-0.61,0.118-1.037,0.377-1.082,1.078c-0.021,0.328,0.059,0.497,0.366,0.638
			c0.44,0.203,0.673-0.141,0.941-0.316c0.616-0.404,1.229-0.554,1.893-0.165c0.111,0.065,0.259,0.252,0.233,0.333
			c-0.135,0.419-0.223,0.92-0.512,1.206c-0.365,0.361-0.884,0.608-1.38,0.782c-0.509,0.178-0.434,0.606-0.453,0.925
			c-0.008,0.142,0.413,0.34,0.665,0.455c0.126,0.059,0.314,0.004,0.47-0.024c0.653-0.117,1.142,0.132,1.564,0.621
			c0.218,0.252,0.173,0.47,0.041,0.708c-0.624,1.131-1.893,1.422-2.967,0.706c-0.19-0.126-0.436-0.184-0.665-0.23
			c-0.218-0.045-0.356,0.014-0.365,0.31c-0.012,0.413,0.357,0.995,0.898,1.275c1.266,0.656,3.292,0.257,4.031-0.953
			c0.76-1.243,0.985-2.624-0.713-3.532c-0.344-0.184-0.317-0.293-0.085-0.557c0.477-0.542,0.813-1.15,0.772-1.921
			c-0.041-0.789-0.427-1.307-1.19-1.472C284.479,279.476,284.145,279.432,283.736,279.364z"/>
		<path fill-rule="evenodd" clip-rule="evenodd" d="M283.736,279.364c0.408,0.068,0.742,0.112,1.07,0.183
			c0.764,0.165,1.149,0.683,1.19,1.472c0.04,0.771-0.296,1.378-0.772,1.921c-0.232,0.264-0.259,0.374,0.085,0.557
			c1.698,0.908,1.473,2.289,0.713,3.532c-0.739,1.21-2.765,1.609-4.031,0.953c-0.541-0.28-0.91-0.862-0.898-1.275
			c0.008-0.296,0.147-0.354,0.365-0.31c0.229,0.047,0.475,0.104,0.665,0.23c1.074,0.716,2.343,0.425,2.967-0.706
			c0.132-0.238,0.177-0.456-0.041-0.708c-0.422-0.489-0.911-0.738-1.564-0.621c-0.156,0.028-0.343,0.083-0.47,0.024
			c-0.252-0.115-0.673-0.313-0.665-0.455c0.019-0.319-0.056-0.747,0.453-0.925c0.496-0.174,1.016-0.421,1.38-0.782
			c0.289-0.286,0.377-0.787,0.512-1.206c0.025-0.081-0.122-0.268-0.233-0.333c-0.664-0.389-1.276-0.239-1.893,0.165
			c-0.268,0.176-0.501,0.519-0.941,0.316c-0.307-0.141-0.387-0.31-0.366-0.638c0.045-0.701,0.472-0.959,1.082-1.078
			C282.828,279.588,283.305,279.463,283.736,279.364z"/>
	</g>
	<g>
	</g>
</g>
</svg>
