<?xml version="1.0" encoding="utf-8"?>
<!-- Generator: Adobe Illustrator 16.0.3, SVG Export Plug-In . SVG Version: 6.00 Build 0)  -->
<!DOCTYPE svg PUBLIC "-//W3C//DTD SVG 1.1//EN" "http://www.w3.org/Graphics/SVG/1.1/DTD/svg11.dtd">
<svg version="1.1" id="Ebene_1" xmlns="http://www.w3.org/2000/svg" xmlns:xlink="http://www.w3.org/1999/xlink" x="0px" y="0px"
	 width="566.93px" height="566.93px" viewBox="0 0 566.93 566.93" enable-background="new 0 0 566.93 566.93" xml:space="preserve">
<g>
	<g opacity="0.5">
		<path fill-rule="evenodd" clip-rule="evenodd" fill="#FFFFFF" d="M278.12,283.89c0-2.16,0.007-4.32-0.008-6.48
			c-0.002-0.3,0.068-0.369,0.368-0.368c3.44,0.012,6.879,0.012,10.32,0c0.3-0.001,0.368,0.068,0.368,0.368
			c-0.012,4.32-0.012,8.64,0,12.959c0,0.3-0.068,0.369-0.368,0.368c-3.44-0.013-6.88-0.013-10.32,0
			c-0.3,0.001-0.37-0.067-0.368-0.368C278.127,288.209,278.12,286.05,278.12,283.89z M282.2,281.949
			c0.016-0.119,0.043-0.237,0.046-0.356c0.01-0.523,0.008-1.054-0.403-1.451c-0.217-0.21-0.516-0.423-0.756-0.077
			c-0.175,0.252-0.292,0.584-0.321,0.891c-0.093,0.984-0.107,1.977-0.209,2.96c-0.031,0.302,0.04,0.413,0.283,0.553
			c0.75,0.432,1.549,0.312,2.336,0.23c0.389-0.041,0.58,0.049,0.595,0.439c0.019,0.513,0.024,1.026,0.046,1.54
			c0.009,0.197,0.013,0.407,0.084,0.585c0.184,0.455,0.597,0.407,0.974,0.368c0.37-0.039,0.313-0.314,0.309-0.589
			c-0.01-0.557,0.03-1.114,0.034-1.672c0.006-0.697,0.206-0.896,0.895-0.854c0.139,0.009,0.31,0.097,0.407,0.042
			c0.205-0.113,0.468-0.266,0.528-0.459c0.077-0.242-0.057-0.514-0.403-0.537c-0.219-0.015-0.438-0.045-0.656-0.054
			c-0.737-0.03-0.832-0.141-0.867-0.895c-0.025-0.576-0.075-1.152-0.148-1.723c-0.066-0.508-0.487-0.84-0.9-0.758
			c-0.379,0.075-0.637,0.516-0.571,0.99c0.017,0.118,0.079,0.229,0.09,0.346c0.051,0.489,0.112,0.979,0.117,1.468
			c0.001,0.108-0.2,0.295-0.329,0.316c-0.876,0.144-1.281,0.307-1.18-1.004C282.208,282.15,282.202,282.049,282.2,281.949z"/>
		<path fill-rule="evenodd" clip-rule="evenodd" d="M282.201,281.949c0,0.1,0.007,0.201,0,0.3c-0.101,1.311,0.304,1.147,1.18,1.004
			c0.129-0.021,0.33-0.208,0.329-0.316c-0.005-0.49-0.066-0.979-0.117-1.468c-0.012-0.117-0.074-0.229-0.09-0.346
			c-0.066-0.474,0.192-0.915,0.571-0.99c0.413-0.082,0.834,0.25,0.9,0.758c0.073,0.571,0.123,1.147,0.148,1.723
			c0.035,0.753,0.13,0.865,0.867,0.895c0.219,0.009,0.438,0.04,0.656,0.054c0.347,0.023,0.48,0.294,0.403,0.537
			c-0.061,0.193-0.323,0.346-0.528,0.459c-0.098,0.055-0.269-0.033-0.407-0.042c-0.688-0.043-0.889,0.156-0.895,0.854
			c-0.004,0.558-0.044,1.115-0.034,1.672c0.005,0.274,0.062,0.55-0.309,0.589c-0.377,0.039-0.79,0.087-0.974-0.368
			c-0.072-0.178-0.076-0.388-0.084-0.585c-0.022-0.514-0.027-1.027-0.046-1.54c-0.015-0.391-0.206-0.48-0.595-0.439
			c-0.787,0.081-1.586,0.201-2.336-0.23c-0.243-0.14-0.314-0.251-0.283-0.553c0.102-0.983,0.116-1.976,0.209-2.96
			c0.029-0.307,0.146-0.638,0.321-0.891c0.24-0.346,0.539-0.133,0.756,0.077c0.411,0.397,0.413,0.928,0.403,1.451
			C282.244,281.711,282.216,281.83,282.201,281.949z"/>
	</g>
	<g>
	</g>
</g>
</svg>
