<?xml version="1.0" encoding="utf-8"?>
<!-- Generator: Adobe Illustrator 16.0.3, SVG Export Plug-In . SVG Version: 6.00 Build 0)  -->
<!DOCTYPE svg PUBLIC "-//W3C//DTD SVG 1.1//EN" "http://www.w3.org/Graphics/SVG/1.1/DTD/svg11.dtd">
<svg version="1.1" id="Ebene_1" xmlns="http://www.w3.org/2000/svg" xmlns:xlink="http://www.w3.org/1999/xlink" x="0px" y="0px"
	 width="566.93px" height="566.93px" viewBox="0 0 566.93 566.93" enable-background="new 0 0 566.93 566.93" xml:space="preserve">
<g>
	<g opacity="0.5">
		<path fill-rule="evenodd" clip-rule="evenodd" fill="#FFFFFF" d="M278.12,283.192c0-1.938,0.007-3.875-0.008-5.813
			c-0.002-0.282,0.054-0.339,0.337-0.338c3.176,0.013,6.352,0.016,9.527-0.002c0.34-0.002,0.349,0.125,0.348,0.386
			c-0.006,3.835-0.008,7.67,0.004,11.504c0.001,0.3-0.067,0.369-0.367,0.368c-3.156-0.013-6.312-0.017-9.467,0.004
			c-0.368,0.002-0.383-0.118-0.381-0.417C278.127,286.988,278.12,285.09,278.12,283.192z M282.803,282.17
			c-0.826,0.063-0.783,0.059-0.852-0.752c-0.036-0.426,0.033-0.516,0.452-0.472c0.285,0.03,0.584-0.101,0.88-0.138
			c0.548-0.068,1.104-0.09,1.646-0.189c0.352-0.064,0.69-0.219,1.02-0.367c0.052-0.023,0.063-0.319,0.018-0.343
			c-0.297-0.153-0.613-0.365-0.928-0.373c-0.789-0.02-1.582,0.084-2.374,0.085c-0.345,0.001-0.688-0.135-0.805,0.354
			c-0.01,0.043-0.163,0.084-0.242,0.074c-0.643-0.084-0.977,0.221-1.015,0.91c-0.045,0.81-0.135,1.618-0.15,2.428
			c-0.004,0.23,0.208,0.672,0.276,0.664c0.449-0.056,0.909,0.158,1.363-0.205c0.667-0.534,1.44-0.378,1.881,0.247
			c0.478,0.679,0.372,1.629-0.238,2.107c-0.631,0.495-1.711,0.405-2.317-0.152c-0.164-0.151-0.426-0.196-0.642-0.289
			c-0.084,0.233-0.223,0.463-0.236,0.7c-0.009,0.171,0.126,0.366,0.237,0.523c0.25,0.354,0.636,0.454,1.027,0.618
			c1.207,0.509,3.539-0.277,3.744-2.018c0.048-0.404-0.019-0.826-0.063-1.236C285.323,282.851,284.035,281.95,282.803,282.17z"/>
		<path fill-rule="evenodd" clip-rule="evenodd" d="M282.803,282.17c1.232-0.22,2.521,0.681,2.683,2.178
			c0.044,0.41,0.11,0.832,0.063,1.236c-0.205,1.74-2.537,2.526-3.744,2.018c-0.392-0.164-0.778-0.264-1.027-0.618
			c-0.11-0.157-0.246-0.353-0.237-0.523c0.013-0.237,0.151-0.467,0.236-0.7c0.216,0.093,0.478,0.138,0.642,0.289
			c0.606,0.558,1.687,0.647,2.317,0.152c0.609-0.479,0.716-1.429,0.238-2.107c-0.441-0.625-1.214-0.781-1.881-0.247
			c-0.454,0.363-0.914,0.149-1.363,0.205c-0.068,0.009-0.281-0.433-0.276-0.664c0.016-0.81,0.105-1.618,0.15-2.428
			c0.038-0.689,0.373-0.995,1.015-0.91c0.079,0.01,0.232-0.031,0.242-0.074c0.117-0.489,0.46-0.354,0.805-0.354
			c0.792-0.001,1.584-0.105,2.374-0.085c0.314,0.008,0.631,0.22,0.928,0.373c0.046,0.023,0.034,0.319-0.018,0.343
			c-0.329,0.148-0.668,0.303-1.02,0.367c-0.542,0.099-1.098,0.121-1.646,0.189c-0.295,0.037-0.595,0.167-0.88,0.138
			c-0.419-0.044-0.488,0.045-0.452,0.472C282.02,282.229,281.977,282.233,282.803,282.17z"/>
	</g>
	<g>
	</g>
</g>
</svg>
