<?xml version="1.0" encoding="utf-8"?>
<!-- Generator: Adobe Illustrator 16.0.3, SVG Export Plug-In . SVG Version: 6.00 Build 0)  -->
<!DOCTYPE svg PUBLIC "-//W3C//DTD SVG 1.1//EN" "http://www.w3.org/Graphics/SVG/1.1/DTD/svg11.dtd">
<svg version="1.1" id="Ebene_1" xmlns="http://www.w3.org/2000/svg" xmlns:xlink="http://www.w3.org/1999/xlink" x="0px" y="0px"
	 width="566.93px" height="566.93px" viewBox="0 0 566.93 566.93" enable-background="new 0 0 566.93 566.93" xml:space="preserve">
<g>
	<g opacity="0.5">
		<path fill-rule="evenodd" clip-rule="evenodd" fill="#FFFFFF" d="M288.681,290.451c-3.395,0-6.788-0.002-10.182,0.004
			c-0.253,0-0.391,0.004-0.39-0.345c0.017-4.574,0.014-9.149,0.005-13.723c0-0.264,0.028-0.348,0.329-0.346
			c3.296,0.016,6.592,0.021,9.888-0.005c0.43-0.003,0.35,0.205,0.35,0.445C288.68,281.135,288.681,285.79,288.681,290.451z
			 M286.176,285.087c0.043-1.705-1.105-2.813-2.773-2.399c-0.156,0.039-0.366,0.009-0.499-0.073
			c-0.062-0.039-0.055-0.313,0.014-0.42c0.438-0.676,0.627-1.564,1.579-1.821c0.144-0.038,0.263-0.357,0.291-0.561
			c0.021-0.142-0.096-0.348-0.213-0.458c-0.479-0.447-0.906-0.058-1.317,0.142c-0.794,0.387-1.145,1.16-1.409,1.917
			c-0.307,0.88-0.474,1.799-0.595,2.745c-0.101,0.782,0.076,1.462,0.215,2.132c0.256,1.232,1.527,1.97,2.742,1.632
			c0.706-0.195,1.438-0.497,1.7-1.255C286.108,286.095,286.119,285.458,286.176,285.087z"/>
		<path fill-rule="evenodd" clip-rule="evenodd" d="M286.176,285.087c-0.057,0.37-0.067,1.008-0.266,1.582
			c-0.262,0.758-0.994,1.06-1.7,1.255c-1.215,0.338-2.486-0.399-2.742-1.632c-0.139-0.67-0.316-1.35-0.215-2.132
			c0.122-0.946,0.289-1.865,0.595-2.745c0.264-0.757,0.615-1.53,1.409-1.917c0.411-0.2,0.839-0.589,1.317-0.142
			c0.117,0.11,0.233,0.315,0.213,0.458c-0.028,0.204-0.147,0.522-0.291,0.561c-0.951,0.256-1.14,1.145-1.579,1.821
			c-0.069,0.107-0.076,0.381-0.014,0.42c0.133,0.082,0.343,0.112,0.499,0.073C285.07,282.274,286.219,283.383,286.176,285.087z
			 M285.122,285.34c0.014-0.755-0.151-1.268-0.686-1.361c-0.507-0.088-1.138-0.005-1.584,0.239c-0.555,0.304-0.215,1.889,0.18,2.232
			c0.367,0.319,0.853,0.509,1.268,0.239C284.752,286.396,285.129,285.958,285.122,285.34z"/>
		<path fill-rule="evenodd" clip-rule="evenodd" fill="#FFFFFF" d="M285.122,285.34c0.007,0.617-0.37,1.056-0.821,1.35
			c-0.415,0.27-0.901,0.08-1.268-0.239c-0.395-0.344-0.735-1.929-0.18-2.232c0.446-0.244,1.077-0.328,1.584-0.239
			C284.971,284.073,285.136,284.585,285.122,285.34z"/>
	</g>
	<g>
	</g>
</g>
</svg>
