<?xml version="1.0" encoding="utf-8"?>
<!-- Generator: Adobe Illustrator 16.0.3, SVG Export Plug-In . SVG Version: 6.00 Build 0)  -->
<!DOCTYPE svg PUBLIC "-//W3C//DTD SVG 1.1//EN" "http://www.w3.org/Graphics/SVG/1.1/DTD/svg11.dtd">
<svg version="1.1" id="Ebene_1" xmlns="http://www.w3.org/2000/svg" xmlns:xlink="http://www.w3.org/1999/xlink" x="0px" y="0px"
	 width="566.93px" height="566.93px" viewBox="0 0 566.93 566.93" enable-background="new 0 0 566.93 566.93" xml:space="preserve">
<g>
	<path fill-rule="evenodd" clip-rule="evenodd" fill="#FFFFFF" d="M289.338,291.044c-3.84,0-7.68,0-11.52,0c0-4.64,0-9.28,0-13.92
		c3.84,0,7.68,0,11.52,0C289.338,281.764,289.338,286.405,289.338,291.044z M284.774,281.605c-0.16,0.584-0.319,1.007-0.389,1.445
		c-0.139,0.888-0.226,0.978-1.085,0.886c-0.119-0.013-0.242-0.036-0.357-0.019c-0.09,0.013-0.233,0.067-0.246,0.127
		c-0.059,0.274-0.167,0.586-0.087,0.826c0.061,0.183,0.363,0.333,0.587,0.403c0.452,0.142,0.506,0.203,0.336,0.659
		c-0.183,0.492-0.358,0.987-0.551,1.475c-0.068,0.171-0.176,0.326-0.274,0.483c-0.164,0.261-0.254,0.517-0.119,0.83
		c0.118,0.272,0.319,0.313,0.577,0.318c0.32,0.007,0.61-0.027,0.734-0.374c0.086-0.242,0.143-0.494,0.212-0.741
		c0.081-0.287,0.141-0.581,0.244-0.858c0.145-0.391,0.372-0.757,0.474-1.156c0.2-0.794,0.345-0.972,1.158-0.91
		c0.483,0.036,0.723-0.059,0.844-0.569c0.063-0.267,0.016-0.461-0.14-0.564c-0.146-0.097-0.389-0.072-0.587-0.063
		c-0.139,0.006-0.275,0.075-0.559,0.158c0.111-0.449,0.168-0.773,0.273-1.081c0.181-0.526,0.456-1.028,0.567-1.566
		c0.064-0.311,0.029-0.713-0.304-0.972c-0.349-0.27-0.687-0.063-1.024-0.001c-0.33,0.06-0.651,0.199-0.981,0.22
		c-1.071,0.068-2.146,0.093-3.218,0.147c-0.118,0.006-0.287,0.071-0.338,0.161c-0.221,0.39-0.064,0.752,0.374,0.879
		c0.185,0.054,0.389,0.084,0.58,0.069c0.73-0.059,1.458-0.151,2.188-0.209C284.011,281.582,284.362,281.605,284.774,281.605z"/>
	<path fill-rule="evenodd" clip-rule="evenodd" d="M284.806,281.449c-0.412,0-0.764-0.023-1.11,0.004
		c-0.73,0.058-1.458,0.15-2.188,0.209c-0.191,0.016-0.395-0.015-0.58-0.069c-0.438-0.127-0.595-0.489-0.374-0.879
		c0.051-0.09,0.22-0.155,0.338-0.161c1.072-0.055,2.146-0.08,3.218-0.147c0.33-0.021,0.651-0.16,0.981-0.22
		c0.338-0.062,0.676-0.269,1.024,0.001c0.333,0.258,0.368,0.661,0.304,0.972c-0.111,0.538-0.387,1.04-0.567,1.566
		c-0.105,0.307-0.242,0.784-0.18,0.877c0.078,0.125,0.326,0.051,0.465,0.045c0.198-0.009,0.44-0.034,0.587,0.063
		c0.155,0.103,0.202,0.297,0.14,0.564c-0.121,0.511-0.36,0.605-0.844,0.569c-0.813-0.062-0.958,0.116-1.158,0.91
		c-0.102,0.399-0.329,0.766-0.474,1.156c-0.104,0.277-0.163,0.571-0.244,0.858c-0.069,0.247-0.126,0.499-0.212,0.741
		c-0.124,0.347-0.414,0.381-0.734,0.374c-0.258-0.005-0.458-0.046-0.577-0.318c-0.135-0.313-0.045-0.569,0.119-0.83
		c0.098-0.157,0.207-0.313,0.274-0.483c0.193-0.487,0.428-1.157,0.611-1.649c0.17-0.456,0.453-0.688-0.234-0.625
		c-0.234,0.021-0.688-0.08-0.749-0.263c-0.08-0.24,0.028-0.552,0.087-0.826c0.013-0.06,0.156-0.114,0.246-0.127
		c0.115-0.017,0.238,0.006,0.357,0.019c0.86,0.092,0.947,0.002,1.085-0.886C284.486,282.456,284.646,282.033,284.806,281.449z"/>
</g>
</svg>
