<?xml version="1.0" encoding="utf-8"?>
<!-- Generator: Adobe Illustrator 16.0.3, SVG Export Plug-In . SVG Version: 6.00 Build 0)  -->
<!DOCTYPE svg PUBLIC "-//W3C//DTD SVG 1.1//EN" "http://www.w3.org/Graphics/SVG/1.1/DTD/svg11.dtd">
<svg version="1.1" id="Ebene_1" xmlns="http://www.w3.org/2000/svg" xmlns:xlink="http://www.w3.org/1999/xlink" x="0px" y="0px"
	 width="566.93px" height="566.93px" viewBox="0 0 566.93 566.93" enable-background="new 0 0 566.93 566.93" xml:space="preserve">
<g>
	<g opacity="0.5">
		<path fill-rule="evenodd" clip-rule="evenodd" fill="#FFFFFF" d="M288.05,290.57c-3.327,0-6.625,0-9.926,0
			c0-4.834,0-9.668,0-14.511c3.308,0,6.62,0,9.926,0C288.05,280.89,288.05,285.73,288.05,290.57z M282.264,283.625
			c-0.031,0.125-0.025,0.241-0.074,0.272c-0.45,0.293-0.504,0.817-0.753,1.227c-0.331,0.545-0.16,1.114-0.151,1.675
			c0.002,0.126,0.076,0.285,0.17,0.368c0.519,0.454,1.119,0.739,1.819,0.766c0.156,0.006,0.319-0.009,0.47-0.05
			c0.307-0.083,0.6-0.226,0.91-0.279c0.398-0.068,0.669-0.325,0.977-0.541c0.36-0.253,0.432-0.636,0.522-1.024
			c0.073-0.315-0.041-0.537-0.261-0.742c-0.05-0.046-0.035-0.154-0.073-0.221c-0.099-0.169-0.185-0.354-0.319-0.49
			c-0.31-0.308-0.624-0.618-0.976-0.874c-0.306-0.222-0.411-0.498-0.446-0.863c0.435-0.22,0.736-0.564,0.886-1.001
			c0.248-0.724,0.01-1.328-0.666-1.764c-0.682-0.441-1.332-0.914-2.245-0.475c-0.478,0.229-0.826,0.516-1.059,0.962
			c-0.127,0.245-0.213,0.511-0.342,0.825C280.787,282.362,281.555,282.955,282.264,283.625z"/>
		<path fill-rule="evenodd" clip-rule="evenodd" d="M282.264,283.625c-0.708-0.67-1.477-1.263-1.611-2.229
			c0.128-0.314,0.214-0.58,0.342-0.825c0.233-0.446,0.581-0.733,1.059-0.962c0.914-0.439,1.563,0.034,2.245,0.475
			c0.676,0.437,0.914,1.04,0.666,1.764c-0.149,0.437-0.451,0.781-0.886,1.001c0.035,0.365,0.141,0.641,0.446,0.863
			c0.352,0.255,0.666,0.566,0.976,0.874c0.135,0.136,0.221,0.321,0.319,0.49c0.038,0.066,0.023,0.175,0.073,0.221
			c0.22,0.205,0.334,0.427,0.261,0.742c-0.091,0.389-0.162,0.771-0.522,1.024c-0.308,0.216-0.578,0.473-0.977,0.541
			c-0.311,0.054-0.604,0.196-0.91,0.279c-0.15,0.041-0.313,0.056-0.47,0.05c-0.701-0.026-1.3-0.312-1.819-0.766
			c-0.094-0.083-0.168-0.242-0.17-0.368c-0.009-0.561-0.18-1.13,0.151-1.675c0.249-0.409,0.304-0.934,0.753-1.227
			C282.238,283.866,282.232,283.75,282.264,283.625z M283.272,286.815c0.589,0.003,1.007-0.382,1.455-0.686
			c0.061-0.041,0.059-0.269,0.005-0.366c-0.283-0.52-0.754-0.866-1.209-1.22c-0.18-0.141-0.405-0.116-0.507,0.108
			c-0.211,0.465-0.44,0.931-0.57,1.421C282.328,286.518,282.67,286.784,283.272,286.815z M283.709,281.295
			c-0.088-0.139-0.17-0.267-0.252-0.396c-0.13-0.017-0.252-0.012-0.36-0.049c-0.326-0.112-0.601-0.012-0.789,0.24
			c-0.214,0.286-0.023,0.573,0.107,0.829c0.144,0.282,0.335,0.314,0.571,0.104C283.234,281.802,283.457,281.552,283.709,281.295z"/>
		<path fill-rule="evenodd" clip-rule="evenodd" fill="#FFFFFF" d="M283.272,286.815c-0.602-0.031-0.944-0.297-0.827-0.742
			c0.129-0.49,0.358-0.956,0.57-1.421c0.102-0.225,0.327-0.249,0.507-0.108c0.455,0.354,0.926,0.7,1.209,1.22
			c0.054,0.098,0.056,0.325-0.005,0.366C284.279,286.433,283.861,286.818,283.272,286.815z"/>
		<path fill-rule="evenodd" clip-rule="evenodd" fill="#FFFFFF" d="M283.709,281.295c-0.253,0.257-0.475,0.507-0.724,0.727
			c-0.236,0.209-0.427,0.178-0.571-0.104c-0.13-0.255-0.321-0.543-0.107-0.829c0.188-0.251,0.463-0.352,0.789-0.24
			c0.108,0.037,0.23,0.033,0.36,0.049C283.539,281.028,283.621,281.157,283.709,281.295z"/>
	</g>
	<g>
	</g>
</g>
</svg>
