<?xml version="1.0" encoding="utf-8"?>
<!-- Generator: Adobe Illustrator 16.0.3, SVG Export Plug-In . SVG Version: 6.00 Build 0)  -->
<!DOCTYPE svg PUBLIC "-//W3C//DTD SVG 1.1//EN" "http://www.w3.org/Graphics/SVG/1.1/DTD/svg11.dtd">
<svg version="1.1" id="Ebene_1" xmlns="http://www.w3.org/2000/svg" xmlns:xlink="http://www.w3.org/1999/xlink" x="0px" y="0px"
	 width="566.93px" height="566.93px" viewBox="0 0 566.93 566.93" enable-background="new 0 0 566.93 566.93" xml:space="preserve">
<g>
	<g opacity="0.5">
		<path fill-rule="evenodd" clip-rule="evenodd" fill="#FFFFFF" d="M279.12,277.05c3.241,0,6.478,0,9.72,0
			c0,4.252-0.005,8.504,0.01,12.756c0.001,0.3-0.08,0.331-0.346,0.33c-3.016-0.011-6.032-0.01-9.047,0
			c-0.263,0.001-0.347-0.026-0.346-0.329C279.125,285.555,279.12,281.302,279.12,277.05z M281.799,283.461
			c0.084,0.28,0.118,0.591,0.263,0.836c0.438,0.74,0.573,0.977,2.032,0.76c1.014-0.15,1.037-0.155,0.697,0.809
			c-0.134,0.381-0.269,0.843-0.559,1.065c-0.442,0.339-0.742,0.755-1.039,1.194c-0.193,0.285-0.077,0.479,0.22,0.515
			c0.515,0.063,1.047-0.029,1.353-0.461c1.007-1.42,1.791-2.933,2.001-4.714c0.144-1.224-0.1-2.36-0.479-3.489
			c-0.228-0.675-1.037-1.159-1.584-0.933c-0.732,0.302-1.472,0.51-1.937,1.344C282.224,281.366,281.803,282.317,281.799,283.461z"/>
		<path fill-rule="evenodd" clip-rule="evenodd" d="M281.799,283.461c0.003-1.145,0.425-2.096,0.97-3.075
			c0.464-0.833,1.204-1.042,1.937-1.344c0.547-0.226,1.356,0.258,1.584,0.933c0.379,1.128,0.622,2.265,0.479,3.489
			c-0.21,1.782-0.994,3.294-2.001,4.714c-0.306,0.432-0.838,0.523-1.353,0.461c-0.297-0.036-0.413-0.229-0.22-0.515
			c0.297-0.439,0.597-0.855,1.039-1.194c0.29-0.223,0.425-0.685,0.559-1.065c0.34-0.964,0.316-0.959-0.697-0.809
			c-1.459,0.217-1.594-0.02-2.032-0.76C281.917,284.052,281.884,283.742,281.799,283.461z M285.448,282.439
			c-0.122-0.533-0.218-0.999-0.339-1.457c-0.074-0.282-0.264-0.346-0.555-0.269c-1.021,0.273-1.798,1.345-1.725,2.416
			c0.057,0.842,0.591,1.108,1.308,0.622c0.392-0.266,0.753-0.583,1.102-0.903C285.357,282.74,285.396,282.547,285.448,282.439z"/>
		<path fill-rule="evenodd" clip-rule="evenodd" fill="#FFFFFF" d="M285.448,282.439c-0.053,0.108-0.091,0.301-0.209,0.409
			c-0.349,0.321-0.71,0.637-1.102,0.903c-0.717,0.486-1.251,0.22-1.308-0.622c-0.073-1.07,0.705-2.142,1.725-2.416
			c0.291-0.078,0.48-0.013,0.555,0.269C285.23,281.44,285.326,281.906,285.448,282.439z"/>
	</g>
	<g>
	</g>
</g>
</svg>
