<?xml version="1.0" encoding="utf-8"?>
<!-- Generator: Adobe Illustrator 16.0.3, SVG Export Plug-In . SVG Version: 6.00 Build 0)  -->
<!DOCTYPE svg PUBLIC "-//W3C//DTD SVG 1.1//EN" "http://www.w3.org/Graphics/SVG/1.1/DTD/svg11.dtd">
<svg version="1.1" id="Ebene_1" xmlns="http://www.w3.org/2000/svg" xmlns:xlink="http://www.w3.org/1999/xlink" x="0px" y="0px"
	 width="566.93px" height="566.93px" viewBox="0 0 566.93 566.93" enable-background="new 0 0 566.93 566.93" xml:space="preserve">
<g>
	<g opacity="0.5">
		<path fill-rule="evenodd" clip-rule="evenodd" fill="#FFFFFF" d="M275.12,292.41c0-6.011,0.005-12.022-0.012-18.033
			c-0.001-0.382,0.179-0.327,0.405-0.327c5.175,0.001,10.351,0.001,15.546,0.001c0,6.12,0,12.24,0,18.359
			C285.761,292.41,280.446,292.41,275.12,292.41z M279.318,288.083c0.055,0.285,0.048,0.514,0.143,0.686
			c0.246,0.447,1.273,0.884,1.775,0.766c1.337-0.316,2.426-1.013,3.103-2.228c0.254-0.457,0.427-0.305,0.647-0.045
			c0.334,0.395,0.637,0.816,0.979,1.203c0.101,0.113,0.38,0.241,0.427,0.199c0.147-0.135,0.306-0.35,0.304-0.531
			c-0.002-0.217-0.131-0.457-0.267-0.643c-0.277-0.383-0.604-0.729-0.892-1.104c-0.07-0.092-0.128-0.255-0.095-0.352
			c0.137-0.398,0.338-0.774,0.46-1.176c0.067-0.221,0.084-0.492,0.015-0.706c-0.058-0.181-0.254-0.405-0.422-0.438
			c-0.158-0.031-0.396,0.128-0.535,0.268c-0.147,0.147-0.189,0.402-0.338,0.55c-0.124,0.125-0.425,0.275-0.491,0.223
			c-0.407-0.332-0.796-0.695-1.128-1.101c-0.083-0.102,0.002-0.448,0.12-0.591c0.74-0.901,1.338-1.884,1.652-3.005
			c0.349-1.247,0.026-2.015-1.193-2.32c-0.42-0.105-0.857-0.232-1.279-0.21c-0.373,0.019-0.84,0.13-1.084,0.379
			c-0.681,0.692-0.947,1.617-0.952,2.564c-0.002,0.493,0.219,0.998,0.389,1.479c0.137,0.39,0.389,0.742,0.511,1.135
			c0.057,0.184-0.003,0.485-0.128,0.631C279.937,284.995,279.581,286.542,279.318,288.083z"/>
		<path fill-rule="evenodd" clip-rule="evenodd" d="M279.318,288.083c0.262-1.541,0.618-3.089,1.721-4.369
			c0.125-0.146,0.185-0.447,0.128-0.631c-0.122-0.394-0.374-0.745-0.511-1.135c-0.17-0.481-0.391-0.986-0.389-1.479
			c0.004-0.947,0.271-1.872,0.952-2.564c0.244-0.249,0.711-0.36,1.084-0.379c0.422-0.022,0.859,0.105,1.279,0.21
			c1.22,0.306,1.542,1.073,1.193,2.32c-0.314,1.122-0.912,2.104-1.652,3.005c-0.118,0.144-0.203,0.489-0.12,0.591
			c0.332,0.405,0.721,0.769,1.128,1.101c0.066,0.053,0.367-0.098,0.491-0.223c0.148-0.147,0.19-0.402,0.338-0.55
			c0.14-0.139,0.377-0.299,0.535-0.268c0.168,0.033,0.364,0.258,0.422,0.438c0.069,0.214,0.053,0.485-0.015,0.706
			c-0.122,0.401-0.323,0.777-0.46,1.176c-0.033,0.097,0.024,0.26,0.095,0.352c0.288,0.375,0.614,0.722,0.892,1.104
			c0.136,0.186,0.265,0.426,0.267,0.643c0.002,0.182-0.156,0.396-0.304,0.531c-0.047,0.042-0.326-0.086-0.427-0.199
			c-0.343-0.387-0.646-0.809-0.979-1.203c-0.221-0.26-0.394-0.412-0.647,0.045c-0.676,1.215-1.765,1.911-3.103,2.228
			c-0.502,0.118-1.529-0.318-1.775-0.766C279.367,288.597,279.374,288.369,279.318,288.083z M280.712,287.493
			c-0.035,0.631,0.24,0.822,0.854,0.702c1.162-0.226,1.525-1.247,2.115-2.045c0.027-0.036-0.011-0.157-0.055-0.203
			c-0.372-0.384-0.731-0.784-1.143-1.12c-0.129-0.105-0.525-0.118-0.599-0.021C281.283,285.601,280.743,286.438,280.712,287.493z
			 M283.478,280.098c-0.023-0.519-0.096-0.898-0.656-0.981c-0.62-0.091-1.239,0.366-1.388,1.021
			c-0.16,0.703,0.018,1.327,0.322,1.945c0.149,0.305,0.377,0.325,0.57,0.118C282.901,281.583,283.31,280.864,283.478,280.098z"/>
		<path fill-rule="evenodd" clip-rule="evenodd" fill="#FFFFFF" d="M280.712,287.493c0.031-1.055,0.571-1.892,1.173-2.688
			c0.073-0.097,0.469-0.084,0.599,0.021c0.412,0.336,0.771,0.736,1.143,1.12c0.044,0.046,0.082,0.167,0.055,0.203
			c-0.59,0.798-0.954,1.819-2.115,2.045C280.952,288.315,280.677,288.124,280.712,287.493z"/>
		<path fill-rule="evenodd" clip-rule="evenodd" fill="#FFFFFF" d="M283.478,280.098c-0.168,0.767-0.577,1.485-1.152,2.103
			c-0.192,0.207-0.42,0.187-0.57-0.118c-0.304-0.618-0.482-1.242-0.322-1.945c0.149-0.655,0.768-1.112,1.388-1.021
			C283.382,279.199,283.455,279.579,283.478,280.098z"/>
	</g>
	<g>
	</g>
</g>
</svg>
