<?xml version="1.0" encoding="utf-8"?>
<!-- Generator: Adobe Illustrator 16.0.3, SVG Export Plug-In . SVG Version: 6.00 Build 0)  -->
<!DOCTYPE svg PUBLIC "-//W3C//DTD SVG 1.1//EN" "http://www.w3.org/Graphics/SVG/1.1/DTD/svg11.dtd">
<svg version="1.1" id="Ebene_1" xmlns="http://www.w3.org/2000/svg" xmlns:xlink="http://www.w3.org/1999/xlink" x="0px" y="0px"
	 width="566.93px" height="566.93px" viewBox="0 0 566.93 566.93" enable-background="new 0 0 566.93 566.93" xml:space="preserve">
<g>
	<g opacity="0.5">
		<path fill-rule="evenodd" clip-rule="evenodd" fill="#FFFFFF" d="M287.875,290.57c-2.924,0-5.82,0-8.736,0c0-4.84,0-9.68,0-14.52
			c2.899,0,5.816,0,8.736,0C287.875,280.881,287.875,285.711,287.875,290.57z M284.712,279.097
			c-0.076-0.325-0.071-0.664-0.232-0.874c-0.119-0.155-0.574-0.27-0.671-0.179c-0.22,0.205-0.424,0.544-0.432,0.835
			c-0.023,0.834,0.043,1.673,0.102,2.508c0.011,0.159,0.143,0.31,0.219,0.465c0.199-0.13,0.533-0.227,0.574-0.395
			C284.464,280.677,284.575,279.876,284.712,279.097z"/>
		<path fill-rule="evenodd" clip-rule="evenodd" d="M284.712,279.097c-0.137,0.779-0.248,1.58-0.44,2.36
			c-0.041,0.168-0.375,0.265-0.574,0.395c-0.076-0.155-0.208-0.306-0.219-0.465c-0.058-0.835-0.125-1.673-0.102-2.508
			c0.008-0.291,0.212-0.63,0.432-0.835c0.097-0.091,0.552,0.024,0.671,0.179C284.641,278.434,284.636,278.772,284.712,279.097z"/>
	</g>
	<g>
	</g>
</g>
</svg>
