<?xml version="1.0" encoding="utf-8"?>
<!-- Generator: Adobe Illustrator 16.0.3, SVG Export Plug-In . SVG Version: 6.00 Build 0)  -->
<!DOCTYPE svg PUBLIC "-//W3C//DTD SVG 1.1//EN" "http://www.w3.org/Graphics/SVG/1.1/DTD/svg11.dtd">
<svg version="1.1" id="Ebene_1" xmlns="http://www.w3.org/2000/svg" xmlns:xlink="http://www.w3.org/1999/xlink" x="0px" y="0px"
	 width="566.93px" height="566.93px" viewBox="0 0 566.93 566.93" enable-background="new 0 0 566.93 566.93" xml:space="preserve">
<g>
	<g opacity="0.5">
		<path fill-rule="evenodd" clip-rule="evenodd" fill="#FFFFFF" d="M289.72,291.727c-4.193,0-8.387,0-12.59,0
			c0-5.545,0-11.093,0-16.659c4.19,0,8.39,0,12.59,0C289.72,280.616,289.72,286.169,289.72,291.727z M281.694,281.023
			c-0.188,0.236-0.339,0.415-0.479,0.603c-0.225,0.304-0.489,0.605-0.363,1.024c0.046,0.154,0.141,0.369,0.26,0.406
			c0.159,0.05,0.39-0.003,0.541-0.093c0.183-0.108,0.302-0.317,0.473-0.452c0.08-0.063,0.235-0.104,0.318-0.068
			c0.083,0.036,0.156,0.176,0.168,0.278c0.043,0.366,0.051,0.737,0.086,1.104c0.058,0.602,0.397,0.765,0.864,0.384
			c0.167-0.136,0.307-0.381,0.334-0.593c0.039-0.303-0.048-0.621-0.06-0.934c-0.006-0.165-0.024-0.375,0.063-0.487
			c0.159-0.203,0.406-0.142,0.598-0.013c0.401,0.268,0.996,0.231,1.224,0.775c0.011,0.027,0.065,0.042,0.103,0.052
			c0.479,0.134,1.023-0.122,1.249-0.587c0.147-0.304,0.064-0.53-0.249-0.677c-0.43-0.203-0.865-0.394-1.286-0.615
			c-0.148-0.078-0.259-0.229-0.388-0.347c0.133-0.102,0.263-0.209,0.399-0.306c0.304-0.213,0.667-0.322,0.881-0.683
			c0.198-0.335,0.039-0.593-0.097-0.834c-0.07-0.125-0.316-0.17-0.492-0.21c-0.451-0.104-0.727,0.253-1.067,0.439
			c-0.465,0.254-0.588,0.201-0.564-0.307c0.022-0.485-0.186-0.812-0.58-1.023c-0.178-0.095-0.471-0.197-0.594-0.116
			c-0.166,0.11-0.273,0.384-0.306,0.602c-0.049,0.326-0.023,0.667-0.006,1c0.015,0.312-0.155,0.359-0.374,0.253
			c-0.281-0.137-0.551-0.306-0.804-0.491c-0.27-0.197-0.841-0.29-0.993-0.098c-0.168,0.214-0.376,0.453-0.406,0.7
			c-0.023,0.188,0.182,0.426,0.33,0.605c0.109,0.131,0.285,0.211,0.439,0.298C281.157,280.748,281.402,280.87,281.694,281.023z"/>
		<path fill-rule="evenodd" clip-rule="evenodd" d="M281.694,281.023c-0.292-0.153-0.537-0.275-0.775-0.41
			c-0.154-0.087-0.33-0.167-0.439-0.298c-0.148-0.179-0.353-0.417-0.33-0.605c0.03-0.248,0.238-0.486,0.406-0.7
			c0.151-0.192,0.723-0.099,0.993,0.098c0.253,0.185,0.522,0.354,0.804,0.491c0.218,0.105,0.389,0.058,0.374-0.253
			c-0.017-0.333-0.043-0.673,0.006-1c0.032-0.218,0.14-0.492,0.306-0.602c0.123-0.081,0.416,0.021,0.594,0.116
			c0.394,0.211,0.602,0.538,0.58,1.023c-0.023,0.507,0.1,0.561,0.564,0.307c0.341-0.186,0.616-0.542,1.067-0.439
			c0.176,0.041,0.422,0.086,0.492,0.21c0.136,0.241,0.295,0.5,0.097,0.834c-0.214,0.361-0.577,0.47-0.881,0.683
			c-0.137,0.096-0.267,0.204-0.399,0.306c0.129,0.118,0.239,0.269,0.388,0.347c0.421,0.221,0.856,0.413,1.286,0.615
			c0.313,0.147,0.396,0.373,0.249,0.677c-0.226,0.465-0.77,0.721-1.249,0.587c-0.037-0.01-0.092-0.025-0.103-0.052
			c-0.228-0.544-0.822-0.507-1.224-0.775c-0.191-0.129-0.438-0.19-0.598,0.013c-0.087,0.111-0.069,0.322-0.063,0.487
			c0.012,0.313,0.099,0.63,0.06,0.934c-0.027,0.211-0.167,0.457-0.334,0.593c-0.467,0.381-0.807,0.218-0.864-0.384
			c-0.035-0.367-0.043-0.738-0.086-1.104c-0.012-0.102-0.085-0.243-0.168-0.278c-0.083-0.036-0.239,0.005-0.318,0.068
			c-0.17,0.135-0.29,0.344-0.473,0.452c-0.151,0.09-0.382,0.143-0.541,0.093c-0.119-0.037-0.213-0.252-0.26-0.406
			c-0.126-0.419,0.138-0.72,0.363-1.024C281.354,281.438,281.506,281.259,281.694,281.023z"/>
	</g>
	<g>
	</g>
</g>
</svg>
