<?xml version="1.0" encoding="utf-8"?>
<!-- Generator: Adobe Illustrator 16.0.3, SVG Export Plug-In . SVG Version: 6.00 Build 0)  -->
<!DOCTYPE svg PUBLIC "-//W3C//DTD SVG 1.1//EN" "http://www.w3.org/Graphics/SVG/1.1/DTD/svg11.dtd">
<svg version="1.1" id="Ebene_1" xmlns="http://www.w3.org/2000/svg" xmlns:xlink="http://www.w3.org/1999/xlink" x="0px" y="0px"
	 width="566.93px" height="566.93px" viewBox="0 0 566.93 566.93" enable-background="new 0 0 566.93 566.93" xml:space="preserve">
<g>
	<path fill-rule="evenodd" clip-rule="evenodd" d="M286.339,287.28c0.079,0.06,0.153,0.123,0.235,0.176
		c0.628,0.412,0.67,1.021,0.02,1.413c-1.277,0.77-2.658,1.176-4.166,0.857c-0.224-0.048-0.46-0.172-0.629-0.328
		c-1.475-1.367-2.629-2.896-2.458-5.066c0.025-0.318-0.005-0.641,0.018-0.959c0.144-2.017,0.749-3.855,1.982-5.495
		c0.879-1.169,1.988-1.808,3.429-2.018c0.518-0.076,1.004-0.125,1.523-0.075c1.161,0.11,1.775,0.928,2.348,1.772
		c0.938,1.382,1.238,2.957,1.243,4.6c0.002,0.734,0.027,1.473-0.041,2.201c-0.089,0.946-1.228,2.076-2.149,2.252
		c-0.561,0.106-0.975-0.202-1.351-0.5c-0.304-0.241-0.479-0.226-0.775-0.018c-0.288,0.204-0.632,0.349-0.97,0.459
		c-0.848,0.277-1.853-0.509-2.042-1.497c-0.22-1.149-0.157-2.297-0.033-3.439c0.035-0.323,0.264-0.738,0.532-0.9
		c0.544-0.329,0.965-0.841,1.677-0.953c0.804-0.126,1.498,0.158,2.211,0.362c0.199,0.057,0.418,0.463,0.422,0.712
		c0.013,0.912-0.09,1.825-0.089,2.737c0.001,0.386,0.097,0.795,0.248,1.15c0.157,0.368,0.482,0.387,0.691,0.051
		c0.172-0.275,0.293-0.611,0.334-0.934c0.186-1.43-0.077-2.816-0.474-4.186c-0.328-1.136-0.974-1.952-2.126-2.372
		c-0.538-0.196-1.012-0.026-1.452,0.133c-0.788,0.285-1.446,0.785-2.004,1.45c-0.397,0.473-0.561,1.063-0.973,1.535
		c-0.309,0.353-0.415,0.935-0.485,1.433c-0.158,1.129-0.5,2.263-0.085,3.412c0.423,1.172,0.918,2.289,2.066,2.949
		c0.668,0.385,2.194,0.371,2.751-0.384C285.905,287.622,286.114,287.485,286.339,287.28z M283.938,284.48
		c0.092,0.207,0.165,0.459,0.33,0.579c0.079,0.058,0.379-0.104,0.521-0.229c0.541-0.48,0.873-2.499,0.514-3.125
		c-0.066-0.115-0.291-0.251-0.385-0.217c-0.259,0.095-0.58,0.217-0.711,0.431c-0.346,0.563-0.354,1.148-0.333,1.887
		c0.009,0.307,0.036,0.235,0.047,0.391"/>
</g>
</svg>
