<?xml version="1.0" encoding="utf-8"?>
<!-- Generator: Adobe Illustrator 16.0.3, SVG Export Plug-In . SVG Version: 6.00 Build 0)  -->
<!DOCTYPE svg PUBLIC "-//W3C//DTD SVG 1.1//EN" "http://www.w3.org/Graphics/SVG/1.1/DTD/svg11.dtd">
<svg version="1.1" id="Ebene_1" xmlns="http://www.w3.org/2000/svg" xmlns:xlink="http://www.w3.org/1999/xlink" x="0px" y="0px"
	 width="566.93px" height="566.93px" viewBox="0 0 566.93 566.93" enable-background="new 0 0 566.93 566.93" xml:space="preserve">
<g>
	<g opacity="0.5">
		<path fill-rule="evenodd" clip-rule="evenodd" fill="#FFFFFF" d="M278.12,283.49c0-2.36,0.006-4.72-0.008-7.08
			c-0.002-0.3,0.067-0.369,0.368-0.368c3.28,0.012,6.56,0.012,9.84,0c0.3-0.001,0.368,0.068,0.367,0.368
			c-0.011,4.72-0.011,9.44,0,14.16c0.001,0.3-0.067,0.369-0.367,0.368c-3.28-0.013-6.561-0.013-9.84,0
			c-0.3,0.001-0.37-0.067-0.368-0.368C278.126,288.21,278.12,285.85,278.12,283.49z M285.942,286.448
			c-0.025-0.068-0.069-0.24-0.147-0.395c-0.178-0.35-0.373-0.689-0.56-1.035c-0.257-0.478-0.534-0.946-0.765-1.437
			c-0.327-0.693-0.593-1.416-0.933-2.102c-0.383-0.772-0.827-1.515-1.232-2.277c-0.23-0.433-1.034-0.814-1.358-0.624
			c-0.358,0.21-0.598,1.173-0.373,1.526c0.24,0.376,0.499,0.741,0.736,1.12c0.163,0.259,0.315,0.526,0.451,0.801
			c0.279,0.566,0.473,1.188,0.83,1.697c0.64,0.914,1.027,1.934,1.428,2.953c0.154,0.393,0.756,0.897,1.111,0.874
			C285.515,287.523,285.87,287.083,285.942,286.448z"/>
		<path fill-rule="evenodd" clip-rule="evenodd" d="M285.942,286.448c-0.072,0.635-0.428,1.075-0.812,1.101
			c-0.355,0.023-0.957-0.481-1.111-0.874c-0.401-1.019-0.788-2.039-1.428-2.953c-0.356-0.509-0.55-1.131-0.83-1.697
			c-0.135-0.274-0.288-0.542-0.451-0.801c-0.237-0.378-0.496-0.743-0.736-1.12c-0.226-0.353,0.015-1.316,0.373-1.526
			c0.325-0.19,1.128,0.191,1.358,0.624c0.405,0.762,0.849,1.505,1.232,2.277c0.34,0.686,0.606,1.409,0.933,2.102
			c0.23,0.491,0.508,0.959,0.765,1.437c0.187,0.346,0.382,0.686,0.56,1.035C285.873,286.208,285.917,286.379,285.942,286.448z"/>
	</g>
	<g>
	</g>
</g>
</svg>
