<?xml version="1.0" encoding="utf-8"?>
<!-- Generator: Adobe Illustrator 16.0.3, SVG Export Plug-In . SVG Version: 6.00 Build 0)  -->
<!DOCTYPE svg PUBLIC "-//W3C//DTD SVG 1.1//EN" "http://www.w3.org/Graphics/SVG/1.1/DTD/svg11.dtd">
<svg version="1.1" id="Ebene_1" xmlns="http://www.w3.org/2000/svg" xmlns:xlink="http://www.w3.org/1999/xlink" x="0px" y="0px"
	 width="566.93px" height="566.93px" viewBox="0 0 566.93 566.93" enable-background="new 0 0 566.93 566.93" xml:space="preserve">
<g>
	<g opacity="0.5">
		<path fill-rule="evenodd" clip-rule="evenodd" fill="#FFFFFF" d="M290.16,290.61c-4.68,0-9.36,0-14.04,0c0-4.52,0-9.04,0-13.56
			c4.68,0,9.359,0,14.04,0C290.16,281.57,290.16,286.09,290.16,290.61z M284.379,284.024c0.001,0.075,0.002,0.15,0.003,0.226
			c-0.352,0.165-0.696,0.35-1.057,0.491c-0.817,0.323-1.637,0.641-2.466,0.929c-0.375,0.131-0.673,0.563-0.601,0.933
			c0.107,0.555,0.519,0.529,0.878,0.414c0.754-0.239,1.493-0.533,2.227-0.832c1.078-0.439,2.143-0.911,3.221-1.353
			c0.533-0.218,0.908-0.767,0.634-1.126c-0.232-0.303-0.635-0.533-1.008-0.657c-0.654-0.218-1.358-0.286-2.017-0.497
			c-1.068-0.342-2.113-0.754-3.173-1.124c-0.182-0.063-0.388-0.097-0.579-0.087c-0.373,0.019-0.755-0.007-0.761,0.584
			c-0.005,0.508,0.062,0.806,0.661,0.792c0.24-0.005,0.483,0.159,0.726,0.247c0.749,0.269,1.494,0.55,2.249,0.802
			C283.66,283.881,284.023,283.94,284.379,284.024z"/>
		<path fill-rule="evenodd" clip-rule="evenodd" d="M284.379,284.024c-0.355-0.084-0.719-0.143-1.063-0.258
			c-0.755-0.252-1.5-0.533-2.249-0.802c-0.242-0.087-0.486-0.252-0.726-0.247c-0.6,0.013-0.666-0.284-0.661-0.792
			c0.006-0.591,0.388-0.565,0.761-0.584c0.191-0.01,0.397,0.023,0.579,0.087c1.06,0.37,2.105,0.782,3.173,1.124
			c0.658,0.21,1.362,0.278,2.017,0.497c0.373,0.124,0.775,0.354,1.008,0.657c0.274,0.359-0.101,0.908-0.634,1.126
			c-1.078,0.441-2.143,0.913-3.221,1.353c-0.734,0.299-1.472,0.593-2.227,0.832c-0.36,0.115-0.771,0.141-0.878-0.414
			c-0.072-0.37,0.226-0.802,0.601-0.933c0.829-0.288,1.649-0.605,2.466-0.929c0.361-0.142,0.705-0.326,1.057-0.491
			C284.381,284.174,284.38,284.099,284.379,284.024z"/>
	</g>
	<g>
	</g>
</g>
</svg>
