<?xml version="1.0" encoding="utf-8"?>
<!-- Generator: Adobe Illustrator 16.0.3, SVG Export Plug-In . SVG Version: 6.00 Build 0)  -->
<!DOCTYPE svg PUBLIC "-//W3C//DTD SVG 1.1//EN" "http://www.w3.org/Graphics/SVG/1.1/DTD/svg11.dtd">
<svg version="1.1" id="Ebene_1" xmlns="http://www.w3.org/2000/svg" xmlns:xlink="http://www.w3.org/1999/xlink" x="0px" y="0px"
	 width="566.93px" height="566.93px" viewBox="0 0 566.93 566.93" enable-background="new 0 0 566.93 566.93" xml:space="preserve">
<g>
	<g opacity="0.5">
		<path fill-rule="evenodd" clip-rule="evenodd" fill="#FFFFFF" d="M277.125,275.05c4.165,0,8.301,0,12.457,0
			c0,5.68,0,11.359,0,17.04c-4.141,0-8.296,0-12.457,0C277.125,286.418,277.125,280.748,277.125,275.05z M282.606,285.742
			c0.161,0.817,0.273,1.648,0.499,2.447c0.181,0.645,0.455,1.274,0.771,1.865c0.182,0.34,0.55,0.552,0.966,0.275
			c0.428-0.284,0.225-0.648,0.102-1c-0.287-0.826-0.718-1.636-0.823-2.485c-0.239-1.918-0.265-3.849,0.818-5.592
			c0.157-0.253,0.353-0.483,0.508-0.737c0.217-0.354,0.279-0.719-0.095-1.01c-0.397-0.309-0.762-0.229-1.06,0.217
			c-0.209,0.313-0.42,0.628-0.595,0.96C282.867,282.266,282.601,283.973,282.606,285.742z"/>
		<path fill-rule="evenodd" clip-rule="evenodd" d="M282.606,285.742c-0.005-1.769,0.261-3.476,1.091-5.059
			c0.175-0.333,0.386-0.647,0.595-0.96c0.298-0.445,0.662-0.525,1.06-0.217c0.374,0.291,0.312,0.656,0.095,1.01
			c-0.155,0.254-0.351,0.484-0.508,0.737c-1.083,1.743-1.057,3.674-0.818,5.592c0.105,0.85,0.536,1.659,0.823,2.485
			c0.123,0.352,0.326,0.716-0.102,1c-0.416,0.276-0.784,0.064-0.966-0.275c-0.316-0.591-0.59-1.221-0.771-1.865
			C282.879,287.39,282.767,286.559,282.606,285.742z"/>
	</g>
	<g>
	</g>
</g>
</svg>
