<?xml version="1.0" encoding="utf-8"?>
<!-- Generator: Adobe Illustrator 16.0.3, SVG Export Plug-In . SVG Version: 6.00 Build 0)  -->
<!DOCTYPE svg PUBLIC "-//W3C//DTD SVG 1.1//EN" "http://www.w3.org/Graphics/SVG/1.1/DTD/svg11.dtd">
<svg version="1.1" id="Ebene_1" xmlns="http://www.w3.org/2000/svg" xmlns:xlink="http://www.w3.org/1999/xlink" x="0px" y="0px"
	 width="566.93px" height="566.93px" viewBox="0 0 566.93 566.93" enable-background="new 0 0 566.93 566.93" xml:space="preserve">
<g>
	<g opacity="0.5">
		<path fill-rule="evenodd" clip-rule="evenodd" fill="#FFFFFF" d="M288.84,283.21c0,2.58-0.005,5.16,0.008,7.74
			c0.001,0.258-0.05,0.309-0.308,0.308c-3.04-0.012-6.08-0.012-9.12,0c-0.258,0.001-0.308-0.05-0.307-0.308
			c0.01-5.2,0.01-10.4,0-15.6c0-0.257,0.049-0.309,0.307-0.308c3.04,0.012,6.08,0.012,9.12,0c0.258-0.001,0.309,0.05,0.308,0.308
			C288.835,277.97,288.84,280.59,288.84,283.21z M283.921,284.237c-0.06,0.805-0.062,1.592-0.402,2.337
			c-0.138,0.303-0.27,0.611-0.372,0.928c-0.135,0.423,0.229,0.964,0.667,1.013c0.066,0.008,0.179-0.021,0.2-0.065
			c0.138-0.289,0.281-0.579,0.377-0.883c0.262-0.834,0.503-1.674,0.748-2.513c0.027-0.092,0.033-0.192,0.037-0.289
			c0.013-0.275,0.026-0.551,0.026-0.827c-0.002-0.49-0.003-0.98-0.023-1.47c-0.013-0.304-0.043-0.61-0.097-0.91
			c-0.056-0.313-0.164-0.616-0.222-0.928c-0.17-0.919-0.476-1.779-1.179-2.425c-0.221-0.203-0.539-0.326-0.833-0.413
			c-0.244-0.072-0.548,0.184-0.533,0.439c0.019,0.325-0.017,0.654,0.261,0.947c0.444,0.467,0.711,1.04,0.835,1.692
			c0.096,0.504,0.211,0.999,0.25,1.515C283.708,283.004,283.831,283.619,283.921,284.237z"/>
		<path fill-rule="evenodd" clip-rule="evenodd" d="M283.921,284.237c-0.09-0.618-0.212-1.232-0.259-1.853
			c-0.039-0.517-0.153-1.011-0.25-1.515c-0.125-0.652-0.391-1.225-0.835-1.692c-0.278-0.292-0.243-0.622-0.261-0.947
			c-0.015-0.255,0.29-0.511,0.533-0.439c0.294,0.087,0.613,0.21,0.833,0.413c0.703,0.646,1.009,1.506,1.179,2.425
			c0.058,0.312,0.166,0.615,0.222,0.928c0.054,0.3,0.084,0.606,0.097,0.91c0.021,0.49,0.021,0.98,0.023,1.47
			c0,0.276-0.014,0.552-0.026,0.827c-0.004,0.097-0.01,0.197-0.037,0.289c-0.245,0.839-0.486,1.679-0.748,2.513
			c-0.096,0.304-0.239,0.594-0.377,0.883c-0.021,0.045-0.134,0.073-0.2,0.065c-0.438-0.049-0.803-0.59-0.667-1.013
			c0.102-0.316,0.233-0.625,0.372-0.928C283.859,285.829,283.861,285.042,283.921,284.237z"/>
	</g>
	<g>
	</g>
</g>
</svg>
