<?xml version="1.0" encoding="utf-8"?>
<!-- Generator: Adobe Illustrator 16.0.3, SVG Export Plug-In . SVG Version: 6.00 Build 0)  -->
<!DOCTYPE svg PUBLIC "-//W3C//DTD SVG 1.1//EN" "http://www.w3.org/Graphics/SVG/1.1/DTD/svg11.dtd">
<svg version="1.1" id="Ebene_1" xmlns="http://www.w3.org/2000/svg" xmlns:xlink="http://www.w3.org/1999/xlink" x="0px" y="0px"
	 width="566.93px" height="566.93px" viewBox="0 0 566.93 566.93" enable-background="new 0 0 566.93 566.93" xml:space="preserve">
<g>
	<g opacity="0.5">
		<path fill-rule="evenodd" clip-rule="evenodd" fill="#FFFFFF" d="M278.12,283.23c0-1.94,0.008-3.88-0.008-5.82
			c-0.002-0.3,0.068-0.369,0.368-0.368c3.64,0.012,7.28,0.012,10.919,0c0.3-0.001,0.369,0.068,0.368,0.368
			c-0.012,3.88-0.012,7.76,0,11.639c0.001,0.301-0.068,0.369-0.368,0.368c-3.64-0.012-7.279-0.012-10.919,0
			c-0.3,0.001-0.371-0.067-0.368-0.368C278.128,287.11,278.12,285.17,278.12,283.23z M285.927,285.155
			c-0.339-0.31-0.654-0.821-1.024-0.864c-0.285-0.034-0.857,0.493-0.899,0.823c-0.043,0.331,0.332,0.878,0.669,1.053
			C285.027,286.351,285.788,285.665,285.927,285.155z M285.616,281.173c-0.004-0.64-0.323-1.025-0.895-1.002
			c-0.312,0.012-0.727,0.019-0.644,0.531c0.092,0.57,0.048,1.234,0.675,1.537C284.986,282.352,285.618,281.529,285.616,281.173z"/>
		<path fill-rule="evenodd" clip-rule="evenodd" d="M285.927,285.155c-0.139,0.51-0.899,1.196-1.255,1.012
			c-0.337-0.175-0.712-0.722-0.669-1.053c0.042-0.33,0.614-0.857,0.899-0.823C285.272,284.333,285.588,284.845,285.927,285.155z"/>
		<path fill-rule="evenodd" clip-rule="evenodd" d="M285.616,281.173c0.002,0.355-0.63,1.178-0.863,1.065
			c-0.627-0.303-0.583-0.967-0.675-1.537c-0.083-0.512,0.332-0.519,0.644-0.531C285.293,280.148,285.612,280.534,285.616,281.173z"
			/>
	</g>
	<g>
	</g>
</g>
</svg>
