<?xml version="1.0" encoding="utf-8"?>
<!-- Generator: Adobe Illustrator 16.0.3, SVG Export Plug-In . SVG Version: 6.00 Build 0)  -->
<!DOCTYPE svg PUBLIC "-//W3C//DTD SVG 1.1//EN" "http://www.w3.org/Graphics/SVG/1.1/DTD/svg11.dtd">
<svg version="1.1" id="Ebene_1" xmlns="http://www.w3.org/2000/svg" xmlns:xlink="http://www.w3.org/1999/xlink" x="0px" y="0px"
	 width="566.93px" height="566.93px" viewBox="0 0 566.93 566.93" enable-background="new 0 0 566.93 566.93" xml:space="preserve">
<g>
	<g opacity="0.5">
		<path fill-rule="evenodd" clip-rule="evenodd" fill="#FFFFFF" d="M278.12,283.59c0-2.06,0.007-4.12-0.008-6.18
			c-0.002-0.3,0.068-0.369,0.368-0.368c3.2,0.013,6.4,0.013,9.6,0c0.3-0.001,0.368,0.068,0.367,0.368
			c-0.011,4.12-0.011,8.24,0,12.36c0.001,0.3-0.067,0.369-0.367,0.368c-3.2-0.013-6.4-0.013-9.6,0
			c-0.3,0.001-0.37-0.067-0.368-0.368C278.127,287.71,278.12,285.65,278.12,283.59z M282.72,284.102
			c-0.152,0.113-0.492,0.24-0.518,0.414c-0.049,0.33-0.005,0.735,0.155,1.021c0.248,0.443,0.381,0.75-0.153,1.078
			c-0.152,0.093-0.375,0.374-0.143,0.665c0.15,0.188,0.278,0.444,0.559,0.324c0.694-0.298,1.367-0.64,1.688-1.394
			c0.053-0.122,0.12-0.282,0.082-0.392c-0.25-0.728-0.825-1.188-1.406-1.639C282.94,284.148,282.872,284.146,282.72,284.102z"/>
		<path fill-rule="evenodd" clip-rule="evenodd" d="M282.72,284.102c0.152,0.044,0.221,0.046,0.264,0.079
			c0.581,0.45,1.156,0.911,1.406,1.639c0.038,0.109-0.029,0.27-0.082,0.392c-0.32,0.754-0.993,1.096-1.688,1.394
			c-0.281,0.12-0.409-0.136-0.559-0.324c-0.232-0.291-0.009-0.572,0.143-0.665c0.534-0.328,0.401-0.635,0.153-1.078
			c-0.161-0.286-0.205-0.691-0.155-1.021C282.228,284.342,282.567,284.215,282.72,284.102z"/>
	</g>
	<g>
	</g>
</g>
</svg>
