<?xml version="1.0" encoding="utf-8"?>
<!-- Generator: Adobe Illustrator 16.0.3, SVG Export Plug-In . SVG Version: 6.00 Build 0)  -->
<!DOCTYPE svg PUBLIC "-//W3C//DTD SVG 1.1//EN" "http://www.w3.org/Graphics/SVG/1.1/DTD/svg11.dtd">
<svg version="1.1" id="Ebene_1" xmlns="http://www.w3.org/2000/svg" xmlns:xlink="http://www.w3.org/1999/xlink" x="0px" y="0px"
	 width="566.93px" height="566.93px" viewBox="0 0 566.93 566.93" enable-background="new 0 0 566.93 566.93" xml:space="preserve">
<g>
	<path fill-rule="evenodd" clip-rule="evenodd" d="M282.813,287.874c-0.012-1.116-0.027-2.224,0.561-3.25
		c0.117-0.203-0.145-0.622-0.229-0.942c-0.13-0.491-0.309-0.975-0.376-1.475c-0.122-0.892-0.176-1.792-0.258-2.689
		c-0.04-0.434-0.093-0.868-0.114-1.303c-0.043-0.933-0.438-1.247-1.332-1.072c-0.385,0.076-0.747,0.086-0.897-0.427
		c-0.174-0.594,0.152-0.92,0.594-1.128c1.078-0.506,2.734,0.128,3.191,1.209c0.222,0.525,0.298,1.021,0.224,1.664
		c-0.111,0.973,0.274,2.003,0.443,3.009c0.04,0.236,0.063,0.486,0.069,0.711c0.014,0.451,0.061,0.436,0.431,0.481
		c0.582,0.072,0.952,0.098,1.088,0.654c0.139,0.571-0.047,0.978-0.621,1.262c-0.292,0.144-0.545,0.482-0.688,0.792
		c-0.391,0.847-0.398,1.742-0.342,2.676c0.071,1.186,0.104,2.414-0.144,3.56c-0.116,0.538-0.863,1.052-1.442,1.337
		c-0.359,0.178-0.98-0.009-1.404-0.205c-0.202-0.093-0.337-0.612-0.279-0.893c0.043-0.211,0.453-0.337,0.681-0.523
		c0.2-0.163,0.507-0.338,0.538-0.542C282.652,289.818,282.718,288.843,282.813,287.874z"/>
</g>
</svg>
