<?xml version="1.0" encoding="utf-8"?>
<!-- Generator: Adobe Illustrator 16.0.3, SVG Export Plug-In . SVG Version: 6.00 Build 0)  -->
<!DOCTYPE svg PUBLIC "-//W3C//DTD SVG 1.1//EN" "http://www.w3.org/Graphics/SVG/1.1/DTD/svg11.dtd">
<svg version="1.1" id="Ebene_1" xmlns="http://www.w3.org/2000/svg" xmlns:xlink="http://www.w3.org/1999/xlink" x="0px" y="0px"
	 width="566.93px" height="566.93px" viewBox="0 0 566.93 566.93" enable-background="new 0 0 566.93 566.93" xml:space="preserve">
<g>
	<g opacity="0.5">
		<path fill-rule="evenodd" clip-rule="evenodd" fill="#FFFFFF" d="M291.84,295.687c-5.234,0-10.468,0-15.711,0
			c0-7.865,0-15.733,0-23.619c5.231,0,10.471,0,15.711,0C291.84,279.937,291.84,287.81,291.84,295.687z M281.28,283.435
			c-0.479,1.171-0.452,1.226,0.824,1.484c0.713,0.146,0.891,0.432,0.805,1.185c-0.062,0.54-0.177,1.106-0.078,1.625
			c0.201,1.044,0.505,2.071,0.816,3.09c0.301,0.986,1.725,1.263,2.409,0.507c0.158-0.175,0.377-0.293,0.621-0.478
			c0.089-0.82-0.145-1.055-1.054-0.958c-0.078,0.009-0.163,0.072-0.229,0.054c-0.122-0.035-0.3-0.084-0.337-0.175
			c-0.216-0.526-0.508-1.055-0.563-1.604c-0.099-0.967-0.026-1.95-0.066-2.924c-0.011-0.282-0.163-0.558-0.243-0.839
			c-0.057-0.196-0.207-0.462-0.132-0.583c0.412-0.664,0.673-1.342,0.505-2.135c-0.05-0.237-0.088-0.477-0.13-0.716
			c-0.18-1.028-0.348-2.058-0.544-3.082c-0.088-0.456-0.024-0.791,0.485-0.901c0.467-0.102,0.935-0.239,1.382,0.089
			c0.075,0.055,0.23,0.061,0.32,0.023c0.415-0.177,0.475-0.503,0.441-0.934c-0.033-0.432-0.203-0.727-0.608-0.744
			c-0.569-0.023-1.143,0.056-1.714,0.094c-1.308,0.087-1.964,1.696-1.626,2.938c0.349,1.279,0.57,2.582,0.454,3.91
			c-0.023,0.262-0.241,0.607-0.468,0.728C282.185,283.284,281.738,283.321,281.28,283.435z"/>
		<path fill-rule="evenodd" clip-rule="evenodd" d="M281.28,283.435c0.458-0.114,0.905-0.151,1.27-0.344
			c0.227-0.12,0.445-0.466,0.468-0.728c0.117-1.328-0.105-2.631-0.454-3.91c-0.338-1.242,0.318-2.852,1.626-2.938
			c0.571-0.038,1.145-0.117,1.714-0.094c0.405,0.017,0.575,0.312,0.608,0.744c0.033,0.43-0.026,0.756-0.441,0.934
			c-0.09,0.038-0.245,0.032-0.32-0.023c-0.447-0.328-0.915-0.191-1.382-0.089c-0.509,0.111-0.573,0.446-0.485,0.901
			c0.197,1.024,0.365,2.054,0.544,3.082c0.042,0.239,0.08,0.479,0.13,0.716c0.168,0.793-0.093,1.471-0.505,2.135
			c-0.075,0.121,0.075,0.387,0.132,0.583c0.08,0.281,0.232,0.557,0.243,0.839c0.04,0.974-0.032,1.957,0.066,2.924
			c0.056,0.549,0.348,1.077,0.563,1.604c0.037,0.091,0.215,0.14,0.337,0.175c0.065,0.019,0.15-0.045,0.229-0.054
			c0.909-0.097,1.143,0.138,1.054,0.958c-0.244,0.185-0.463,0.303-0.621,0.478c-0.685,0.756-2.108,0.479-2.409-0.507
			c-0.312-1.019-0.616-2.046-0.816-3.09c-0.1-0.519,0.016-1.085,0.078-1.625c0.086-0.753-0.091-1.039-0.805-1.185
			C280.828,284.661,280.8,284.606,281.28,283.435z"/>
	</g>
	<g>
	</g>
</g>
</svg>
