<?xml version="1.0" encoding="utf-8"?>
<!-- Generator: Adobe Illustrator 16.0.3, SVG Export Plug-In . SVG Version: 6.00 Build 0)  -->
<!DOCTYPE svg PUBLIC "-//W3C//DTD SVG 1.1//EN" "http://www.w3.org/Graphics/SVG/1.1/DTD/svg11.dtd">
<svg version="1.1" id="Ebene_1" xmlns="http://www.w3.org/2000/svg" xmlns:xlink="http://www.w3.org/1999/xlink" x="0px" y="0px"
	 width="566.93px" height="566.93px" viewBox="0 0 566.93 566.93" enable-background="new 0 0 566.93 566.93" xml:space="preserve">
<g>
	<g opacity="0.5">
		<path fill-rule="evenodd" clip-rule="evenodd" fill="#FFFFFF" d="M288.681,291.411c-3.521,0-7.041,0-10.561,0
			c0-5.12,0-10.24,0-15.36c3.52,0,7.04,0,10.561,0C288.681,281.17,288.681,286.291,288.681,291.411z M283.828,283.122
			c0.15-0.081,0.459-0.212,0.731-0.398c0.553-0.377,0.75-0.998,1.004-1.574c0.077-0.173,0.207-0.375,0.175-0.536
			c-0.114-0.555-0.268-1.105-0.446-1.644c-0.189-0.572-0.86-0.509-1.223-0.863c-0.018-0.017-0.077,0.004-0.114,0.014
			c-0.302,0.083-0.607,0.154-0.902,0.257c-0.183,0.064-0.394,0.138-0.515,0.275c-0.84,0.955-1.256,2.001-0.679,3.267
			C282.107,282.465,283.049,283.141,283.828,283.122z"/>
		<path fill-rule="evenodd" clip-rule="evenodd" d="M283.828,283.122c-0.778,0.02-1.721-0.656-1.97-1.202
			c-0.577-1.266-0.161-2.312,0.679-3.267c0.121-0.138,0.332-0.211,0.515-0.275c0.294-0.104,0.6-0.174,0.902-0.257
			c0.038-0.01,0.097-0.031,0.114-0.014c0.362,0.354,1.033,0.291,1.223,0.863c0.179,0.539,0.332,1.089,0.446,1.644
			c0.032,0.161-0.098,0.363-0.175,0.536c-0.254,0.576-0.451,1.196-1.004,1.574C284.287,282.909,283.978,283.041,283.828,283.122z
			 M284.405,280.722c-0.017-0.008-0.034-0.016-0.051-0.023c0-0.08,0.004-0.159-0.001-0.238c-0.025-0.44-0.368-0.81-0.823-0.893
			c-0.226-0.041-0.507,0.267-0.63,0.692c-0.017,0.057-0.058,0.123-0.043,0.171c0.121,0.387,0.158,0.854,0.405,1.132
			c0.279,0.314,0.626-0.073,0.88-0.245C284.295,281.214,284.322,280.926,284.405,280.722z"/>
		<path fill-rule="evenodd" clip-rule="evenodd" fill="#FFFFFF" d="M284.405,280.722c-0.083,0.204-0.11,0.492-0.263,0.595
			c-0.254,0.172-0.602,0.559-0.88,0.245c-0.248-0.278-0.285-0.745-0.405-1.132c-0.015-0.048,0.026-0.114,0.043-0.171
			c0.123-0.425,0.405-0.733,0.63-0.692c0.455,0.083,0.798,0.453,0.823,0.893c0.005,0.079,0.001,0.159,0.001,0.238
			C284.371,280.707,284.389,280.714,284.405,280.722z"/>
	</g>
	<g>
	</g>
</g>
</svg>
