<?xml version="1.0" encoding="utf-8"?>
<!-- Generator: Adobe Illustrator 16.0.3, SVG Export Plug-In . SVG Version: 6.00 Build 0)  -->
<!DOCTYPE svg PUBLIC "-//W3C//DTD SVG 1.1//EN" "http://www.w3.org/Graphics/SVG/1.1/DTD/svg11.dtd">
<svg version="1.1" id="Ebene_1" xmlns="http://www.w3.org/2000/svg" xmlns:xlink="http://www.w3.org/1999/xlink" x="0px" y="0px"
	 width="566.93px" height="566.93px" viewBox="0 0 566.93 566.93" enable-background="new 0 0 566.93 566.93" xml:space="preserve">
<g>
	<g opacity="0.5">
		<path fill-rule="evenodd" clip-rule="evenodd" fill="#FFFFFF" d="M277.12,291.287c0-5.09,0-10.145,0-15.218c4.48,0,8.96,0,13.44,0
			c0,5.066,0,10.14,0,15.218C286.087,291.287,281.614,291.287,277.12,291.287z M283.225,285.413
			c-0.006,0.501,0.139,0.696,0.522,0.706c0.577,0.015,0.952-0.278,0.963-0.752c0.007-0.314-0.478-0.965-0.742-0.995
			C283.73,284.343,283.229,285.044,283.225,285.413z"/>
		<path fill-rule="evenodd" clip-rule="evenodd" d="M283.225,285.413c0.004-0.368,0.505-1.069,0.743-1.041
			c0.265,0.03,0.749,0.681,0.742,0.995c-0.011,0.474-0.386,0.767-0.963,0.752C283.364,286.109,283.219,285.914,283.225,285.413z"/>
	</g>
	<g>
	</g>
</g>
</svg>
