<?xml version="1.0" encoding="utf-8"?>
<!-- Generator: Adobe Illustrator 16.0.3, SVG Export Plug-In . SVG Version: 6.00 Build 0)  -->
<!DOCTYPE svg PUBLIC "-//W3C//DTD SVG 1.1//EN" "http://www.w3.org/Graphics/SVG/1.1/DTD/svg11.dtd">
<svg version="1.1" id="Ebene_1" xmlns="http://www.w3.org/2000/svg" xmlns:xlink="http://www.w3.org/1999/xlink" x="0px" y="0px"
	 width="566.93px" height="566.93px" viewBox="0 0 566.93 566.93" enable-background="new 0 0 566.93 566.93" xml:space="preserve">
<g>
	<g opacity="0.5">
		<path fill-rule="evenodd" clip-rule="evenodd" fill="#FFFFFF" d="M276.12,279.05c4.8,0,9.6,0,14.4,0c0,3.04,0,6.08,0,9.12
			c-4.801,0-9.601,0-14.4,0C276.12,285.13,276.12,282.09,276.12,279.05z M287.241,284.73c-0.155-0.146-0.348-0.489-0.558-0.501
			c-1.777-0.101-3.558-0.143-5.337-0.197c-0.416-0.013-0.833-0.022-1.249-0.001c-0.534,0.027-0.434,0.528-0.482,0.82
			c-0.031,0.188,0.223,0.557,0.42,0.618c0.317,0.1,0.693,0.002,1.045,0.004c1.551,0.012,3.102,0.008,4.652,0.053
			C286.365,285.545,286.939,285.554,287.241,284.73z M284.646,282.787c0.901-0.094,1.513-0.122,2.106-0.239
			c0.178-0.035,0.308-0.317,0.46-0.486c-0.249-0.146-0.49-0.401-0.746-0.417c-1.127-0.072-2.259-0.093-3.389-0.099
			c-1.125-0.005-2.25,0.014-3.373,0.065c-0.167,0.007-0.472,0.27-0.457,0.378c0.037,0.261,0.189,0.532,0.369,0.733
			c0.087,0.098,0.34,0.062,0.518,0.062C281.734,282.789,283.334,282.787,284.646,282.787z"/>
		<path fill-rule="evenodd" clip-rule="evenodd" d="M287.241,284.73c-0.302,0.824-0.876,0.815-1.509,0.796
			c-1.55-0.045-3.101-0.041-4.652-0.053c-0.352-0.002-0.728,0.096-1.045-0.004c-0.197-0.062-0.452-0.431-0.42-0.618
			c0.048-0.292-0.051-0.793,0.482-0.82c0.415-0.021,0.833-0.012,1.249,0.001c1.779,0.055,3.56,0.097,5.337,0.197
			C286.894,284.241,287.086,284.583,287.241,284.73z"/>
		<path fill-rule="evenodd" clip-rule="evenodd" d="M284.646,282.787c-1.312,0-2.912,0.001-4.512-0.002
			c-0.178,0-0.431,0.036-0.518-0.062c-0.18-0.201-0.333-0.473-0.369-0.733c-0.015-0.108,0.29-0.371,0.457-0.378
			c1.123-0.051,2.249-0.07,3.373-0.065c1.13,0.005,2.262,0.026,3.389,0.099c0.256,0.017,0.497,0.272,0.746,0.417
			c-0.152,0.169-0.282,0.451-0.46,0.486C286.159,282.665,285.548,282.693,284.646,282.787z"/>
	</g>
	<g>
	</g>
</g>
</svg>
