<?xml version="1.0" encoding="utf-8"?>
<!-- Generator: Adobe Illustrator 16.0.3, SVG Export Plug-In . SVG Version: 6.00 Build 0)  -->
<!DOCTYPE svg PUBLIC "-//W3C//DTD SVG 1.1//EN" "http://www.w3.org/Graphics/SVG/1.1/DTD/svg11.dtd">
<svg version="1.1" id="Ebene_1" xmlns="http://www.w3.org/2000/svg" xmlns:xlink="http://www.w3.org/1999/xlink" x="0px" y="0px"
	 width="566.93px" height="566.93px" viewBox="0 0 566.93 566.93" enable-background="new 0 0 566.93 566.93" xml:space="preserve">
<g>
	<g opacity="0.5">
		<path fill-rule="evenodd" clip-rule="evenodd" fill="#FFFFFF" d="M279.12,276.05c3.099,0,6.155,0,9.226,0
			c0,4.84,0,9.68,0.001,14.52c-3.075,0-6.151,0-9.227,0C279.12,285.735,279.12,280.901,279.12,276.05z M282.913,283.273
			c0.015,0.002,0.029,0.004,0.044,0.006c0,0.218-0.016,0.438,0.003,0.655c0.039,0.426,0.477,0.844,0.792,0.774
			c0.421-0.092,0.651-0.493,0.548-0.956c-0.355-1.585,0.189-3.104,0.374-4.645c0.071-0.602,0.009-1.059-0.488-1.143
			c-0.508-0.086-0.702,0.29-0.753,0.72C283.251,280.214,283.085,281.744,282.913,283.273z M284.047,286.974
			c-0.497-0.377-0.963-0.226-1.248,0.139c-0.139,0.179-0.028,0.641,0.104,0.909c0.083,0.172,0.455,0.36,0.622,0.307
			C284.197,288.113,284.089,287.52,284.047,286.974z"/>
		<path fill-rule="evenodd" clip-rule="evenodd" d="M282.913,283.273c0.172-1.53,0.338-3.06,0.521-4.588
			c0.051-0.43,0.245-0.806,0.753-0.72c0.497,0.084,0.56,0.541,0.488,1.143c-0.185,1.542-0.729,3.06-0.374,4.645
			c0.104,0.462-0.127,0.864-0.548,0.956c-0.315,0.069-0.754-0.349-0.792-0.774c-0.02-0.217-0.003-0.437-0.003-0.655
			C282.942,283.277,282.928,283.275,282.913,283.273z"/>
		<path fill-rule="evenodd" clip-rule="evenodd" d="M284.047,286.974c0.042,0.546,0.15,1.139-0.522,1.354
			c-0.167,0.054-0.538-0.135-0.622-0.307c-0.131-0.269-0.243-0.73-0.104-0.909C283.084,286.749,283.55,286.597,284.047,286.974z"/>
	</g>
	<g>
	</g>
</g>
</svg>
