<?xml version="1.0" encoding="utf-8"?>
<!-- Generator: Adobe Illustrator 16.0.3, SVG Export Plug-In . SVG Version: 6.00 Build 0)  -->
<!DOCTYPE svg PUBLIC "-//W3C//DTD SVG 1.1//EN" "http://www.w3.org/Graphics/SVG/1.1/DTD/svg11.dtd">
<svg version="1.1" id="Ebene_1" xmlns="http://www.w3.org/2000/svg" xmlns:xlink="http://www.w3.org/1999/xlink" x="0px" y="0px"
	 width="566.93px" height="566.93px" viewBox="0 0 566.93 566.93" enable-background="new 0 0 566.93 566.93" xml:space="preserve">
<g>
	<g opacity="0.5">
		<path fill-rule="evenodd" clip-rule="evenodd" fill="#FFFFFF" d="M276.12,291.61c0-5.52,0-11.04,0-16.56c5.04,0,10.08,0,15.119,0
			c0,5.52,0,11.04,0,16.56C286.2,291.61,281.16,291.61,276.12,291.61z M280.248,283.885c0.856-0.384,1.307-0.081,1.274,0.629
			c-0.063,1.379-0.13,2.759-0.137,4.139c-0.001,0.231,0.294,0.464,0.452,0.696c0.254-0.207,0.701-0.39,0.73-0.625
			c0.161-1.273,0.206-2.562,0.317-3.843c0.11-1.262,0.208-2.528,0.396-3.78c0.098-0.657,0.308-1.323,0.611-1.91
			c0.115-0.224,0.636-0.325,0.969-0.318c0.235,0.005,0.584,0.237,0.674,0.454c0.235,0.565-0.338,2.065-0.919,2.245
			c-0.685,0.211-0.46,0.743-0.539,1.146c-0.017,0.087,0.44,0.311,0.704,0.401c0.354,0.121,0.76,0.114,1.09,0.273
			c0.261,0.126,0.553,0.388,0.631,0.649c0.182,0.609-0.315,0.977-0.761,1.102c-0.368,0.104-0.973,0.011-1.216-0.242
			c-0.349-0.363-0.642-0.269-0.757-0.011c-0.156,0.347-0.285,0.987-0.104,1.154c0.983,0.911,2.43,0.754,3.333-0.253
			c1.031-1.149,1.321-2.561,0.34-3.173c-1.269-0.792-1.068-1.586-0.614-2.608c0.039-0.089,0.034-0.196,0.062-0.292
			c0.334-1.186-0.143-2.02-1.394-2.486c-0.985-0.367-2.07-0.068-2.502,1.047c-0.29,0.75-0.458,1.545-0.708,2.312
			c-0.178,0.547-0.114,1.383-1.138,1.054c-0.091-0.029-0.333,0.128-0.361,0.236C280.52,282.501,280.404,283.133,280.248,283.885z"/>
		<path fill-rule="evenodd" clip-rule="evenodd" d="M280.248,283.885c0.157-0.751,0.272-1.383,0.432-2.004
			c0.028-0.108,0.271-0.266,0.361-0.236c1.024,0.33,0.959-0.506,1.138-1.054c0.25-0.767,0.418-1.563,0.708-2.312
			c0.432-1.115,1.517-1.414,2.502-1.047c1.251,0.466,1.728,1.301,1.394,2.486c-0.027,0.096-0.022,0.203-0.062,0.292
			c-0.454,1.022-0.654,1.817,0.614,2.608c0.981,0.612,0.691,2.023-0.34,3.173c-0.903,1.007-2.35,1.164-3.333,0.253
			c-0.181-0.167-0.052-0.808,0.104-1.154c0.115-0.258,0.409-0.353,0.757,0.011c0.243,0.253,0.848,0.347,1.216,0.242
			c0.445-0.125,0.942-0.492,0.761-1.102c-0.078-0.261-0.37-0.522-0.631-0.649c-0.33-0.16-0.736-0.152-1.09-0.273
			c-0.264-0.09-0.721-0.313-0.704-0.401c0.079-0.403-0.146-0.935,0.539-1.146c0.581-0.18,1.154-1.68,0.919-2.245
			c-0.09-0.217-0.438-0.448-0.674-0.454c-0.333-0.007-0.854,0.095-0.969,0.318c-0.303,0.587-0.513,1.253-0.611,1.91
			c-0.188,1.251-0.286,2.518-0.396,3.78c-0.111,1.281-0.156,2.569-0.317,3.843c-0.03,0.235-0.477,0.418-0.73,0.625
			c-0.158-0.232-0.453-0.465-0.452-0.696c0.007-1.38,0.074-2.76,0.137-4.139C281.554,283.804,281.104,283.5,280.248,283.885z"/>
	</g>
	<g>
	</g>
</g>
</svg>
