<?xml version="1.0" encoding="utf-8"?>
<!-- Generator: Adobe Illustrator 16.0.3, SVG Export Plug-In . SVG Version: 6.00 Build 0)  -->
<!DOCTYPE svg PUBLIC "-//W3C//DTD SVG 1.1//EN" "http://www.w3.org/Graphics/SVG/1.1/DTD/svg11.dtd">
<svg version="1.1" id="Ebene_1" xmlns="http://www.w3.org/2000/svg" xmlns:xlink="http://www.w3.org/1999/xlink" x="0px" y="0px"
	 width="566.93px" height="566.93px" viewBox="0 0 566.93 566.93" enable-background="new 0 0 566.93 566.93" xml:space="preserve">
<g>
	<g>
		<path fill-rule="evenodd" clip-rule="evenodd" fill="#FFFFFF" d="M278.12,288.61c0-3.52,0-7.04,0-10.56c3.44,0,6.88,0,10.319,0
			c0,3.52,0,7.04,0,10.56C285,288.61,281.56,288.61,278.12,288.61z M281.387,282.251c-0.492-0.054-0.943-0.081-0.97,0.53
			c-0.021,0.474,0.364,0.745,0.956,0.707c0.413-0.027,0.823-0.089,1.236-0.122c0.639-0.05,1.282-0.148,1.916-0.111
			c0.419,0.024,0.676-0.063,0.723-0.458c0.056-0.461-0.292-0.543-0.658-0.544C283.504,282.249,282.419,282.251,281.387,282.251z"/>
		<path fill-rule="evenodd" clip-rule="evenodd" d="M281.387,282.251c1.032,0,2.117-0.002,3.202,0.001
			c0.366,0,0.714,0.083,0.658,0.544c-0.047,0.396-0.304,0.483-0.723,0.458c-0.634-0.037-1.277,0.061-1.916,0.111
			c-0.413,0.033-0.824,0.095-1.236,0.122c-0.592,0.039-0.977-0.232-0.956-0.707C280.443,282.17,280.895,282.197,281.387,282.251z"/>
	</g>
</g>
</svg>
