<?xml version="1.0" encoding="utf-8"?>
<!-- Generator: Adobe Illustrator 16.0.3, SVG Export Plug-In . SVG Version: 6.00 Build 0)  -->
<!DOCTYPE svg PUBLIC "-//W3C//DTD SVG 1.1//EN" "http://www.w3.org/Graphics/SVG/1.1/DTD/svg11.dtd">
<svg version="1.1" id="Ebene_1" xmlns="http://www.w3.org/2000/svg" xmlns:xlink="http://www.w3.org/1999/xlink" x="0px" y="0px"
	 width="566.93px" height="566.93px" viewBox="0 0 566.93 566.93" enable-background="new 0 0 566.93 566.93" xml:space="preserve">
<g>
	<g opacity="0.5">
		<path fill-rule="evenodd" clip-rule="evenodd" fill="#FFFFFF" d="M277.12,283.188c0-2.9,0.004-5.8-0.006-8.7
			c-0.001-0.309,0-0.454,0.408-0.452c4.34,0.022,8.68,0.02,13.02,0.003c0.359-0.001,0.386,0.106,0.386,0.414
			c-0.011,5.86-0.013,11.72,0.003,17.579c0.001,0.359-0.105,0.387-0.413,0.386c-4.34-0.011-8.68-0.014-13.02,0.004
			c-0.359,0.001-0.387-0.106-0.385-0.414C277.125,289.068,277.12,286.127,277.12,283.188z M284.201,289.435
			c1.122-0.207,2.189-0.342,2.735-1.493c0.331-0.697,0.12-1.821-0.371-2.438c-0.28-0.351-0.389-0.855-0.508-1.309
			c-0.039-0.147,0.121-0.355,0.209-0.526c0.175-0.337,0.176-0.993-0.067-1.113c-0.653-0.324-1.181-0.863-1.948-1.011
			c-0.514-0.098-1.003-0.373-1.477-0.619c-0.465-0.241-0.505-0.591-0.106-0.943c0.249-0.219,0.56-0.372,0.855-0.533
			c1.191-0.655,1.82-0.491,2.55,0.646c0.037,0.058,0.108,0.12,0.172,0.13c0.273,0.042,0.834-0.417,0.793-0.686
			c-0.105-0.684-0.375-1.309-0.993-1.671c-0.771-0.452-1.617-0.43-2.434-0.152c-0.579,0.196-1.146,0.462-1.668,0.778
			c-0.365,0.221-0.776,0.522-0.938,0.888c-0.313,0.71-0.417,1.487-0.016,2.242c0.087,0.163,0.148,0.377,0.124,0.555
			c-0.108,0.782-0.107,1.561,0.043,2.331c0.037,0.191,0.191,0.408,0.355,0.515c0.293,0.189,0.624,0.339,0.958,0.444
			c0.573,0.181,1.239,0.022,1.739,0.479c0.024,0.022,0.08,0.007,0.117,0.021c0.493,0.182,0.97,1.063,0.797,1.548
			c-0.058,0.162-0.244,0.357-0.401,0.39c-0.462,0.095-0.938,0.206-1.399-0.065c-0.29-0.17-0.599-0.327-0.92-0.417
			c-0.178-0.05-0.443-0.005-0.585,0.104c-0.117,0.091-0.199,0.374-0.146,0.513c0.196,0.504,0.479,0.978,1.053,1.121
			C283.226,289.288,283.741,289.353,284.201,289.435z"/>
		<path fill-rule="evenodd" clip-rule="evenodd" d="M284.201,289.435c-0.46-0.082-0.976-0.147-1.477-0.271
			c-0.574-0.144-0.857-0.617-1.053-1.121c-0.054-0.139,0.028-0.422,0.146-0.513c0.142-0.109,0.407-0.154,0.585-0.104
			c0.321,0.09,0.63,0.247,0.92,0.417c0.461,0.271,0.937,0.16,1.399,0.065c0.157-0.032,0.344-0.228,0.401-0.39
			c0.173-0.485-0.304-1.366-0.797-1.548c-0.037-0.014-0.093,0.002-0.117-0.021c-0.5-0.457-1.167-0.299-1.739-0.479
			c-0.334-0.105-0.666-0.255-0.958-0.444c-0.164-0.106-0.318-0.323-0.355-0.515c-0.15-0.771-0.151-1.549-0.043-2.331
			c0.024-0.177-0.037-0.392-0.124-0.555c-0.401-0.755-0.297-1.531,0.016-2.242c0.162-0.366,0.573-0.667,0.938-0.888
			c0.523-0.316,1.09-0.582,1.668-0.778c0.817-0.278,1.664-0.3,2.434,0.152c0.618,0.362,0.888,0.987,0.993,1.671
			c0.041,0.268-0.52,0.728-0.793,0.686c-0.063-0.01-0.135-0.072-0.172-0.13c-0.73-1.138-1.359-1.302-2.55-0.646
			c-0.295,0.162-0.606,0.314-0.855,0.533c-0.398,0.353-0.359,0.702,0.106,0.943c0.474,0.246,0.963,0.521,1.477,0.619
			c0.768,0.147,1.295,0.687,1.948,1.011c0.243,0.121,0.242,0.776,0.067,1.113c-0.088,0.17-0.248,0.378-0.209,0.526
			c0.119,0.453,0.228,0.958,0.508,1.309c0.491,0.617,0.702,1.741,0.371,2.438C286.391,289.093,285.323,289.228,284.201,289.435z
			 M284.316,284.108c0.07-0.05,0.267-0.113,0.313-0.235c0.084-0.219-0.007-0.431-0.261-0.516c-0.317-0.107-0.638-0.203-0.955-0.313
			c-0.283-0.098-0.533-0.07-0.617,0.249c-0.078,0.296,0.093,0.499,0.378,0.572C283.518,283.954,283.868,284.014,284.316,284.108z"/>
		<path fill-rule="evenodd" clip-rule="evenodd" fill="#FFFFFF" d="M284.316,284.108c-0.448-0.094-0.798-0.154-1.142-0.243
			c-0.285-0.073-0.456-0.276-0.378-0.572c0.084-0.319,0.334-0.347,0.617-0.249c0.317,0.109,0.638,0.206,0.955,0.313
			c0.254,0.085,0.345,0.297,0.261,0.516C284.583,283.995,284.387,284.058,284.316,284.108z"/>
	</g>
	<g>
	</g>
</g>
</svg>
