<?xml version="1.0" encoding="utf-8"?>
<!-- Generator: Adobe Illustrator 16.0.3, SVG Export Plug-In . SVG Version: 6.00 Build 0)  -->
<!DOCTYPE svg PUBLIC "-//W3C//DTD SVG 1.1//EN" "http://www.w3.org/Graphics/SVG/1.1/DTD/svg11.dtd">
<svg version="1.1" id="Ebene_1" xmlns="http://www.w3.org/2000/svg" xmlns:xlink="http://www.w3.org/1999/xlink" x="0px" y="0px"
	 width="566.93px" height="566.93px" viewBox="0 0 566.93 566.93" enable-background="new 0 0 566.93 566.93" xml:space="preserve">
<g>
	<path fill-rule="evenodd" clip-rule="evenodd" d="M286.08,280.001c-0.085,0.217-0.164,0.478-0.283,0.719
		c-0.506,1.027-1.021,2.05-1.536,3.073c-0.204,0.405-0.43,0.802-0.62,1.214c-0.491,1.066-0.94,2.152-1.461,3.204
		c-0.243,0.488-0.597,0.926-0.929,1.364c-0.205,0.271-0.509,0.316-0.808,0.153c-0.309-0.169-0.394-0.46-0.262-0.771
		c0.442-1.041,0.902-2.074,1.361-3.109c0.048-0.107,0.159-0.191,0.189-0.301c0.553-1.977,1.771-3.645,2.548-5.516
		c0.046-0.11,0.096-0.22,0.123-0.335c0.122-0.497,0.438-0.813,0.921-0.79c0.198,0.01,0.446,0.176,0.563,0.346
		C286.013,279.433,286.01,279.701,286.08,280.001z"/>
	<path fill-rule="evenodd" clip-rule="evenodd" d="M281.271,281.326c0,0.336-0.09,0.636-0.146,1
		c-0.028,0.184-0.148,0.408-0.271,0.541c-0.28,0.303-0.58,0.601-0.918,0.836c-0.808,0.561-1.754,0.346-2.248-0.504
		c-0.717-1.235-0.856-2.537-0.287-3.858c0.217-0.503,0.579-0.939,1.12-1.167c0.11-0.046,0.213-0.12,0.33-0.135
		c0.67-0.088,0.857-0.046,1.274,0.287c0.128,0.102,0.453,0.583,0.563,0.771C281.063,279.743,281.3,280.751,281.271,281.326z
		 M278.697,280.896c0.08,0.506,0.09,0.913,0.217,1.28c0.144,0.419,0.4,0.421,0.708,0.098c0.436-0.458,0.51-0.921,0.189-1.495
		c-0.187-0.334-0.447-0.591-0.762-0.516C278.87,280.306,278.782,280.729,278.697,280.896z"/>
	<path fill-rule="evenodd" clip-rule="evenodd" d="M284.999,286.93c0.071-0.362,0.13-0.943,0.315-1.481
		c0.093-0.269,0.381-0.521,0.644-0.666c0.409-0.226,0.86-0.404,1.315-0.507c0.424-0.095,0.775,0.109,0.947,0.543
		c0.204,0.518,0.454,1.021,0.606,1.554c0.334,1.163-0.39,2.96-1.409,3.608c-0.741,0.471-1.655,0.177-1.981-0.638
		c-0.11-0.275-0.268-0.544-0.315-0.831C285.047,288.063,285.046,287.601,284.999,286.93z M286.389,287.503
		c0.059,0.262,0.086,0.523,0.178,0.761c0.14,0.36,0.439,0.427,0.608,0.107c0.244-0.462,0.442-0.974,0.516-1.484
		c0.023-0.165-0.39-0.423-0.642-0.578c-0.067-0.041-0.35,0.107-0.398,0.226C286.522,286.842,286.47,287.18,286.389,287.503z"/>
	<path fill-rule="evenodd" clip-rule="evenodd" fill="#FFFFFF" d="M278.697,280.896c0.085-0.167,0.173-0.59,0.352-0.633
		c0.314-0.076,0.575,0.181,0.762,0.516c0.32,0.574,0.246,1.037-0.189,1.495c-0.308,0.323-0.564,0.321-0.708-0.098
		C278.787,281.81,278.777,281.403,278.697,280.896z"/>
	<path fill-rule="evenodd" clip-rule="evenodd" fill="#FFFFFF" d="M286.389,287.503c0.081-0.323,0.134-0.661,0.262-0.969
		c0.049-0.118,0.331-0.267,0.398-0.226c0.252,0.155,0.665,0.413,0.642,0.578c-0.073,0.511-0.271,1.022-0.516,1.484
		c-0.169,0.319-0.469,0.253-0.608-0.107C286.475,288.027,286.447,287.765,286.389,287.503z"/>
</g>
</svg>
