<?xml version="1.0" encoding="utf-8"?>
<!-- Generator: Adobe Illustrator 16.0.3, SVG Export Plug-In . SVG Version: 6.00 Build 0)  -->
<!DOCTYPE svg PUBLIC "-//W3C//DTD SVG 1.1//EN" "http://www.w3.org/Graphics/SVG/1.1/DTD/svg11.dtd">
<svg version="1.1" id="Ebene_1" xmlns="http://www.w3.org/2000/svg" xmlns:xlink="http://www.w3.org/1999/xlink" x="0px" y="0px"
	 width="566.93px" height="566.93px" viewBox="0 0 566.93 566.93" enable-background="new 0 0 566.93 566.93" xml:space="preserve">
<g>
	<g opacity="0.5">
		<path fill-rule="evenodd" clip-rule="evenodd" fill="#FFFFFF" d="M289.76,288.97c-3.88,0-7.76,0-11.64,0c0-3.641,0-7.28,0-10.92
			c3.88,0,7.76,0,11.64,0C289.76,281.69,289.76,285.33,289.76,288.97z M284.859,285.09c0.037-0.274,0.074-0.672,0.149-1.062
			c0.055-0.282,0.246-0.46,0.552-0.45c0.411,0.013,0.823,0.065,1.233,0.059c0.246-0.004,0.519-0.04,0.729-0.153
			c0.251-0.134,0.317-0.545,0.142-0.659c-0.396-0.252-0.762-0.588-1.306-0.473c-0.249,0.053-0.516,0.02-0.773,0.04
			c-0.709,0.058-0.67,0.056-0.752-0.674c-0.052-0.462-0.185-0.936-0.385-1.355c-0.188-0.395-0.794-0.456-0.941-0.123
			c-0.213,0.481-0.532,0.955-0.248,1.558c0.211,0.448-0.017,0.773-0.509,0.789c-0.47,0.016-0.943-0.024-1.412-0.066
			c-0.428-0.039-0.726,0.081-0.839,0.397c-0.132,0.369,0.072,0.593,0.337,0.812c0.522,0.432,1.132,0.312,1.718,0.286
			c0.5-0.021,1,0.337,0.836,0.774c-0.163,0.436-0.064,0.789-0.021,1.186c0.041,0.381,0.257,0.553,0.619,0.445
			C284.493,286.272,284.861,285.761,284.859,285.09z"/>
		<path fill-rule="evenodd" clip-rule="evenodd" d="M284.859,285.09c0.002,0.671-0.366,1.182-0.871,1.331
			c-0.361,0.107-0.578-0.064-0.619-0.445c-0.042-0.396-0.142-0.75,0.021-1.186c0.164-0.438-0.335-0.796-0.836-0.774
			c-0.586,0.026-1.196,0.146-1.718-0.286c-0.265-0.219-0.47-0.443-0.337-0.812c0.114-0.316,0.411-0.437,0.839-0.397
			c0.469,0.042,0.942,0.082,1.412,0.066c0.492-0.016,0.72-0.341,0.509-0.789c-0.284-0.603,0.035-1.076,0.248-1.558
			c0.147-0.333,0.753-0.272,0.941,0.123c0.2,0.419,0.333,0.893,0.385,1.355c0.082,0.73,0.043,0.732,0.752,0.674
			c0.258-0.021,0.524,0.013,0.773-0.04c0.544-0.116,0.91,0.22,1.306,0.473c0.176,0.113,0.109,0.524-0.142,0.659
			c-0.211,0.113-0.483,0.148-0.729,0.153c-0.41,0.007-0.822-0.045-1.233-0.059c-0.306-0.01-0.497,0.168-0.552,0.45
			C284.934,284.418,284.896,284.816,284.859,285.09z"/>
	</g>
	<g>
	</g>
</g>
</svg>
