<?xml version="1.0" encoding="utf-8"?>
<!-- Generator: Adobe Illustrator 16.0.3, SVG Export Plug-In . SVG Version: 6.00 Build 0)  -->
<!DOCTYPE svg PUBLIC "-//W3C//DTD SVG 1.1//EN" "http://www.w3.org/Graphics/SVG/1.1/DTD/svg11.dtd">
<svg version="1.1" id="Ebene_1" xmlns="http://www.w3.org/2000/svg" xmlns:xlink="http://www.w3.org/1999/xlink" x="0px" y="0px"
	 width="566.93px" height="566.93px" viewBox="0 0 566.93 566.93" enable-background="new 0 0 566.93 566.93" xml:space="preserve">
<g>
	<g opacity="0.5">
		<path fill-rule="evenodd" clip-rule="evenodd" fill="#FFFFFF" d="M288.44,283.73c0,2.4-0.007,4.8,0.008,7.2
			c0.002,0.3-0.068,0.369-0.368,0.368c-3.2-0.013-6.4-0.013-9.6,0c-0.3,0.001-0.368-0.068-0.368-0.368
			c0.011-4.84,0.011-9.68,0-14.52c0-0.3,0.067-0.369,0.368-0.368c3.2,0.013,6.4,0.013,9.6,0c0.3-0.001,0.37,0.067,0.368,0.368
			C288.434,278.85,288.44,281.29,288.44,283.73z M283.652,279.109c-0.472,0.055-0.944,0.114-1.417,0.165
			c-1.284,0.139-2.147,1.66-1.572,2.812c0.035,0.071,0.396,0.093,0.454,0.019c0.205-0.261,0.341-0.575,0.507-0.866
			c0.071-0.125,0.128-0.318,0.234-0.353c0.92-0.306,1.854-0.49,2.797-0.092c0.615,0.259,0.75,0.908,0.266,1.388
			c-0.278,0.277-0.601,0.521-0.935,0.729c-0.688,0.427-1.268,0.933-1.396,1.777c-0.07,0.457-0.031,0.912,0.419,1.209
			c0.18,0.118,0.297,0.23,0.448-0.076c0.185-0.377,0.623-0.637,0.461-1.162c-0.016-0.052,0.136-0.165,0.222-0.236
			c0.651-0.542,1.294-1.097,1.962-1.618c0.854-0.666,0.844-2.237-0.141-2.881C285.233,279.447,284.502,279.181,283.652,279.109z
			 M283.844,288.481c0.012-0.282-0.451-0.938-0.676-0.957c-0.327-0.029-0.758,0.383-0.789,0.754
			c-0.031,0.368,0.26,0.857,0.514,0.864C283.506,289.157,283.824,288.936,283.844,288.481z"/>
		<path fill-rule="evenodd" clip-rule="evenodd" d="M283.652,279.109c0.85,0.072,1.582,0.338,2.309,0.814
			c0.984,0.644,0.995,2.216,0.141,2.881c-0.668,0.521-1.311,1.075-1.962,1.618c-0.086,0.071-0.238,0.185-0.222,0.236
			c0.161,0.525-0.276,0.785-0.461,1.162c-0.151,0.307-0.268,0.194-0.448,0.076c-0.45-0.297-0.489-0.752-0.419-1.209
			c0.128-0.845,0.709-1.351,1.396-1.777c0.334-0.208,0.656-0.453,0.935-0.729c0.484-0.479,0.35-1.128-0.266-1.388
			c-0.943-0.397-1.877-0.213-2.797,0.092c-0.105,0.035-0.163,0.229-0.234,0.353c-0.167,0.291-0.303,0.605-0.507,0.866
			c-0.058,0.074-0.418,0.052-0.454-0.019c-0.575-1.152,0.288-2.673,1.572-2.812C282.708,279.223,283.18,279.164,283.652,279.109z"/>
		<path fill-rule="evenodd" clip-rule="evenodd" d="M283.844,288.481c-0.02,0.455-0.337,0.676-0.951,0.661
			c-0.254-0.007-0.545-0.496-0.514-0.864c0.031-0.371,0.461-0.783,0.789-0.754C283.393,287.543,283.856,288.199,283.844,288.481z"/>
	</g>
	<g>
	</g>
</g>
</svg>
