<?xml version="1.0" encoding="utf-8"?>
<!-- Generator: Adobe Illustrator 16.0.3, SVG Export Plug-In . SVG Version: 6.00 Build 0)  -->
<!DOCTYPE svg PUBLIC "-//W3C//DTD SVG 1.1//EN" "http://www.w3.org/Graphics/SVG/1.1/DTD/svg11.dtd">
<svg version="1.1" id="Ebene_1" xmlns="http://www.w3.org/2000/svg" xmlns:xlink="http://www.w3.org/1999/xlink" x="0px" y="0px"
	 width="566.93px" height="566.93px" viewBox="0 0 566.93 566.93" enable-background="new 0 0 566.93 566.93" xml:space="preserve">
<g>
	<g opacity="0.5">
		<path fill-rule="evenodd" clip-rule="evenodd" fill="#FFFFFF" d="M288.68,292.81c-3.52,0-7.04,0-10.56,0c0-5.92,0-11.84,0-17.76
			c3.52,0,7.04,0,10.56,0C288.68,280.97,288.68,286.89,288.68,292.81z M285.698,278.644c0.186-0.465-0.013-0.8-0.443-0.847
			c-0.419-0.045-0.72,0.217-0.767,0.666c-0.059,0.562-0.123,1.127-0.122,1.69c0.002,0.347,0.11,0.697,0.192,1.04
			c0.093,0.387,0.413,0.453,0.703,0.335c0.417-0.168,0.738-0.459,0.666-0.994C285.843,279.906,285.774,279.274,285.698,278.644z
			 M283.356,281.717c0.06-0.632,0.164-1.213,0.155-1.792c-0.009-0.584-0.087-1.178-0.22-1.747c-0.072-0.307-0.383-0.483-0.717-0.305
			c-0.286,0.153-0.569,0.298-0.473,0.765c0.129,0.63,0.243,1.292,0.185,1.924C282.201,281.492,282.405,281.778,283.356,281.717z"/>
		<path fill-rule="evenodd" clip-rule="evenodd" d="M285.698,278.644c0.076,0.63,0.145,1.262,0.229,1.891
			c0.072,0.535-0.249,0.826-0.666,0.994c-0.29,0.117-0.61,0.052-0.703-0.335c-0.082-0.343-0.19-0.693-0.192-1.04
			c-0.001-0.563,0.063-1.128,0.122-1.69c0.047-0.448,0.348-0.711,0.767-0.666C285.686,277.843,285.884,278.179,285.698,278.644z"/>
		<path fill-rule="evenodd" clip-rule="evenodd" d="M283.356,281.717c-0.952,0.061-1.155-0.225-1.07-1.155
			c0.058-0.632-0.056-1.294-0.185-1.924c-0.096-0.466,0.188-0.611,0.473-0.765c0.334-0.179,0.645-0.002,0.717,0.305
			c0.133,0.569,0.211,1.162,0.22,1.747C283.521,280.504,283.416,281.085,283.356,281.717z"/>
	</g>
	<g>
	</g>
</g>
</svg>
