<?xml version="1.0" encoding="utf-8"?>
<!-- Generator: Adobe Illustrator 16.0.3, SVG Export Plug-In . SVG Version: 6.00 Build 0)  -->
<!DOCTYPE svg PUBLIC "-//W3C//DTD SVG 1.1//EN" "http://www.w3.org/Graphics/SVG/1.1/DTD/svg11.dtd">
<svg version="1.1" id="Ebene_1" xmlns="http://www.w3.org/2000/svg" xmlns:xlink="http://www.w3.org/1999/xlink" x="0px" y="0px"
	 width="566.93px" height="566.93px" viewBox="0 0 566.93 566.93" enable-background="new 0 0 566.93 566.93" xml:space="preserve">
<g>
	<g opacity="0.5">
		<path fill-rule="evenodd" clip-rule="evenodd" fill="#FFFFFF" d="M278.12,291.049c0-4.999,0-9.999,0-14.999c3.56,0,7.12,0,10.68,0
			c0,5,0,10,0,14.999C285.24,291.049,281.68,291.049,278.12,291.049z M283.409,284.419c-0.102,0.104-0.397,0.271-0.462,0.502
			c-0.083,0.299-0.031,0.663,0.054,0.974c0.079,0.289,0.019,0.375-0.249,0.475c-0.186,0.069-0.465,0.3-0.448,0.422
			c0.044,0.309,0.222,0.602,0.374,0.887c0.028,0.052,0.21,0.084,0.274,0.046c0.717-0.433,1.509-0.778,1.819-1.67
			C285.028,285.312,284.388,284.402,283.409,284.419z M284.102,281.209c-0.001-0.342-0.383-0.736-0.722-0.748
			c-0.313-0.01-0.809,0.468-0.836,0.806c-0.023,0.288,0.487,0.708,0.846,0.696C283.738,281.952,284.103,281.566,284.102,281.209z"/>
		<path fill-rule="evenodd" clip-rule="evenodd" d="M283.409,284.419c0.979-0.018,1.62,0.893,1.362,1.635
			c-0.31,0.892-1.102,1.237-1.819,1.67c-0.063,0.038-0.246,0.006-0.274-0.046c-0.151-0.285-0.329-0.578-0.374-0.887
			c-0.018-0.122,0.262-0.353,0.448-0.422c0.268-0.1,0.327-0.186,0.249-0.475c-0.085-0.311-0.137-0.675-0.054-0.974
			C283.011,284.69,283.307,284.523,283.409,284.419z"/>
		<path fill-rule="evenodd" clip-rule="evenodd" d="M284.102,281.209c0.001,0.357-0.363,0.743-0.712,0.754
			c-0.359,0.011-0.869-0.409-0.846-0.696c0.027-0.338,0.523-0.816,0.836-0.806C283.719,280.473,284.101,280.868,284.102,281.209z"/>
	</g>
	<g>
	</g>
</g>
</svg>
