<?xml version="1.0" encoding="utf-8"?>
<!-- Generator: Adobe Illustrator 16.0.3, SVG Export Plug-In . SVG Version: 6.00 Build 0)  -->
<!DOCTYPE svg PUBLIC "-//W3C//DTD SVG 1.1//EN" "http://www.w3.org/Graphics/SVG/1.1/DTD/svg11.dtd">
<svg version="1.1" id="Ebene_1" xmlns="http://www.w3.org/2000/svg" xmlns:xlink="http://www.w3.org/1999/xlink" x="0px" y="0px"
	 width="566.93px" height="566.93px" viewBox="0 0 566.93 566.93" enable-background="new 0 0 566.93 566.93" xml:space="preserve">
<g>
	<g opacity="0.5">
		<path fill-rule="evenodd" clip-rule="evenodd" fill="#FFFFFF" d="M278.12,276.05c3.66,0,7.276-0.001,10.892,0.003
			c0.177,0,0.4-0.122,0.398,0.269c-0.016,4.989-0.01,9.979-0.01,14.968c-3.77,0-7.525,0-11.28,0
			C278.12,286.214,278.12,281.14,278.12,276.05z M282.338,288.544c-0.006,0.496,0.334,0.991,0.628,1.008
			c0.343,0.02,0.635-0.269,0.732-0.724c0.017-0.078,0.025-0.157,0.043-0.235c0.22-0.944,0.403-1.9,0.671-2.832
			c0.293-1.019,0.671-2.013,1-3.022c0.191-0.587,0.356-1.183,0.537-1.773c0.128-0.415,0.301-0.819,0.383-1.241
			c0.085-0.437-0.329-0.539-0.604-0.711c-0.324-0.202-0.396,0.102-0.54,0.276c-0.309,0.374-0.258,0.849-0.385,1.271
			c-0.614,2.03-1.291,4.041-1.93,6.063C282.663,287.286,282.499,287.962,282.338,288.544z"/>
		<path fill-rule="evenodd" clip-rule="evenodd" d="M282.338,288.544c0.161-0.582,0.325-1.259,0.535-1.921
			c0.639-2.022,1.316-4.033,1.93-6.063c0.127-0.422,0.076-0.896,0.385-1.271c0.144-0.174,0.216-0.479,0.54-0.276
			c0.275,0.173,0.689,0.274,0.604,0.711c-0.082,0.422-0.255,0.827-0.383,1.241c-0.181,0.59-0.346,1.186-0.537,1.773
			c-0.329,1.009-0.707,2.004-1,3.022c-0.268,0.932-0.451,1.888-0.671,2.832c-0.018,0.078-0.027,0.157-0.043,0.235
			c-0.097,0.455-0.389,0.743-0.732,0.724C282.672,289.536,282.332,289.041,282.338,288.544z"/>
	</g>
	<g>
	</g>
</g>
</svg>
