<?xml version="1.0" encoding="utf-8"?>
<!-- Generator: Adobe Illustrator 16.0.3, SVG Export Plug-In . SVG Version: 6.00 Build 0)  -->
<!DOCTYPE svg PUBLIC "-//W3C//DTD SVG 1.1//EN" "http://www.w3.org/Graphics/SVG/1.1/DTD/svg11.dtd">
<svg version="1.1" id="Ebene_1" xmlns="http://www.w3.org/2000/svg" xmlns:xlink="http://www.w3.org/1999/xlink" x="0px" y="0px"
	 width="566.93px" height="566.93px" viewBox="0 0 566.93 566.93" enable-background="new 0 0 566.93 566.93" xml:space="preserve">
<g>
	<g opacity="0.5">
		<path fill-rule="evenodd" clip-rule="evenodd" fill="#FFFFFF" d="M276.14,276.05c4.901,0,9.801,0,14.721,0
			c0,4.987,0,9.974,0,14.979c-4.888,0-9.794,0-14.721,0C276.14,286.063,276.14,281.076,276.14,276.05z M282.684,284.185
			c-0.003-0.066-0.007-0.134-0.01-0.201c0.777-0.587,1.564-1.163,2.328-1.767c0.341-0.269,0.707-0.552,0.925-0.912
			c0.121-0.199,0.018-0.597-0.104-0.848c-0.049-0.099-0.49-0.139-0.633-0.038c-0.625,0.446-1.206,0.954-1.803,1.439
			c-0.24,0.195-0.467,0.41-0.722,0.584c-0.541,0.37-1.11,0.699-1.641,1.082c-0.571,0.41-0.517,1.424,0.107,1.715
			c0.481,0.225,1.009,0.354,1.521,0.506c0.896,0.267,1.796,0.525,2.697,0.773c0.466,0.128,0.76-0.105,0.953-0.511
			c0.195-0.41-0.097-0.599-0.373-0.753c-0.307-0.172-0.633-0.322-0.968-0.426C284.207,284.597,283.443,284.398,282.684,284.185z"/>
		<path fill-rule="evenodd" clip-rule="evenodd" d="M282.684,284.185c0.76,0.213,1.523,0.412,2.277,0.646
			c0.335,0.104,0.661,0.254,0.968,0.426c0.276,0.154,0.568,0.343,0.373,0.753c-0.193,0.405-0.487,0.639-0.953,0.511
			c-0.901-0.248-1.801-0.507-2.697-0.773c-0.513-0.152-1.041-0.281-1.521-0.506c-0.624-0.291-0.678-1.305-0.107-1.715
			c0.531-0.382,1.101-0.712,1.641-1.082c0.255-0.174,0.481-0.389,0.722-0.584c0.597-0.486,1.178-0.993,1.803-1.439
			c0.143-0.102,0.584-0.062,0.633,0.038c0.122,0.25,0.226,0.649,0.104,0.848c-0.218,0.359-0.584,0.643-0.925,0.912
			c-0.764,0.604-1.55,1.18-2.328,1.767C282.677,284.051,282.68,284.119,282.684,284.185z"/>
	</g>
	<g>
	</g>
</g>
</svg>
