<?xml version="1.0" encoding="utf-8"?>
<!-- Generator: Adobe Illustrator 16.0.3, SVG Export Plug-In . SVG Version: 6.00 Build 0)  -->
<!DOCTYPE svg PUBLIC "-//W3C//DTD SVG 1.1//EN" "http://www.w3.org/Graphics/SVG/1.1/DTD/svg11.dtd">
<svg version="1.1" id="Ebene_1" xmlns="http://www.w3.org/2000/svg" xmlns:xlink="http://www.w3.org/1999/xlink" x="0px" y="0px"
	 width="566.93px" height="566.93px" viewBox="0 0 566.93 566.93" enable-background="new 0 0 566.93 566.93" xml:space="preserve">
<g>
	<g opacity="0.5">
		<path fill-rule="evenodd" clip-rule="evenodd" fill="#FFFFFF" d="M289.76,292.889c-3.88,0-7.76,0-11.64,0
			c0-6.279,0-12.559,0-18.839c3.88,0,7.76,0,11.64,0C289.76,280.33,289.76,286.61,289.76,292.889z M283.308,278.646
			c0-0.006,0-0.012,0-0.018c0.18,0,0.36-0.003,0.54,0c0.604,0.012,1.02,0.509,0.944,1.115c-0.123,0.997-0.271,1.992-0.355,2.993
			c-0.138,1.635-0.238,3.274-0.345,4.913c-0.092,1.419-0.175,1.458-1.587,1.297c-0.259-0.029-0.617,0.316-0.837,0.568
			c-0.247,0.282-0.159,0.641,0.18,0.808c0.296,0.146,0.655,0.284,0.969,0.252c0.869-0.09,1.729-0.259,2.59-0.418
			c0.415-0.077,0.566-0.521,0.345-0.89c-0.078-0.13-0.156-0.289-0.155-0.435c0.008-0.877-0.014-1.758,0.074-2.628
			c0.134-1.326,0.377-2.641,0.522-3.966c0.152-1.4,0.248-2.806,0.362-4.21c0.034-0.42-0.297-0.869-0.651-0.85
			c-1.136,0.059-2.271,0.125-3.404,0.221c-0.375,0.032-0.593,0.258-0.586,0.688c0.007,0.441,0.273,0.538,0.62,0.558
			C282.79,278.658,283.049,278.646,283.308,278.646z"/>
		<path fill-rule="evenodd" clip-rule="evenodd" d="M283.308,278.646c-0.259,0-0.519,0.012-0.776-0.003
			c-0.347-0.02-0.612-0.116-0.62-0.558c-0.007-0.43,0.211-0.656,0.586-0.688c1.133-0.096,2.268-0.163,3.404-0.221
			c0.354-0.019,0.686,0.43,0.651,0.85c-0.114,1.404-0.21,2.811-0.362,4.21c-0.146,1.326-0.389,2.64-0.522,3.966
			c-0.088,0.87-0.066,1.751-0.074,2.628c-0.001,0.146,0.077,0.305,0.155,0.435c0.222,0.369,0.07,0.813-0.345,0.89
			c-0.86,0.159-1.721,0.328-2.59,0.418c-0.313,0.032-0.673-0.105-0.969-0.252c-0.339-0.167-0.427-0.525-0.18-0.808
			c0.221-0.252,0.578-0.598,0.837-0.568c1.413,0.161,1.496,0.122,1.587-1.297c0.106-1.639,0.207-3.277,0.345-4.913
			c0.084-1,0.232-1.996,0.355-2.993c0.075-0.606-0.341-1.103-0.944-1.115c-0.18-0.003-0.36,0-0.54,0
			C283.308,278.634,283.308,278.64,283.308,278.646z"/>
	</g>
	<g>
	</g>
</g>
</svg>
