<?xml version="1.0" encoding="utf-8"?>
<!-- Generator: Adobe Illustrator 16.0.3, SVG Export Plug-In . SVG Version: 6.00 Build 0)  -->
<!DOCTYPE svg PUBLIC "-//W3C//DTD SVG 1.1//EN" "http://www.w3.org/Graphics/SVG/1.1/DTD/svg11.dtd">
<svg version="1.1" id="Ebene_1" xmlns="http://www.w3.org/2000/svg" xmlns:xlink="http://www.w3.org/1999/xlink" x="0px" y="0px"
	 width="566.93px" height="566.93px" viewBox="0 0 566.93 566.93" enable-background="new 0 0 566.93 566.93" xml:space="preserve">
<g>
	<g opacity="0.5">
		<path fill-rule="evenodd" clip-rule="evenodd" fill="#FFFFFF" d="M278.12,276.05c3.88,0,7.76,0,11.64,0c0,5,0,10,0,14.999
			c-3.88,0-7.76,0-11.64,0C278.12,286.05,278.12,281.05,278.12,276.05z M283.407,287.665c-0.087-0.412-0.175-0.723-0.215-1.04
			c-0.063-0.487-0.141-0.981-0.127-1.47c0.023-0.801,0.145-1.599,0.17-2.399c0.022-0.699-0.059-1.4-0.045-2.1
			c0.019-0.988,0.384-1.333,1.333-1.342c0.119-0.001,0.291,0.036,0.348-0.026c0.164-0.181,0.377-0.399,0.385-0.61
			c0.007-0.169-0.242-0.481-0.404-0.5c-0.794-0.095-1.601-0.072-2.394-0.172c-0.467-0.059-0.741,0.068-0.97,0.459
			c-0.249,0.425-0.046,0.818-0.041,1.23c0.011,0.756,0.104,1.516-0.002,2.289c-0.131,0.951-0.051,1.929-0.078,2.895
			c-0.026,0.934-0.113,1.867-0.088,2.798c0.012,0.433,0.193,0.875,0.369,1.282c0.058,0.132,0.338,0.203,0.528,0.235
			c1.102,0.189,2.18,0.008,3.248-0.258c0.066-0.017,0.158-0.08,0.171-0.137c0.052-0.249,0.188-0.569,0.087-0.738
			c-0.12-0.199-0.226-0.544-0.703-0.427C284.456,287.765,283.876,287.665,283.407,287.665z"/>
		<path fill-rule="evenodd" clip-rule="evenodd" d="M283.407,287.665c0.469,0,1.049,0.101,1.572-0.029
			c0.478-0.117,0.583,0.228,0.703,0.427c0.102,0.169-0.035,0.489-0.087,0.738c-0.013,0.057-0.104,0.12-0.171,0.137
			c-1.067,0.266-2.146,0.447-3.248,0.258c-0.19-0.032-0.47-0.104-0.528-0.235c-0.176-0.407-0.357-0.85-0.369-1.282
			c-0.025-0.931,0.062-1.864,0.088-2.798c0.026-0.966-0.053-1.944,0.078-2.895c0.106-0.773,0.013-1.533,0.002-2.289
			c-0.006-0.413-0.208-0.806,0.041-1.23c0.229-0.392,0.503-0.518,0.97-0.459c0.792,0.1,1.6,0.077,2.394,0.172
			c0.162,0.019,0.411,0.332,0.404,0.5c-0.008,0.211-0.221,0.429-0.385,0.61c-0.057,0.063-0.229,0.025-0.348,0.026
			c-0.95,0.009-1.314,0.354-1.333,1.342c-0.014,0.699,0.067,1.401,0.045,2.1c-0.025,0.801-0.147,1.599-0.17,2.399
			c-0.014,0.488,0.064,0.982,0.127,1.47C283.232,286.942,283.32,287.252,283.407,287.665z"/>
	</g>
	<g>
	</g>
</g>
</svg>
