<?xml version="1.0" encoding="utf-8"?>
<!-- Generator: Adobe Illustrator 16.0.3, SVG Export Plug-In . SVG Version: 6.00 Build 0)  -->
<!DOCTYPE svg PUBLIC "-//W3C//DTD SVG 1.1//EN" "http://www.w3.org/Graphics/SVG/1.1/DTD/svg11.dtd">
<svg version="1.1" id="Ebene_1" xmlns="http://www.w3.org/2000/svg" xmlns:xlink="http://www.w3.org/1999/xlink" x="0px" y="0px"
	 width="566.93px" height="566.93px" viewBox="0 0 566.93 566.93" enable-background="new 0 0 566.93 566.93" xml:space="preserve">
<g>
	<g opacity="0.5">
		<path fill-rule="evenodd" clip-rule="evenodd" fill="#FFFFFF" d="M274.12,292.21c0-5.721,0-11.44,0-17.16c6.28,0,12.56,0,18.84,0
			c0,5.72,0,11.439,0,17.16C286.68,292.21,280.4,292.21,274.12,292.21z M285.167,286.108c0.545-0.183,1.214-0.333,1.813-0.628
			c0.686-0.339,1.143-0.881,0.814-1.742c-0.019-0.05,0.004-0.116,0.008-0.174c0.041-0.574-0.414-0.907-0.894-0.588
			c-0.344,0.228-0.623,0.588-0.856,0.938c-0.448,0.67-0.909,0.712-1.438,0.068c-0.126-0.154-0.21-0.343-0.339-0.493
			c-0.464-0.542-1.003-1.006-1.763-0.958c-1.034,0.065-2.374,1.196-2.617,2.212c-0.063,0.259,0.019,0.661,0.195,0.83
			c0.118,0.113,0.561,0,0.786-0.135c0.422-0.253,0.829-0.559,1.174-0.908c0.374-0.379,0.555-0.268,0.828,0.109
			C283.416,285.381,284.103,285.941,285.167,286.108z"/>
		<path fill-rule="evenodd" clip-rule="evenodd" d="M285.167,286.108c-1.064-0.167-1.751-0.727-2.289-1.469
			c-0.273-0.377-0.455-0.488-0.828-0.109c-0.345,0.35-0.752,0.655-1.174,0.908c-0.225,0.135-0.668,0.248-0.786,0.135
			c-0.176-0.169-0.257-0.571-0.195-0.83c0.243-1.016,1.583-2.146,2.617-2.212c0.76-0.048,1.299,0.416,1.763,0.958
			c0.129,0.15,0.213,0.339,0.339,0.493c0.528,0.645,0.989,0.603,1.438-0.068c0.233-0.35,0.513-0.71,0.856-0.938
			c0.479-0.319,0.935,0.014,0.894,0.588c-0.004,0.058-0.026,0.124-0.008,0.174c0.328,0.861-0.129,1.403-0.814,1.742
			C286.381,285.775,285.712,285.925,285.167,286.108z"/>
	</g>
	<g>
	</g>
</g>
</svg>
