<?xml version="1.0" encoding="utf-8"?>
<!-- Generator: Adobe Illustrator 16.0.3, SVG Export Plug-In . SVG Version: 6.00 Build 0)  -->
<!DOCTYPE svg PUBLIC "-//W3C//DTD SVG 1.1//EN" "http://www.w3.org/Graphics/SVG/1.1/DTD/svg11.dtd">
<svg version="1.1" id="Ebene_1" xmlns="http://www.w3.org/2000/svg" xmlns:xlink="http://www.w3.org/1999/xlink" x="0px" y="0px"
	 width="566.93px" height="566.93px" viewBox="0 0 566.93 566.93" enable-background="new 0 0 566.93 566.93" xml:space="preserve">
<g>
	<g opacity="0.5">
		<path fill-rule="evenodd" clip-rule="evenodd" fill="#FFFFFF" d="M276.12,288.65c0-3.2,0-6.4,0-9.6c5.12,0,10.239,0,15.359,0
			c0,3.2,0,6.399,0,9.6C286.359,288.65,281.24,288.65,276.12,288.65z M281.973,282.839c-0.774,0.141-1.897,0.337-3.016,0.561
			c-0.146,0.029-0.369,0.198-0.372,0.307c-0.004,0.159,0.121,0.397,0.259,0.467c0.277,0.14,0.602,0.269,0.904,0.262
			c1.215-0.029,2.429-0.134,3.645-0.168c1.248-0.035,2.497-0.033,3.745-0.017c0.402,0.005,0.902-0.247,0.939-0.566
			c0.048-0.424-0.261-0.807-0.723-0.742c-0.691,0.097-1.296-0.295-2.033-0.15C284.363,282.981,283.341,282.839,281.973,282.839z"/>
		<path fill-rule="evenodd" clip-rule="evenodd" d="M281.973,282.839c1.368,0,2.39,0.143,3.347-0.046
			c0.737-0.145,1.342,0.247,2.033,0.15c0.462-0.065,0.771,0.317,0.723,0.742c-0.037,0.319-0.537,0.571-0.939,0.566
			c-1.248-0.017-2.497-0.019-3.745,0.017c-1.216,0.034-2.429,0.139-3.645,0.168c-0.302,0.007-0.627-0.122-0.904-0.262
			c-0.138-0.07-0.263-0.309-0.259-0.467c0.003-0.109,0.226-0.278,0.372-0.307C280.076,283.176,281.199,282.98,281.973,282.839z"/>
	</g>
	<g>
	</g>
</g>
</svg>
