<?xml version="1.0" encoding="utf-8"?>
<!-- Generator: Adobe Illustrator 16.0.3, SVG Export Plug-In . SVG Version: 6.00 Build 0)  -->
<!DOCTYPE svg PUBLIC "-//W3C//DTD SVG 1.1//EN" "http://www.w3.org/Graphics/SVG/1.1/DTD/svg11.dtd">
<svg version="1.1" id="Ebene_1" xmlns="http://www.w3.org/2000/svg" xmlns:xlink="http://www.w3.org/1999/xlink" x="0px" y="0px"
	 width="566.93px" height="566.93px" viewBox="0 0 566.93 566.93" enable-background="new 0 0 566.93 566.93" xml:space="preserve">
<g>
	<path fill-rule="evenodd" clip-rule="evenodd" fill="#FFFFFF" d="M277.12,276.05c4.4,0,8.8,0,13.2,0c0,5.32,0,10.64,0,15.96
		c-4.4,0-8.8,0-13.2,0C277.12,286.69,277.12,281.37,277.12,276.05z M280.066,288.469c-0.025,0.862,0.275,1.131,0.829,0.867
		c0.286-0.137,0.556-0.502,0.642-0.815c0.134-0.492,0.125-1.027,0.141-1.545c0.014-0.434,0.197-0.593,0.632-0.588
		c0.317,0.003,0.658-0.052,0.95-0.173c1.234-0.51,1.752-0.239,2.036,1.091c0.082,0.387,0.153,0.791,0.328,1.139
		c0.107,0.215,0.424,0.492,0.604,0.465c0.29-0.043,0.678-0.259,0.784-0.505c0.141-0.328,0.116-0.768,0.044-1.136
		c-0.095-0.484-0.305-0.946-0.467-1.417c-0.167-0.485-0.308-0.981-0.51-1.452c-0.563-1.315-1.195-2.603-1.718-3.935
		c-0.405-1.03-0.35-1.049-1.465-1.008c-0.157,0.005-0.316-0.038-0.475-0.055c-0.453-0.046-0.782,0.106-0.917,0.573
		c-0.1,0.343-0.258,0.679-0.297,1.029c-0.064,0.569-0.006,1.152-0.083,1.718c-0.125,0.924-0.312,1.84-0.483,2.758
		C280.441,286.555,280.229,287.628,280.066,288.469z"/>
	<path fill-rule="evenodd" clip-rule="evenodd" d="M280.066,288.469c0.163-0.841,0.375-1.914,0.576-2.988
		c0.171-0.918,0.357-1.834,0.483-2.758c0.077-0.566,0.019-1.149,0.083-1.718c0.039-0.35,0.197-0.686,0.297-1.029
		c0.135-0.467,0.464-0.619,0.917-0.573c0.159,0.017,0.317,0.06,0.475,0.055c1.115-0.041,1.06-0.022,1.465,1.008
		c0.522,1.332,1.154,2.619,1.718,3.935c0.202,0.471,0.343,0.967,0.51,1.452c0.162,0.471,0.372,0.933,0.467,1.417
		c0.072,0.368,0.097,0.808-0.044,1.136c-0.106,0.246-0.494,0.462-0.784,0.505c-0.181,0.027-0.497-0.25-0.604-0.465
		c-0.175-0.348-0.246-0.752-0.328-1.139c-0.283-1.33-0.802-1.601-2.036-1.091c-0.292,0.121-0.633,0.176-0.95,0.173
		c-0.435-0.005-0.618,0.154-0.632,0.588c-0.016,0.518-0.007,1.053-0.141,1.545c-0.085,0.313-0.356,0.679-0.642,0.815
		C280.341,289.6,280.041,289.332,280.066,288.469z M284.249,284.493c-0.437-1.124-0.857-2.203-1.287-3.31
		c-0.103,0.08-0.153,0.099-0.159,0.126c-0.208,0.965-0.421,1.931-0.612,2.9c-0.065,0.328,0.123,0.495,0.445,0.467
		C283.143,284.631,283.648,284.563,284.249,284.493z"/>
	<path fill-rule="evenodd" clip-rule="evenodd" fill="#FFFFFF" d="M284.249,284.493c-0.601,0.07-1.106,0.139-1.613,0.184
		c-0.322,0.028-0.51-0.139-0.445-0.467c0.191-0.969,0.404-1.935,0.612-2.9c0.006-0.028,0.057-0.046,0.159-0.126
		C283.392,282.29,283.812,283.369,284.249,284.493z"/>
</g>
</svg>
