<?xml version="1.0" encoding="utf-8"?>
<!-- Generator: Adobe Illustrator 16.0.3, SVG Export Plug-In . SVG Version: 6.00 Build 0)  -->
<!DOCTYPE svg PUBLIC "-//W3C//DTD SVG 1.1//EN" "http://www.w3.org/Graphics/SVG/1.1/DTD/svg11.dtd">
<svg version="1.1" id="Ebene_1" xmlns="http://www.w3.org/2000/svg" xmlns:xlink="http://www.w3.org/1999/xlink" x="0px" y="0px"
	 width="566.93px" height="566.93px" viewBox="0 0 566.93 566.93" enable-background="new 0 0 566.93 566.93" xml:space="preserve">
<g>
	<g>
		<path fill-rule="evenodd" clip-rule="evenodd" fill="#FFFFFF" d="M277.12,277.05c4.6,0,9.2,0,13.8,0c0,4.2,0,8.399,0,12.6
			c-4.6,0-9.2,0-13.8,0C277.12,285.45,277.12,281.25,277.12,277.05z M285.102,286.009c0.378,0.854,0.588,0.951,1.462,0.771
			c0.679-0.14,0.449-0.695,0.418-1.064c-0.095-1.148-0.3-2.287-0.409-3.435c-0.087-0.904-0.171-1.627-1.218-2.115
			c-1.194-0.556-2.014-0.322-3.023,0.461c-0.14,0.109-0.249,0.258-0.384,0.374c-0.622,0.53-1.174,1.059-1.223,1.986
			c-0.059,1.114-0.042,2.192,0.518,3.188c0.495,0.883,1.719,1.122,2.543,0.685C284.231,286.623,284.638,286.312,285.102,286.009z"/>
		<path fill-rule="evenodd" clip-rule="evenodd" d="M285.102,286.009c-0.464,0.303-0.87,0.613-1.316,0.85
			c-0.825,0.438-2.048,0.198-2.543-0.685c-0.559-0.995-0.576-2.073-0.518-3.188c0.048-0.928,0.601-1.456,1.223-1.986
			c0.136-0.116,0.244-0.265,0.384-0.374c1.009-0.783,1.829-1.017,3.023-0.461c1.047,0.488,1.131,1.211,1.218,2.115
			c0.109,1.148,0.314,2.287,0.409,3.435c0.031,0.369,0.261,0.925-0.418,1.064C285.689,286.96,285.479,286.863,285.102,286.009z
			 M282.269,283.363c0.136,0.656,0.219,1.199,0.367,1.724c0.104,0.368,0.929,0.648,1.172,0.394c0.573-0.601,1.171-1.208,1.01-2.166
			c-0.049-0.291-0.045-0.59-0.07-0.885c-0.062-0.691-0.699-1.127-1.163-0.778c-0.327,0.247-0.649,0.522-0.897,0.843
			C282.479,282.763,282.382,283.117,282.269,283.363z"/>
		<path fill-rule="evenodd" clip-rule="evenodd" fill="#FFFFFF" d="M282.269,283.363c0.114-0.246,0.211-0.6,0.419-0.869
			c0.248-0.321,0.57-0.597,0.897-0.843c0.463-0.349,1.101,0.087,1.163,0.778c0.025,0.295,0.021,0.594,0.07,0.885
			c0.161,0.958-0.437,1.565-1.01,2.166c-0.244,0.255-1.068-0.025-1.172-0.394C282.487,284.562,282.404,284.019,282.269,283.363z"/>
	</g>
</g>
</svg>
