<?xml version="1.0" encoding="utf-8"?>
<!-- Generator: Adobe Illustrator 16.0.3, SVG Export Plug-In . SVG Version: 6.00 Build 0)  -->
<!DOCTYPE svg PUBLIC "-//W3C//DTD SVG 1.1//EN" "http://www.w3.org/Graphics/SVG/1.1/DTD/svg11.dtd">
<svg version="1.1" id="Ebene_1" xmlns="http://www.w3.org/2000/svg" xmlns:xlink="http://www.w3.org/1999/xlink" x="0px" y="0px"
	 width="566.93px" height="566.93px" viewBox="0 0 566.93 566.93" enable-background="new 0 0 566.93 566.93" xml:space="preserve">
<g>
	<g>
		<path fill-rule="evenodd" clip-rule="evenodd" fill="#FFFFFF" d="M276.204,275.842c4.88,0,9.76,0,14.64,0c0,4.96,0,9.92,0,14.88
			c-4.88,0-9.76,0-14.64,0C276.204,285.762,276.204,280.802,276.204,275.842z M285.887,283.366c0.169-0.229,0.352-0.479,0.537-0.725
			c0.078-0.104,0.209-0.19,0.239-0.305c0.162-0.621-0.28-1.697-0.823-2.072c-0.663-0.458-1.417-0.589-2.198-0.631
			c-0.549-0.029-1.08,0.132-1.653-0.149c-0.494-0.243-0.994,0.351-0.963,0.955c0.083,1.648,0.138,3.299,0.208,4.948
			c0.029,0.689,0.082,1.377,0.092,2.066c0.004,0.296,0.096,0.596,0.371,0.557c0.299-0.044,0.765,0.222,0.905-0.32
			c0.028-0.109,0.096-0.208,0.141-0.301c1.352,0.244,2.614,0.238,3.888-0.34c0.87-0.395,1.315-1.857,0.479-2.522
			C286.695,284.198,286.338,283.799,285.887,283.366z"/>
		<path fill-rule="evenodd" clip-rule="evenodd" d="M285.887,283.366c0.451,0.433,0.809,0.832,1.223,1.161
			c0.837,0.665,0.392,2.128-0.479,2.522c-1.274,0.578-2.536,0.584-3.888,0.34c-0.044,0.093-0.112,0.191-0.141,0.301
			c-0.141,0.542-0.606,0.276-0.905,0.32c-0.275,0.039-0.367-0.261-0.371-0.557c-0.01-0.689-0.063-1.377-0.092-2.066
			c-0.069-1.649-0.125-3.3-0.208-4.948c-0.031-0.604,0.469-1.198,0.963-0.955c0.573,0.282,1.104,0.12,1.653,0.149
			c0.781,0.042,1.535,0.173,2.198,0.631c0.543,0.375,0.985,1.451,0.823,2.072c-0.03,0.115-0.161,0.201-0.239,0.305
			C286.238,282.887,286.056,283.136,285.887,283.366z M282.383,281.291c0.069,0.594,0.125,1.179,0.211,1.76
			c0.049,0.333,0.322,0.47,0.613,0.317c0.645-0.338,1.288-0.682,1.919-1.045c0.404-0.232,0.397-0.555,0.009-0.802
			C284.266,280.97,283.353,280.946,282.383,281.291z M286.205,285.903c-0.094-0.17-0.215-0.395-0.341-0.615
			c-0.364-0.636-1.888-0.932-2.74-0.444c-0.304,0.174-0.421,0.411-0.49,0.688c-0.114,0.46,0.056,0.863,0.363,0.862
			c0.604-0.001,1.213,0.104,1.813-0.125C285.248,286.101,285.721,286.026,286.205,285.903z"/>
		<path fill-rule="evenodd" clip-rule="evenodd" fill="#FFFFFF" d="M282.383,281.291c0.97-0.345,1.883-0.321,2.752,0.23
			c0.389,0.247,0.396,0.569-0.009,0.802c-0.632,0.363-1.274,0.707-1.919,1.045c-0.291,0.153-0.564,0.016-0.613-0.317
			C282.508,282.47,282.452,281.885,282.383,281.291z"/>
		<path fill-rule="evenodd" clip-rule="evenodd" fill="#FFFFFF" d="M286.205,285.903c-0.484,0.123-0.957,0.198-1.395,0.365
			c-0.601,0.229-1.209,0.124-1.813,0.125c-0.307,0.001-0.478-0.402-0.363-0.862c0.069-0.276,0.186-0.514,0.49-0.688
			c0.853-0.487,2.376-0.191,2.74,0.444C285.99,285.508,286.111,285.733,286.205,285.903z"/>
	</g>
</g>
</svg>
