<?xml version="1.0" encoding="utf-8"?>
<!-- Generator: Adobe Illustrator 16.0.3, SVG Export Plug-In . SVG Version: 6.00 Build 0)  -->
<!DOCTYPE svg PUBLIC "-//W3C//DTD SVG 1.1//EN" "http://www.w3.org/Graphics/SVG/1.1/DTD/svg11.dtd">
<svg version="1.1" id="Ebene_1" xmlns="http://www.w3.org/2000/svg" xmlns:xlink="http://www.w3.org/1999/xlink" x="0px" y="0px"
	 width="566.93px" height="566.93px" viewBox="0 0 566.93 566.93" enable-background="new 0 0 566.93 566.93" xml:space="preserve">
<g>
	<g opacity="0.5">
		<path fill-rule="evenodd" clip-rule="evenodd" fill="#FFFFFF" d="M278.12,283.266c0-2.28,0.003-4.56-0.005-6.84
			c-0.001-0.263,0.01-0.388,0.349-0.386c3.34,0.018,6.68,0.018,10.02-0.001c0.326-0.001,0.32,0.114,0.319,0.356
			c-0.006,4.62-0.01,9.24,0.007,13.86c0.002,0.325-0.113,0.32-0.355,0.319c-3.34-0.006-6.68-0.012-10.02,0.008
			c-0.326,0.001-0.321-0.114-0.32-0.356C278.123,287.906,278.12,285.585,278.12,283.266z M281.737,279.541
			c0-0.138,0.001-0.238,0-0.338c-0.005-0.443-0.349-0.83-0.793-0.89c-0.254-0.034-0.452,0.006-0.592,0.276
			c-0.196,0.379-0.267,0.776-0.239,1.185c0.047,0.682,0.131,1.36,0.16,2.046c0.037,0.887,0.075,1.776,0.209,2.659
			c0.083,0.548,0.052,1.111,0.119,1.662c0.074,0.609-0.042,1.355,0.871,1.484c0.054,0.008,0.106,0.056,0.151,0.094
			c0.492,0.417,1.019,0.639,1.692,0.47c0.923-0.231,1.866-0.415,2.547-1.147c0.219-0.235,0.282-0.616,0.502-0.85
			c0.493-0.522,0.619-1.119,0.49-1.789c-0.111-0.576-0.104-1.206-0.663-1.607c-0.088-0.063-0.123-0.2-0.181-0.304
			c-0.508-0.92-1.434-1.346-2.47-1.068c-0.472,0.126-0.92,0.354-1.361,0.571c-0.191,0.094-0.259,0.171-0.274-0.124
			C281.865,281.081,281.793,280.292,281.737,279.541z"/>
		<path fill-rule="evenodd" clip-rule="evenodd" d="M281.737,279.541c0.056,0.751,0.128,1.54,0.168,2.33
			c0.015,0.294,0.083,0.218,0.274,0.124c0.441-0.217,0.89-0.445,1.361-0.571c1.036-0.278,1.962,0.148,2.47,1.068
			c0.058,0.104,0.093,0.241,0.181,0.304c0.559,0.401,0.552,1.031,0.663,1.607c0.129,0.67,0.003,1.267-0.49,1.789
			c-0.22,0.233-0.283,0.614-0.502,0.85c-0.682,0.732-1.624,0.916-2.547,1.147c-0.673,0.169-1.2-0.053-1.692-0.47
			c-0.045-0.038-0.098-0.086-0.151-0.094c-0.913-0.129-0.797-0.875-0.871-1.484c-0.067-0.551-0.036-1.114-0.119-1.662
			c-0.134-0.883-0.172-1.772-0.209-2.659c-0.029-0.686-0.113-1.364-0.16-2.046c-0.028-0.408,0.042-0.805,0.239-1.185
			c0.14-0.271,0.338-0.311,0.592-0.276c0.444,0.06,0.788,0.447,0.793,0.89C281.738,279.303,281.737,279.403,281.737,279.541z
			 M285.177,285.263c0.055-0.716-0.51-1.626-1.095-1.995c-0.346-0.219-0.694-0.2-0.913,0.086c-0.449,0.588-0.78,1.245-0.892,1.981
			c-0.046,0.307,0.041,0.631,0.026,0.945c-0.027,0.579,0.238,0.828,0.812,0.709c0.271-0.057,0.542-0.132,0.803-0.223
			C284.581,286.536,285.162,285.831,285.177,285.263z"/>
		<path fill-rule="evenodd" clip-rule="evenodd" fill="#FFFFFF" d="M285.177,285.263c-0.015,0.567-0.596,1.272-1.258,1.504
			c-0.262,0.091-0.532,0.166-0.803,0.223c-0.574,0.119-0.838-0.13-0.812-0.709c0.014-0.314-0.072-0.639-0.026-0.945
			c0.111-0.736,0.442-1.393,0.892-1.981c0.218-0.286,0.567-0.305,0.913-0.086C284.667,283.637,285.231,284.547,285.177,285.263z"/>
	</g>
	<g>
	</g>
</g>
</svg>
