<?xml version="1.0" encoding="utf-8"?>
<!-- Generator: Adobe Illustrator 16.0.3, SVG Export Plug-In . SVG Version: 6.00 Build 0)  -->
<!DOCTYPE svg PUBLIC "-//W3C//DTD SVG 1.1//EN" "http://www.w3.org/Graphics/SVG/1.1/DTD/svg11.dtd">
<svg version="1.1" id="Ebene_1" xmlns="http://www.w3.org/2000/svg" xmlns:xlink="http://www.w3.org/1999/xlink" x="0px" y="0px"
	 width="566.93px" height="566.93px" viewBox="0 0 566.93 566.93" enable-background="new 0 0 566.93 566.93" xml:space="preserve">
<g>
	<g opacity="0.5">
		<path fill-rule="evenodd" clip-rule="evenodd" fill="#FFFFFF" d="M276.12,277.05c4.58,0,9.16,0.005,13.74-0.01
			c0.357-0.001,0.432,0.072,0.43,0.43c-0.016,4.24-0.016,8.48,0,12.72c0.002,0.358-0.072,0.432-0.43,0.431
			c-4.44-0.016-8.88-0.016-13.32,0c-0.358,0.001-0.432-0.072-0.43-0.431C276.125,285.81,276.12,281.43,276.12,277.05z
			 M279.964,284.168c0.127,0.707,0.193,1.221,0.314,1.721c0.301,1.249,1.362,1.994,2.654,1.905c1.174-0.08,2.201-0.61,3.255-1.057
			c0.104-0.044,0.234-0.132,0.264-0.227c0.056-0.179,0.128-0.435,0.044-0.555c-0.107-0.154-0.396-0.325-0.547-0.281
			c-0.46,0.132-0.971,0.274-1.313,0.58c-0.393,0.349-0.729,0.229-1.127,0.171c-0.828-0.123-1.417-0.492-1.542-1.384
			c-0.118-0.843-0.408-1.699,0.016-2.525c0.622-1.212,1.949-1.759,3.293-1.398c0.388,0.104,0.636-0.058,0.594-0.387
			c-0.066-0.524-0.483-0.969-1.011-1.047c-1.526-0.228-2.7,0.497-3.731,1.479c-0.372,0.355-0.669,0.85-0.842,1.336
			C280.08,283.08,280.044,283.72,279.964,284.168z"/>
		<path fill-rule="evenodd" clip-rule="evenodd" d="M279.964,284.168c0.08-0.448,0.115-1.088,0.321-1.668
			c0.173-0.487,0.47-0.981,0.842-1.336c1.031-0.982,2.205-1.706,3.731-1.479c0.527,0.079,0.944,0.523,1.011,1.047
			c0.042,0.33-0.206,0.491-0.594,0.387c-1.345-0.361-2.671,0.186-3.293,1.398c-0.424,0.826-0.134,1.682-0.016,2.525
			c0.125,0.892,0.714,1.261,1.542,1.384c0.399,0.059,0.735,0.178,1.127-0.171c0.343-0.306,0.854-0.448,1.313-0.58
			c0.151-0.044,0.439,0.127,0.547,0.281c0.084,0.12,0.012,0.376-0.044,0.555c-0.029,0.095-0.159,0.183-0.264,0.227
			c-1.054,0.446-2.081,0.977-3.255,1.057c-1.292,0.089-2.353-0.656-2.654-1.905C280.158,285.389,280.091,284.875,279.964,284.168z"
			/>
	</g>
	<g>
	</g>
</g>
</svg>
