<?xml version="1.0" encoding="utf-8"?>
<!-- Generator: Adobe Illustrator 16.0.3, SVG Export Plug-In . SVG Version: 6.00 Build 0)  -->
<!DOCTYPE svg PUBLIC "-//W3C//DTD SVG 1.1//EN" "http://www.w3.org/Graphics/SVG/1.1/DTD/svg11.dtd">
<svg version="1.1" id="Ebene_1" xmlns="http://www.w3.org/2000/svg" xmlns:xlink="http://www.w3.org/1999/xlink" x="0px" y="0px"
	 width="566.93px" height="566.93px" viewBox="0 0 566.93 566.93" enable-background="new 0 0 566.93 566.93" xml:space="preserve">
<g>
	<g opacity="0.5">
		<path fill-rule="evenodd" clip-rule="evenodd" fill="#FFFFFF" d="M289.399,283.99c0,1.82-0.008,3.641,0.009,5.46
			c0.002,0.301-0.068,0.369-0.368,0.368c-3.521-0.013-7.04-0.013-10.56,0c-0.3,0.001-0.369-0.068-0.368-0.368
			c0.012-3.68,0.012-7.359,0-11.04c-0.001-0.3,0.067-0.369,0.368-0.368c3.52,0.012,7.04,0.012,10.56,0
			c0.3-0.001,0.37,0.067,0.368,0.368C289.392,280.27,289.399,282.13,289.399,283.99z M280.036,285.2c0,0.119,0.001,0.239,0,0.359
			c-0.018,1.744,1.663,3.046,3.095,2.623c0.561-0.166,1.143-0.26,1.699-0.438c0.63-0.203,1.251-0.44,1.852-0.717
			c0.13-0.06,0.239-0.362,0.205-0.52c-0.025-0.114-0.302-0.235-0.47-0.239c-0.204-0.005-0.444,0.062-0.612,0.179
			c-1.064,0.74-2.181,0.398-3.287,0.176c-0.123-0.024-0.239-0.198-0.313-0.328c-0.645-1.147-0.315-2.025,0.442-3.032
			c0.407-0.541,1.493-0.941,2.539-0.426c0.156,0.077,0.479,0.054,0.578-0.056c0.127-0.141,0.183-0.435,0.133-0.629
			c-0.238-0.937-1.047-1.48-2.047-1.292c-1.181,0.222-2.156,0.764-2.874,1.826C280.442,283.474,280.044,284.246,280.036,285.2z"/>
		<path fill-rule="evenodd" clip-rule="evenodd" d="M280.036,285.2c0.008-0.954,0.406-1.726,0.939-2.514
			c0.718-1.062,1.693-1.604,2.874-1.826c1-0.188,1.809,0.355,2.047,1.292c0.05,0.194-0.006,0.488-0.133,0.629
			c-0.099,0.109-0.422,0.132-0.578,0.056c-1.046-0.516-2.132-0.115-2.539,0.426c-0.757,1.007-1.087,1.885-0.442,3.032
			c0.073,0.13,0.19,0.304,0.313,0.328c1.106,0.223,2.223,0.564,3.287-0.176c0.168-0.117,0.408-0.184,0.612-0.179
			c0.168,0.004,0.444,0.125,0.47,0.239c0.034,0.157-0.075,0.46-0.205,0.52c-0.601,0.276-1.222,0.514-1.852,0.717
			c-0.556,0.179-1.138,0.272-1.699,0.438c-1.433,0.423-3.113-0.879-3.095-2.623C280.037,285.439,280.036,285.319,280.036,285.2z"/>
	</g>
	<g>
	</g>
</g>
</svg>
