<?xml version="1.0" encoding="utf-8"?>
<!-- Generator: Adobe Illustrator 16.0.3, SVG Export Plug-In . SVG Version: 6.00 Build 0)  -->
<!DOCTYPE svg PUBLIC "-//W3C//DTD SVG 1.1//EN" "http://www.w3.org/Graphics/SVG/1.1/DTD/svg11.dtd">
<svg version="1.1" id="Ebene_1" xmlns="http://www.w3.org/2000/svg" xmlns:xlink="http://www.w3.org/1999/xlink" x="0px" y="0px"
	 width="566.93px" height="566.93px" viewBox="0 0 566.93 566.93" enable-background="new 0 0 566.93 566.93" xml:space="preserve">
<g>
	<g opacity="0.5">
		<path fill-rule="evenodd" clip-rule="evenodd" fill="#FFFFFF" d="M278.12,289.519c0-4.168,0-8.308,0-12.458
			c3.873,0,7.746,0,11.629,0c0,4.143,0,8.295,0,12.458C285.887,289.519,282.014,289.519,278.12,289.519z M287.142,282.875
			c0.031-0.01,0.063-0.019,0.095-0.029c-0.073-0.215-0.105-0.455-0.225-0.64c-0.619-0.97-1.217-1.976-2.347-2.45
			c-0.487-0.205-0.997-0.365-1.505-0.513c-0.339-0.099-0.704-0.109-1.039-0.216c-0.579-0.185-0.998,0.008-1.021,0.598
			c-0.034,0.864-0.004,1.731,0.031,2.596c0.055,1.34,0.167,2.678,0.194,4.019c0.01,0.478,0.173,0.708,0.589,0.907
			c0.641,0.306,1.269,0.031,1.9,0.046c0.386,0.01,0.799-0.041,1.16-0.174c1.202-0.445,2.452-2.271,2.257-3.616
			C287.205,283.227,287.171,283.051,287.142,282.875z"/>
		<path fill-rule="evenodd" clip-rule="evenodd" d="M287.142,282.875c0.029,0.176,0.063,0.352,0.089,0.528
			c0.195,1.345-1.055,3.17-2.257,3.616c-0.36,0.133-0.773,0.184-1.16,0.174c-0.631-0.015-1.259,0.26-1.9-0.046
			c-0.416-0.199-0.58-0.43-0.589-0.907c-0.027-1.341-0.139-2.679-0.194-4.019c-0.035-0.865-0.064-1.732-0.031-2.596
			c0.023-0.589,0.443-0.783,1.021-0.598c0.335,0.107,0.7,0.117,1.039,0.216c0.508,0.148,1.018,0.309,1.505,0.513
			c1.13,0.474,1.728,1.479,2.347,2.45c0.119,0.185,0.151,0.425,0.225,0.64C287.204,282.856,287.173,282.865,287.142,282.875z
			 M283.164,280.928c-0.456-0.01-0.648,0.332-0.576,0.93c0.049,0.408,0.059,0.825,0.045,1.236c-0.026,0.811-0.086,1.62-0.122,2.431
			c-0.014,0.308,0.119,0.424,0.444,0.561c0.812,0.341,1.423-0.044,2.043-0.404c0.291-0.169,0.596-0.436,0.731-0.731
			C286.462,283.341,284.927,280.967,283.164,280.928z"/>
		<path fill-rule="evenodd" clip-rule="evenodd" fill="#FFFFFF" d="M283.164,280.928c1.763,0.04,3.298,2.414,2.566,4.021
			c-0.136,0.296-0.44,0.563-0.731,0.731c-0.62,0.36-1.231,0.745-2.043,0.404c-0.325-0.137-0.458-0.253-0.444-0.561
			c0.036-0.811,0.096-1.62,0.122-2.431c0.014-0.411,0.004-0.828-0.045-1.236C282.516,281.259,282.708,280.917,283.164,280.928z"/>
	</g>
	<g>
	</g>
</g>
</svg>
