<?xml version="1.0" encoding="utf-8"?>
<!-- Generator: Adobe Illustrator 16.0.3, SVG Export Plug-In . SVG Version: 6.00 Build 0)  -->
<!DOCTYPE svg PUBLIC "-//W3C//DTD SVG 1.1//EN" "http://www.w3.org/Graphics/SVG/1.1/DTD/svg11.dtd">
<svg version="1.1" id="Ebene_1" xmlns="http://www.w3.org/2000/svg" xmlns:xlink="http://www.w3.org/1999/xlink" x="0px" y="0px"
	 width="566.93px" height="566.93px" viewBox="0 0 566.93 566.93" enable-background="new 0 0 566.93 566.93" xml:space="preserve">
<g>
	<g opacity="0.5">
		<path fill-rule="evenodd" clip-rule="evenodd" fill="#FFFFFF" d="M278.124,290.686c0-4.881,0-9.758,0-14.632
			c4.001,0,7.999,0,11.993,0c0,4.881,0,9.758,0,14.632C286.115,290.686,282.118,290.686,278.124,290.686z M286.701,281.674
			c0.025-0.002,0.051-0.005,0.075-0.007c-0.112-0.963-0.245-1.924-0.33-2.89c-0.045-0.513-0.325-0.713-0.778-0.699
			c-0.488,0.015-0.785,0.305-0.774,0.797c0.011,0.506,0.085,1.011,0.144,1.515c0.041,0.354,0.08,0.669-0.396,0.783
			c-0.491,0.118-0.983,0.26-1.447,0.458c-1.167,0.496-1.941,1.368-2.131,2.631c-0.104,0.692-0.138,1.445,0.026,2.115
			c0.158,0.642,0.47,1.418,0.97,1.763c0.785,0.542,1.795,0.505,2.668-0.012c0.336-0.198,0.514-0.249,0.787,0.093
			c0.296,0.37,1.274,0.24,1.34-0.147c0.064-0.383,0.051-0.782,0.037-1.174C286.835,285.158,286.766,283.416,286.701,281.674z"/>
		<path fill-rule="evenodd" clip-rule="evenodd" d="M286.701,281.674c0.064,1.742,0.134,3.483,0.19,5.226
			c0.014,0.392,0.027,0.791-0.037,1.174c-0.065,0.388-1.044,0.518-1.34,0.147c-0.273-0.342-0.451-0.291-0.787-0.093
			c-0.873,0.517-1.883,0.554-2.668,0.012c-0.5-0.345-0.813-1.121-0.97-1.763c-0.165-0.67-0.13-1.423-0.026-2.115
			c0.189-1.263,0.963-2.136,2.131-2.631c0.464-0.197,0.956-0.34,1.447-0.458c0.477-0.114,0.438-0.429,0.396-0.783
			c-0.059-0.504-0.133-1.009-0.144-1.515c-0.011-0.492,0.286-0.782,0.774-0.797c0.453-0.014,0.733,0.186,0.778,0.699
			c0.085,0.965,0.218,1.927,0.33,2.89C286.752,281.669,286.727,281.672,286.701,281.674z M284.813,282.831
			c-0.181,0.023-0.24,0.032-0.3,0.039c-1.865,0.191-2.329,2.159-1.606,3.688c0.238,0.503,0.686,0.681,1.157,0.671
			c0.529-0.011,1.173-0.676,1.163-1.146c-0.02-0.969-0.076-1.938-0.149-2.904C285.067,283.039,284.88,282.914,284.813,282.831z"/>
		<path fill-rule="evenodd" clip-rule="evenodd" fill="#FFFFFF" d="M284.813,282.831c0.066,0.083,0.254,0.208,0.265,0.346
			c0.073,0.967,0.13,1.936,0.149,2.904c0.01,0.471-0.634,1.136-1.163,1.146c-0.471,0.01-0.919-0.168-1.157-0.671
			c-0.723-1.528-0.259-3.496,1.606-3.688C284.573,282.863,284.633,282.854,284.813,282.831z"/>
	</g>
	<g>
	</g>
</g>
</svg>
