<?xml version="1.0" encoding="utf-8"?>
<!-- Generator: Adobe Illustrator 16.0.3, SVG Export Plug-In . SVG Version: 6.00 Build 0)  -->
<!DOCTYPE svg PUBLIC "-//W3C//DTD SVG 1.1//EN" "http://www.w3.org/Graphics/SVG/1.1/DTD/svg11.dtd">
<svg version="1.1" id="Ebene_1" xmlns="http://www.w3.org/2000/svg" xmlns:xlink="http://www.w3.org/1999/xlink" x="0px" y="0px"
	 width="566.93px" height="566.93px" viewBox="0 0 566.93 566.93" enable-background="new 0 0 566.93 566.93" xml:space="preserve">
<g>
	<g opacity="0.5">
		<path fill-rule="evenodd" clip-rule="evenodd" fill="#FFFFFF" d="M289.84,284.07c0,2.22-0.004,4.44,0.006,6.66
			c0.001,0.208-0.038,0.246-0.246,0.246c-4.08-0.009-8.16-0.009-12.24,0c-0.208,0-0.247-0.038-0.246-0.246
			c0.008-4.479,0.008-8.96,0-13.44c0-0.208,0.038-0.247,0.246-0.246c4.08,0.008,8.16,0.008,12.24,0c0.208,0,0.247,0.038,0.246,0.246
			C289.836,279.55,289.84,281.81,289.84,284.07z M284.509,281.389c0.136,0.013,0.28,0.073,0.366,0.026
			c0.23-0.125,0.469-0.269,0.629-0.466c0.048-0.059-0.112-0.404-0.249-0.47c-0.298-0.142-0.64-0.254-0.967-0.263
			c-0.901-0.023-1.805,0.015-2.707,0.022c-0.097,0.001-0.203-0.023-0.29-0.066c-0.245-0.121-0.487-0.218-0.701,0.04
			c-0.172,0.207-0.426,0.358-0.417,0.688c0.017,0.71,0.017,1.42,0.02,2.13c0.001,0.292,0.065,0.613-0.03,0.872
			c-0.161,0.437-0.083,0.863-0.097,1.296c-0.007,0.196-0.002,0.4-0.056,0.587c-0.15,0.525-0.11,1.062-0.101,1.592
			c0.008,0.457,0.49,0.761,1.115,0.736c0.895-0.036,1.79-0.087,2.684-0.133c0.713-0.036,1.426-0.065,2.139-0.115
			c0.195-0.014,0.396-0.067,0.576-0.143c0.234-0.099,0.292-0.333,0.096-0.466c-0.308-0.206-0.654-0.479-0.992-0.491
			c-1.009-0.036-2.01-0.252-3.037-0.039c-0.692,0.143-0.972-0.172-1.022-0.88c-0.001-0.02,0.007-0.039,0.006-0.059
			c-0.023-0.611,0.059-0.735,0.648-0.854c0.578-0.115,1.159-0.243,1.745-0.289c0.38-0.029,0.484-0.307,0.659-0.528
			c0.041-0.052,0.015-0.241-0.034-0.267c-0.272-0.143-0.569-0.372-0.841-0.352c-0.529,0.039-1.052-0.055-1.578,0.005
			c-0.24,0.027-0.367-0.125-0.361-0.371c0.009-0.355,0.013-0.711,0.035-1.065c0.004-0.064,0.07-0.152,0.131-0.181
			c0.196-0.094,0.397-0.208,0.608-0.24C283.161,281.542,283.843,281.471,284.509,281.389z"/>
		<path fill-rule="evenodd" clip-rule="evenodd" d="M284.509,281.389c-0.666,0.082-1.348,0.153-2.024,0.258
			c-0.21,0.032-0.412,0.146-0.608,0.24c-0.061,0.029-0.126,0.117-0.131,0.181c-0.022,0.354-0.026,0.709-0.035,1.065
			c-0.006,0.246,0.121,0.398,0.361,0.371c0.525-0.06,1.049,0.034,1.578-0.005c0.272-0.02,0.568,0.209,0.841,0.352
			c0.049,0.025,0.075,0.215,0.034,0.267c-0.175,0.222-0.278,0.499-0.659,0.528c-0.585,0.046-1.167,0.174-1.745,0.289
			c-0.589,0.118-0.671,0.242-0.648,0.854c0,0.02-0.007,0.039-0.006,0.059c0.05,0.708,0.33,1.022,1.022,0.88
			c1.027-0.213,2.028,0.003,3.037,0.039c0.338,0.013,0.685,0.285,0.992,0.491c0.196,0.133,0.139,0.367-0.096,0.466
			c-0.181,0.075-0.381,0.129-0.576,0.143c-0.713,0.05-1.426,0.079-2.139,0.115c-0.895,0.046-1.789,0.097-2.684,0.133
			c-0.625,0.024-1.106-0.279-1.115-0.736c-0.009-0.53-0.049-1.066,0.101-1.592c0.053-0.187,0.049-0.391,0.056-0.587
			c0.015-0.433-0.063-0.859,0.097-1.296c0.096-0.259,0.032-0.58,0.03-0.872c-0.002-0.71-0.002-1.42-0.02-2.13
			c-0.008-0.33,0.245-0.481,0.417-0.688c0.214-0.257,0.456-0.16,0.701-0.04c0.087,0.042,0.193,0.067,0.29,0.066
			c0.902-0.007,1.806-0.045,2.707-0.022c0.327,0.009,0.669,0.121,0.967,0.263c0.137,0.065,0.297,0.411,0.249,0.47
			c-0.16,0.197-0.398,0.341-0.629,0.466C284.789,281.462,284.645,281.402,284.509,281.389z"/>
	</g>
	<g>
	</g>
</g>
</svg>
