<?xml version="1.0" encoding="utf-8"?>
<!-- Generator: Adobe Illustrator 16.0.3, SVG Export Plug-In . SVG Version: 6.00 Build 0)  -->
<!DOCTYPE svg PUBLIC "-//W3C//DTD SVG 1.1//EN" "http://www.w3.org/Graphics/SVG/1.1/DTD/svg11.dtd">
<svg version="1.1" id="Ebene_1" xmlns="http://www.w3.org/2000/svg" xmlns:xlink="http://www.w3.org/1999/xlink" x="0px" y="0px"
	 width="566.93px" height="566.93px" viewBox="0 0 566.93 566.93" enable-background="new 0 0 566.93 566.93" xml:space="preserve">
<g>
	<g opacity="0.5">
		<path fill-rule="evenodd" clip-rule="evenodd" fill="#FFFFFF" d="M277.12,289.079c0-3.685,0-7.345,0-11.017
			c4.152,0,8.305,0,12.468,0c0,3.66,0,7.333,0,11.017C285.448,289.079,281.296,289.079,277.12,289.079z M279.817,284.298
			c0.161,2.006,0.668,2.671,2.338,3.063c1.124,0.266,2.884-0.327,3.186-1.081c0.048-0.118,0.062-0.263,0.043-0.388
			c-0.007-0.043-0.2-0.116-0.244-0.085c-0.755,0.535-1.481,0.653-2.437,0.364c-0.813-0.246-0.939-0.776-1.122-1.368
			c-0.035-0.111,0.181-0.432,0.295-0.438c0.95-0.061,1.907-0.132,2.854-0.077c0.793,0.046,1.796-0.497,1.77-1.102
			c-0.042-0.984-1.354-2.596-2.348-2.885C281.933,279.656,279.616,281.792,279.817,284.298z"/>
		<path fill-rule="evenodd" clip-rule="evenodd" d="M279.817,284.298c-0.202-2.506,2.116-4.642,4.335-3.997
			c0.994,0.289,2.306,1.901,2.348,2.885c0.026,0.604-0.977,1.147-1.77,1.102c-0.948-0.055-1.904,0.017-2.854,0.077
			c-0.114,0.007-0.33,0.327-0.295,0.438c0.183,0.592,0.31,1.122,1.122,1.368c0.955,0.289,1.682,0.171,2.437-0.364
			c0.044-0.031,0.237,0.042,0.244,0.085c0.019,0.125,0.005,0.27-0.043,0.388c-0.302,0.754-2.062,1.347-3.186,1.081
			C280.486,286.969,279.979,286.304,279.817,284.298z M281.524,283.162c1.123-0.089,2.113-0.159,3.099-0.271
			c0.05-0.006,0.157-0.471,0.071-0.558C283.713,281.339,282.213,281.642,281.524,283.162z"/>
		<path fill-rule="evenodd" clip-rule="evenodd" fill="#FFFFFF" d="M281.524,283.162c0.688-1.52,2.188-1.823,3.17-0.829
			c0.086,0.087-0.021,0.552-0.071,0.558C283.638,283.003,282.647,283.073,281.524,283.162z"/>
	</g>
	<g>
	</g>
</g>
</svg>
