<?xml version="1.0" encoding="utf-8"?>
<!-- Generator: Adobe Illustrator 16.0.3, SVG Export Plug-In . SVG Version: 6.00 Build 0)  -->
<!DOCTYPE svg PUBLIC "-//W3C//DTD SVG 1.1//EN" "http://www.w3.org/Graphics/SVG/1.1/DTD/svg11.dtd">
<svg version="1.1" id="Ebene_1" xmlns="http://www.w3.org/2000/svg" xmlns:xlink="http://www.w3.org/1999/xlink" x="0px" y="0px"
	 width="566.93px" height="566.93px" viewBox="0 0 566.93 566.93" enable-background="new 0 0 566.93 566.93" xml:space="preserve">
<g>
	<g opacity="0.5">
		<path fill-rule="evenodd" clip-rule="evenodd" fill="#FFFFFF" d="M278.12,283.47c0-2.02,0.007-4.04-0.008-6.06
			c-0.002-0.3,0.068-0.369,0.368-0.368c3.28,0.012,6.56,0.012,9.839,0c0.3-0.001,0.369,0.068,0.368,0.368
			c-0.012,4.04-0.012,8.08,0,12.12c0.001,0.3-0.068,0.369-0.368,0.368c-3.279-0.013-6.56-0.013-9.839,0
			c-0.3,0.001-0.37-0.068-0.368-0.368C278.127,287.51,278.12,285.49,278.12,283.47z M281.348,286.654
			c-0.025,0.001-0.05,0.002-0.075,0.004c0.024,0.294,0.053,0.589,0.07,0.884c0.024,0.405,0.271,0.479,0.619,0.454
			c0.37-0.026,0.462-0.254,0.467-0.567c0.003-0.155,0.002-0.312,0.016-0.466c0.048-0.535,0.064-1.078,0.167-1.604
			c0.065-0.334,0.188-0.833,0.416-0.921c0.517-0.199,1.131-0.132,1.672-0.289c0.299-0.087,0.55-0.391,0.765-0.646
			c0.029-0.035-0.259-0.381-0.439-0.538c-0.387-0.336-0.806-0.222-1.27-0.125c-0.275,0.057-0.796-0.113-0.894-0.325
			c-0.391-0.846,0.371-1.79,1.237-1.503c0.5,0.165,0.763-0.167,1.137-0.229c0.166-0.027,0.284-0.345,0.424-0.531
			c-0.162-0.106-0.315-0.231-0.488-0.314c-0.157-0.076-0.334-0.139-0.507-0.151c-0.806-0.057-1.613-0.127-2.419-0.121
			c-0.278,0.002-0.765,0.179-0.792,0.339c-0.085,0.487-0.457,0.954-0.162,1.506c0.111,0.208,0.055,0.511,0.055,0.77
			C281.35,283.739,281.348,285.196,281.348,286.654z"/>
		<path fill-rule="evenodd" clip-rule="evenodd" d="M281.348,286.654c0-1.458,0.002-2.915-0.002-4.373
			c0-0.259,0.056-0.562-0.055-0.77c-0.294-0.553,0.077-1.019,0.162-1.506c0.028-0.16,0.514-0.337,0.792-0.339
			c0.806-0.007,1.614,0.064,2.419,0.121c0.173,0.012,0.35,0.075,0.507,0.151c0.173,0.083,0.326,0.208,0.488,0.314
			c-0.14,0.186-0.258,0.504-0.424,0.531c-0.374,0.061-0.637,0.393-1.137,0.229c-0.866-0.286-1.628,0.657-1.237,1.503
			c0.098,0.212,0.619,0.382,0.894,0.325c0.464-0.097,0.883-0.21,1.27,0.125c0.181,0.157,0.469,0.503,0.439,0.538
			c-0.215,0.255-0.466,0.56-0.765,0.646c-0.541,0.157-1.155,0.09-1.672,0.289c-0.228,0.088-0.351,0.587-0.416,0.921
			c-0.103,0.525-0.119,1.068-0.167,1.604c-0.014,0.154-0.013,0.311-0.016,0.466c-0.005,0.313-0.097,0.541-0.467,0.567
			c-0.348,0.024-0.595-0.049-0.619-0.454c-0.017-0.295-0.046-0.59-0.07-0.884C281.298,286.656,281.323,286.655,281.348,286.654z"/>
	</g>
	<g>
	</g>
</g>
</svg>
