<?xml version="1.0" encoding="utf-8"?>
<!-- Generator: Adobe Illustrator 16.0.3, SVG Export Plug-In . SVG Version: 6.00 Build 0)  -->
<!DOCTYPE svg PUBLIC "-//W3C//DTD SVG 1.1//EN" "http://www.w3.org/Graphics/SVG/1.1/DTD/svg11.dtd">
<svg version="1.1" id="Ebene_1" xmlns="http://www.w3.org/2000/svg" xmlns:xlink="http://www.w3.org/1999/xlink" x="0px" y="0px"
	 width="566.93px" height="566.93px" viewBox="0 0 566.93 566.93" enable-background="new 0 0 566.93 566.93" xml:space="preserve">
<g>
	<g opacity="0.5">
		<path fill-rule="evenodd" clip-rule="evenodd" fill="#FFFFFF" d="M289.641,292.571c-3.841,0-7.681,0-11.521,0
			c0-5.84,0-11.681,0-17.521c3.84,0,7.68,0,11.521,0C289.641,280.89,289.641,286.731,289.641,292.571z M285.583,281.024
			c0.854-0.07,1.258-0.54,0.975-1.259c-0.204-0.52-0.315-1.065-0.642-1.577c-0.575-0.905-1.251-1.181-2.245-0.997
			c-1.012,0.186-1.84,0.96-2.123,1.963c-0.269,0.952-0.223,1.905-0.112,2.862c0.049,0.425-0.019,0.676-0.499,0.747
			c-0.276,0.041-0.577,0.103-0.572,0.544c0.007,0.585,0.097,0.73,0.706,0.904c0.183,0.052,0.468,0.207,0.476,0.331
			c0.046,0.666,0.016,1.337,0.019,2.006c0.001,0.473,0.02,0.945,0.019,1.419c-0.001,0.569,0.098,1.173-0.058,1.698
			c-0.118,0.398-0.045,0.672,0.158,0.91c0.177,0.209,0.443,0.427,0.789,0.224c0.351-0.206,0.681-0.437,0.7-0.886
			c0.025-0.572,0.1-1.162-0.005-1.714c-0.109-0.571,0.024-1.116-0.008-1.673c-0.036-0.631,0.015-1.266,0.01-1.898
			c-0.002-0.302,0.115-0.412,0.417-0.444c0.531-0.057,1.06-0.147,1.58-0.268c0.175-0.041,0.339-0.199,0.466-0.34
			c0.059-0.066,0.057-0.242,0.01-0.329c-0.03-0.058-0.19-0.046-0.291-0.068c-0.158-0.034-0.343-0.029-0.47-0.112
			c-0.376-0.247-0.744-0.417-1.222-0.328c-0.259,0.048-0.476,0.01-0.562-0.406c-0.066-0.316-0.085-0.611-0.079-0.92
			c0.011-0.544-0.033-1.098,0.061-1.628c0.064-0.361,0.237-0.832,0.514-0.996c0.42-0.249,0.914-0.042,1.339,0.244
			C285.743,279.575,285.846,280.15,285.583,281.024z"/>
		<path fill-rule="evenodd" clip-rule="evenodd" d="M285.583,281.024c0.263-0.875,0.16-1.45-0.648-1.993
			c-0.426-0.286-0.919-0.492-1.339-0.244c-0.277,0.164-0.45,0.635-0.514,0.996c-0.094,0.53-0.05,1.084-0.061,1.628
			c-0.006,0.309,0.013,0.604,0.079,0.92c0.086,0.416,0.303,0.454,0.562,0.406c0.478-0.088,0.846,0.082,1.222,0.328
			c0.127,0.083,0.312,0.078,0.47,0.112c0.101,0.022,0.261,0.01,0.291,0.068c0.047,0.087,0.049,0.263-0.01,0.329
			c-0.127,0.141-0.291,0.299-0.466,0.34c-0.52,0.121-1.049,0.211-1.58,0.268c-0.302,0.032-0.419,0.143-0.417,0.444
			c0.005,0.633-0.046,1.268-0.01,1.898c0.032,0.557-0.101,1.102,0.008,1.673c0.105,0.552,0.03,1.142,0.005,1.714
			c-0.019,0.449-0.349,0.68-0.7,0.886c-0.346,0.203-0.612-0.015-0.789-0.224c-0.203-0.238-0.276-0.512-0.158-0.91
			c0.156-0.525,0.057-1.129,0.058-1.698c0.001-0.474-0.017-0.946-0.019-1.419c-0.003-0.669,0.027-1.34-0.019-2.006
			c-0.008-0.124-0.293-0.279-0.476-0.331c-0.609-0.174-0.699-0.318-0.706-0.904c-0.005-0.442,0.296-0.504,0.572-0.544
			c0.48-0.07,0.548-0.321,0.499-0.747c-0.111-0.957-0.156-1.91,0.112-2.862c0.282-1.002,1.111-1.777,2.123-1.963
			c0.994-0.184,1.67,0.092,2.245,0.997c0.326,0.512,0.438,1.057,0.642,1.577C286.841,280.485,286.438,280.954,285.583,281.024z"/>
	</g>
	<g>
	</g>
</g>
</svg>
