<?xml version="1.0" encoding="utf-8"?>
<!-- Generator: Adobe Illustrator 16.0.3, SVG Export Plug-In . SVG Version: 6.00 Build 0)  -->
<!DOCTYPE svg PUBLIC "-//W3C//DTD SVG 1.1//EN" "http://www.w3.org/Graphics/SVG/1.1/DTD/svg11.dtd">
<svg version="1.1" id="Ebene_1" xmlns="http://www.w3.org/2000/svg" xmlns:xlink="http://www.w3.org/1999/xlink" x="0px" y="0px"
	 width="566.93px" height="566.93px" viewBox="0 0 566.93 566.93" enable-background="new 0 0 566.93 566.93" xml:space="preserve">
<g>
	<g opacity="0.5">
		<path fill-rule="evenodd" clip-rule="evenodd" fill="#FFFFFF" d="M277.12,289.77c0-4.259,0-8.474,0-12.705c4.4,0,8.8,0,13.199,0
			c0,4.234,0,8.469,0,12.704C285.925,289.77,281.53,289.77,277.12,289.77z M287.007,287.553c0.336-1.149,0.254-2.322,0.174-3.491
			c-0.041-0.607-0.4-0.941-1.01-0.924c-0.559,0.016-1.167-0.124-1.634,0.361c-0.063,0.065-0.191,0.06-0.274,0.111
			c-0.165,0.1-0.37,0.185-0.467,0.335c-0.104,0.161-0.182,0.416-0.127,0.583c0.085,0.263,0.353,0.366,0.639,0.317
			c0.216-0.037,0.427-0.112,0.644-0.137c0.67-0.077,0.948,0.238,0.807,0.894c-0.013,0.058-0.029,0.118-0.028,0.177
			c0.009,0.256,0.082,0.537-0.234,0.675c-0.251,0.109-0.502,0.264-0.765,0.293c-0.467,0.052-0.942-0.143-1.415,0.014
			c-0.048,0.017-0.128-0.004-0.171-0.037c-0.439-0.339-1.083-0.509-1.025-1.261c0.008-0.103-0.1-0.211-0.14-0.322
			c-0.08-0.219-0.208-0.439-0.213-0.662c-0.02-1.032,0.354-1.936,0.98-2.743c0.048-0.063,0.094-0.15,0.16-0.172
			c0.69-0.236,1.342-0.554,2.109-0.587c0.508-0.022,0.85,0.013,1.008,0.646c0.191-0.162,0.382-0.242,0.425-0.371
			c0.258-0.792-0.553-1.756-1.386-1.695c-0.956,0.071-1.871,0.359-2.738,0.707c-0.532,0.214-1.102,0.679-1.351,1.181
			c-0.552,1.112-0.994,2.306-0.72,3.607c0.118,0.56,0.185,1.148,0.415,1.66c0.228,0.506,0.688,0.857,1.24,1.053
			c1.025,0.363,2.042,0.243,3.063-0.013c0.207-0.053,0.456-0.139,0.633-0.071C286.108,287.873,286.554,287.735,287.007,287.553z"/>
		<path fill-rule="evenodd" clip-rule="evenodd" d="M287.008,287.553c-0.454,0.182-0.899,0.319-1.403,0.126
			c-0.177-0.067-0.426,0.019-0.633,0.071c-1.021,0.256-2.038,0.376-3.063,0.013c-0.552-0.195-1.013-0.547-1.24-1.053
			c-0.23-0.512-0.297-1.101-0.415-1.66c-0.273-1.301,0.168-2.495,0.72-3.607c0.25-0.502,0.819-0.967,1.351-1.181
			c0.867-0.348,1.782-0.636,2.738-0.707c0.833-0.062,1.644,0.903,1.386,1.695c-0.043,0.129-0.233,0.209-0.425,0.371
			c-0.158-0.633-0.5-0.668-1.008-0.646c-0.767,0.033-1.419,0.351-2.109,0.587c-0.065,0.022-0.111,0.11-0.16,0.172
			c-0.627,0.807-1,1.711-0.98,2.743c0.004,0.223,0.133,0.443,0.213,0.662c0.04,0.111,0.147,0.22,0.14,0.322
			c-0.057,0.752,0.586,0.922,1.025,1.261c0.043,0.033,0.123,0.054,0.171,0.037c0.473-0.156,0.948,0.038,1.415-0.014
			c0.263-0.029,0.514-0.184,0.765-0.293c0.316-0.138,0.243-0.419,0.234-0.675c-0.001-0.059,0.016-0.119,0.028-0.177
			c0.142-0.655-0.137-0.971-0.807-0.894c-0.217,0.024-0.428,0.1-0.644,0.137c-0.286,0.049-0.553-0.055-0.639-0.317
			c-0.055-0.167,0.023-0.422,0.127-0.583c0.097-0.15,0.302-0.235,0.467-0.335c0.083-0.051,0.212-0.046,0.274-0.111
			c0.467-0.485,1.075-0.345,1.634-0.361c0.609-0.018,0.969,0.317,1.01,0.924C287.261,285.231,287.343,286.404,287.008,287.553z"/>
	</g>
	<g>
	</g>
</g>
</svg>
