<?xml version="1.0" encoding="utf-8"?>
<!-- Generator: Adobe Illustrator 16.0.3, SVG Export Plug-In . SVG Version: 6.00 Build 0)  -->
<!DOCTYPE svg PUBLIC "-//W3C//DTD SVG 1.1//EN" "http://www.w3.org/Graphics/SVG/1.1/DTD/svg11.dtd">
<svg version="1.1" id="Ebene_1" xmlns="http://www.w3.org/2000/svg" xmlns:xlink="http://www.w3.org/1999/xlink" x="0px" y="0px"
	 width="566.93px" height="566.93px" viewBox="0 0 566.93 566.93" enable-background="new 0 0 566.93 566.93" xml:space="preserve">
<g>
	<g opacity="0.5">
		<path fill-rule="evenodd" clip-rule="evenodd" fill="#FFFFFF" d="M278.12,283.204c0-2.257,0.01-4.515-0.011-6.771
			c-0.003-0.349,0.09-0.392,0.408-0.391c3.375,0.014,6.751,0.014,10.127,0c0.321-0.001,0.406,0.048,0.405,0.393
			c-0.015,4.515-0.014,9.029-0.001,13.544c0.001,0.317-0.094,0.359-0.376,0.358c-3.396-0.01-6.792-0.01-10.188,0
			c-0.286,0.001-0.377-0.047-0.375-0.36C278.128,287.719,278.12,285.461,278.12,283.204z M285.038,285.584
			c0.013,0.537-0.591,1.528-1.033,1.533c-0.615,0.008-1.231-0.073-1.848-0.1c-0.099-0.004-0.233,0.05-0.298,0.124
			c-0.32,0.366-0.063,1.012,0.517,1.147c0.528,0.124,1.131,0.282,1.62,0.142c0.636-0.184,1.193-0.645,1.781-0.992
			c0.047-0.027,0.063-0.103,0.103-0.146c0.763-0.817,0.917-1.864,0.886-2.886c-0.05-1.636-0.24-3.27-0.427-4.898
			c-0.029-0.254-0.315-0.614-0.553-0.682c-0.468-0.133-0.615-0.376-0.708-0.822c-0.168-0.802-0.89-1.088-1.593-1.008
			c-1.982,0.226-3.48,2.215-3.083,4.137c0.108,0.521,0.226,1.041,0.328,1.563c0.146,0.747,0.821,1.295,1.572,1.408
			c0.797,0.119,1.438-0.303,2.136-0.51c0.334-0.1,0.477-0.1,0.57,0.23c0.066,0.231,0.057,1.222-0.005,1.465
			C284.982,285.363,285.019,285.447,285.038,285.584z"/>
		<path fill-rule="evenodd" clip-rule="evenodd" d="M285.038,285.584c-0.02-0.138-0.056-0.222-0.037-0.293
			c0.062-0.243,0.071-1.234,0.005-1.465c-0.094-0.33-0.236-0.33-0.57-0.23c-0.697,0.207-1.339,0.629-2.136,0.51
			c-0.751-0.113-1.427-0.661-1.572-1.408c-0.102-0.522-0.22-1.042-0.328-1.563c-0.397-1.921,1.102-3.911,3.083-4.137
			c0.703-0.08,1.425,0.206,1.593,1.008c0.093,0.446,0.24,0.689,0.708,0.822c0.237,0.067,0.523,0.427,0.553,0.682
			c0.187,1.628,0.377,3.262,0.427,4.898c0.031,1.021-0.123,2.068-0.886,2.886c-0.04,0.043-0.056,0.118-0.103,0.146
			c-0.588,0.348-1.145,0.809-1.781,0.992c-0.488,0.141-1.091-0.018-1.62-0.142c-0.58-0.136-0.837-0.781-0.517-1.147
			c0.065-0.074,0.199-0.128,0.298-0.124c0.617,0.026,1.233,0.107,1.848,0.1C284.447,287.113,285.051,286.122,285.038,285.584z
			 M284.482,279.707c0.009-0.003,0.018-0.006,0.026-0.009c-0.044-0.184-0.028-0.45-0.144-0.535c-0.306-0.224-0.714-0.565-0.999-0.5
			c-0.418,0.096-0.975,0.434-1.097,0.795c-0.262,0.774-0.349,1.631-0.014,2.447c0.08,0.194,0.159,0.53,0.271,0.544
			c0.474,0.062,1.012,0.155,1.429-0.01c0.429-0.169,0.811-0.587,0.734-1.178C284.623,280.743,284.552,280.225,284.482,279.707z"/>
		<path fill-rule="evenodd" clip-rule="evenodd" fill="#FFFFFF" d="M284.482,279.707c0.069,0.518,0.141,1.036,0.207,1.554
			c0.076,0.591-0.306,1.008-0.734,1.178c-0.417,0.165-0.955,0.072-1.429,0.01c-0.112-0.014-0.192-0.35-0.271-0.544
			c-0.335-0.815-0.248-1.673,0.014-2.447c0.123-0.362,0.679-0.7,1.097-0.795c0.285-0.065,0.693,0.276,0.999,0.5
			c0.115,0.085,0.1,0.352,0.144,0.535C284.5,279.701,284.491,279.704,284.482,279.707z"/>
	</g>
	<g>
	</g>
</g>
</svg>
