<?xml version="1.0" encoding="utf-8"?>
<!-- Generator: Adobe Illustrator 16.0.3, SVG Export Plug-In . SVG Version: 6.00 Build 0)  -->
<!DOCTYPE svg PUBLIC "-//W3C//DTD SVG 1.1//EN" "http://www.w3.org/Graphics/SVG/1.1/DTD/svg11.dtd">
<svg version="1.1" id="Ebene_1" xmlns="http://www.w3.org/2000/svg" xmlns:xlink="http://www.w3.org/1999/xlink" x="0px" y="0px"
	 width="566.93px" height="566.93px" viewBox="0 0 566.93 566.93" enable-background="new 0 0 566.93 566.93" xml:space="preserve">
<g>
	<path fill-rule="evenodd" clip-rule="evenodd" fill="#FFFFFF" d="M289.04,284.11c0,1.9-0.008,3.801,0.008,5.7
		c0.003,0.3-0.067,0.369-0.368,0.368c-3.399-0.013-6.8-0.013-10.2,0c-0.3,0.001-0.369-0.068-0.368-0.368c0.012-3.8,0.012-7.6,0-11.4
		c-0.001-0.3,0.067-0.369,0.368-0.368c3.4,0.012,6.8,0.012,10.2,0c0.3-0.001,0.371,0.067,0.368,0.368
		C289.032,280.31,289.04,282.21,289.04,284.11z M282.322,281.626c0.018-0.002,0.036-0.003,0.055-0.005
		c-0.047-0.431,0.008-0.915-0.175-1.278c-0.148-0.294-0.564-0.568-0.899-0.622c-0.394-0.063-0.458,0.371-0.461,0.698
		c-0.005,0.676,0.029,1.352,0.02,2.028c-0.024,1.708-0.072,3.417-0.09,5.125c-0.003,0.31,0.012,0.712,0.458,0.707
		c0.411-0.005,0.875-0.037,0.895-0.64c0.027-0.834,0.069-1.667,0.084-2.5c0.01-0.522,0.187-0.835,0.773-0.82
		c0.294,0.007,0.597-0.04,0.885-0.107c0.413-0.096,0.568,0.038,0.626,0.461c0.129,0.944,0.301,1.884,0.487,2.818
		c0.042,0.211,0.206,0.554,0.328,0.56c0.343,0.019,0.731-0.042,1.022-0.21c0.106-0.062,0.015-0.514-0.027-0.781
		c-0.099-0.616-0.291-1.225-0.322-1.842c-0.055-1.112,0.009-2.23-0.033-3.344c-0.02-0.507-0.101-1.04-0.296-1.501
		c-0.099-0.233-0.521-0.463-0.783-0.45c-0.205,0.01-0.527,0.383-0.556,0.624c-0.059,0.503,0.017,1.028,0.084,1.538
		c0.059,0.447-0.058,0.713-0.542,0.71c-0.178-0.001-0.356-0.047-0.534-0.065c-0.316-0.033-0.783,0.054-0.912-0.117
		C282.24,282.389,282.338,281.964,282.322,281.626z"/>
	<path fill-rule="evenodd" clip-rule="evenodd" d="M282.322,281.626c0.016,0.338-0.082,0.763,0.087,0.986
		c0.129,0.171,0.596,0.084,0.912,0.117c0.178,0.018,0.356,0.063,0.534,0.065c0.485,0.003,0.601-0.263,0.542-0.71
		c-0.067-0.51-0.143-1.035-0.084-1.538c0.028-0.24,0.351-0.613,0.556-0.624c0.263-0.013,0.685,0.217,0.783,0.45
		c0.195,0.461,0.276,0.994,0.296,1.501c0.042,1.113-0.021,2.231,0.033,3.344c0.031,0.617,0.224,1.226,0.322,1.842
		c0.042,0.268,0.134,0.72,0.027,0.781c-0.291,0.168-0.68,0.229-1.022,0.21c-0.122-0.006-0.286-0.349-0.328-0.56
		c-0.187-0.935-0.358-1.874-0.487-2.818c-0.059-0.423-0.214-0.557-0.626-0.461c-0.288,0.067-0.59,0.114-0.885,0.107
		c-0.586-0.015-0.763,0.298-0.773,0.82c-0.016,0.833-0.057,1.666-0.084,2.5c-0.02,0.603-0.484,0.635-0.895,0.64
		c-0.446,0.005-0.462-0.397-0.458-0.707c0.019-1.709,0.066-3.417,0.09-5.125c0.009-0.676-0.025-1.352-0.02-2.028
		c0.003-0.327,0.068-0.761,0.461-0.698c0.334,0.054,0.75,0.328,0.899,0.622c0.183,0.363,0.127,0.847,0.175,1.278
		C282.358,281.623,282.34,281.624,282.322,281.626z"/>
</g>
</svg>
