<?xml version="1.0" encoding="utf-8"?>
<!-- Generator: Adobe Illustrator 16.0.3, SVG Export Plug-In . SVG Version: 6.00 Build 0)  -->
<!DOCTYPE svg PUBLIC "-//W3C//DTD SVG 1.1//EN" "http://www.w3.org/Graphics/SVG/1.1/DTD/svg11.dtd">
<svg version="1.1" id="Ebene_1" xmlns="http://www.w3.org/2000/svg" xmlns:xlink="http://www.w3.org/1999/xlink" x="0px" y="0px"
	 width="566.93px" height="566.93px" viewBox="0 0 566.93 566.93" enable-background="new 0 0 566.93 566.93" xml:space="preserve">
<g>
	<g opacity="0.5">
		<path fill-rule="evenodd" clip-rule="evenodd" fill="#FFFFFF" d="M289.641,283.193c0,2.218-0.006,4.436,0.006,6.652
			c0.002,0.287-0.048,0.375-0.36,0.374c-3.596-0.014-7.192-0.016-10.788,0.002c-0.356,0.002-0.387-0.103-0.386-0.411
			c0.011-4.455,0.012-8.91-0.001-13.365c-0.001-0.321,0.049-0.407,0.393-0.405c3.596,0.017,7.192,0.016,10.788,0
			c0.327-0.001,0.354,0.107,0.354,0.38C289.636,278.678,289.641,280.936,289.641,283.193z M280.952,287.221
			c0,0.219-0.025,0.441,0.006,0.655c0.04,0.279,0.116,0.525,0.477,0.598c0.325,0.066,0.424-0.144,0.632-0.292
			c0.496-0.354,0.521-0.825,0.554-1.347c0.041-0.655,0.138-1.306,0.212-1.958c0.059-0.52,0.512-0.964,1.024-1.008
			c0.663-0.057,1.225,0.235,1.298,0.766c0.095,0.684,0.085,1.382,0.146,2.07c0.027,0.31,0.07,0.635,0.197,0.91
			c0.059,0.126,0.427,0.26,0.502,0.199c0.256-0.203,0.57-0.465,0.634-0.754c0.163-0.744,0.313-1.521,0.27-2.273
			c-0.079-1.381-0.34-1.988-1.764-2.391c-0.737-0.208-1.447-0.132-2.164,0.098c-0.483,0.155-0.588,0.059-0.62-0.448
			c-0.044-0.707-0.085-1.414-0.133-2.121c-0.027-0.4-0.156-0.687-0.648-0.661c-0.465,0.024-0.829,0.248-0.833,0.66
			c-0.01,1.288,0,2.576,0.037,3.863C280.813,284.932,280.893,286.077,280.952,287.221z"/>
		<path fill-rule="evenodd" clip-rule="evenodd" d="M280.952,287.221c-0.059-1.145-0.139-2.289-0.172-3.434
			c-0.037-1.287-0.046-2.575-0.037-3.863c0.003-0.412,0.367-0.636,0.833-0.66c0.492-0.026,0.621,0.261,0.648,0.661
			c0.048,0.707,0.089,1.414,0.133,2.121c0.032,0.507,0.137,0.603,0.62,0.448c0.717-0.23,1.426-0.306,2.164-0.098
			c1.424,0.402,1.685,1.009,1.764,2.391c0.044,0.753-0.106,1.529-0.27,2.273c-0.063,0.289-0.378,0.551-0.634,0.754
			c-0.075,0.061-0.443-0.073-0.502-0.199c-0.127-0.275-0.17-0.601-0.197-0.91c-0.061-0.688-0.051-1.387-0.146-2.07
			c-0.073-0.53-0.636-0.822-1.298-0.766c-0.512,0.044-0.965,0.488-1.024,1.008c-0.074,0.652-0.171,1.303-0.212,1.958
			c-0.033,0.521-0.058,0.993-0.554,1.347c-0.208,0.148-0.307,0.358-0.632,0.292c-0.361-0.072-0.437-0.318-0.477-0.598
			C280.927,287.663,280.952,287.44,280.952,287.221z"/>
	</g>
	<g>
	</g>
</g>
</svg>
