<?xml version="1.0" encoding="utf-8"?>
<!-- Generator: Adobe Illustrator 16.0.3, SVG Export Plug-In . SVG Version: 6.00 Build 0)  -->
<!DOCTYPE svg PUBLIC "-//W3C//DTD SVG 1.1//EN" "http://www.w3.org/Graphics/SVG/1.1/DTD/svg11.dtd">
<svg version="1.1" id="Ebene_1" xmlns="http://www.w3.org/2000/svg" xmlns:xlink="http://www.w3.org/1999/xlink" x="0px" y="0px"
	 width="566.93px" height="566.93px" viewBox="0 0 566.93 566.93" enable-background="new 0 0 566.93 566.93" xml:space="preserve">
<g>
	<g opacity="0.5">
		<path fill-rule="evenodd" clip-rule="evenodd" fill="#FFFFFF" d="M279.12,283.596c0-2.06,0.006-4.12-0.007-6.18
			c-0.002-0.287,0.047-0.376,0.361-0.375c2.84,0.015,5.68,0.013,8.52,0.002c0.287-0.001,0.376,0.047,0.375,0.361
			c-0.014,4.12-0.012,8.24-0.003,12.359c0.001,0.287-0.047,0.377-0.36,0.375c-2.84-0.016-5.68-0.014-8.521-0.002
			c-0.286,0.001-0.377-0.047-0.375-0.361C279.128,287.715,279.12,285.656,279.12,283.596z M284.517,281.653
			c-0.026-0.001-0.054-0.002-0.08-0.004c-0.053-0.601-0.06-1.212-0.183-1.798c-0.042-0.199-0.36-0.418-0.586-0.467
			c-0.12-0.026-0.45,0.292-0.453,0.458c-0.015,0.855,0.033,1.713,0.083,2.568c0.084,1.429,0.051,2.832-0.598,4.161
			c-0.241,0.492,0.175,0.741,0.534,0.887c0.316,0.128,0.684,0.116,0.783-0.352c0.083-0.388,0.183-0.774,0.228-1.168
			c0.105-0.915,0.199-1.832,0.265-2.751C284.547,282.678,284.517,282.165,284.517,281.653z"/>
		<path fill-rule="evenodd" clip-rule="evenodd" d="M284.517,281.653c0,0.512,0.03,1.025-0.007,1.534
			c-0.065,0.919-0.159,1.836-0.265,2.751c-0.045,0.394-0.145,0.78-0.228,1.168c-0.099,0.468-0.467,0.479-0.783,0.352
			c-0.359-0.146-0.775-0.395-0.534-0.887c0.648-1.329,0.682-2.732,0.598-4.161c-0.05-0.855-0.098-1.713-0.083-2.568
			c0.003-0.167,0.333-0.484,0.453-0.458c0.227,0.048,0.544,0.268,0.586,0.467c0.123,0.586,0.13,1.197,0.183,1.798
			C284.463,281.65,284.49,281.651,284.517,281.653z"/>
	</g>
	<g>
	</g>
</g>
</svg>
