<?xml version="1.0" encoding="utf-8"?>
<!-- Generator: Adobe Illustrator 16.0.3, SVG Export Plug-In . SVG Version: 6.00 Build 0)  -->
<!DOCTYPE svg PUBLIC "-//W3C//DTD SVG 1.1//EN" "http://www.w3.org/Graphics/SVG/1.1/DTD/svg11.dtd">
<svg version="1.1" id="Ebene_1" xmlns="http://www.w3.org/2000/svg" xmlns:xlink="http://www.w3.org/1999/xlink" x="0px" y="0px"
	 width="566.93px" height="566.93px" viewBox="0 0 566.93 566.93" enable-background="new 0 0 566.93 566.93" xml:space="preserve">
<g>
	<g opacity="0.5">
		<path fill-rule="evenodd" clip-rule="evenodd" fill="#FFFFFF" d="M286.96,283.656c0,2.037-0.007,4.074,0.007,6.11
			c0.002,0.291-0.053,0.375-0.362,0.373c-2.037-0.018-4.074-0.014-6.111-0.004c-0.266,0.001-0.385-0.016-0.384-0.351
			c0.016-4.134,0.013-8.268,0.003-12.401c0-0.272,0.04-0.345,0.333-0.343c2.057,0.018,4.114,0.02,6.17-0.001
			c0.339-0.004,0.35,0.124,0.349,0.386C286.956,279.502,286.96,281.579,286.96,283.656z M284.71,283.279
			c0.018-0.727-0.622-1.274-1.165-1.083c-0.554,0.195-0.623,0.693-0.625,1.161c-0.005,0.967,0.053,1.934,0.082,2.901
			c0.011,0.345-0.088,0.736,0.047,1.019c0.124,0.258,0.506,0.566,0.755,0.551c0.418-0.026,0.72-0.364,0.715-0.865
			c-0.009-0.777-0.026-1.556,0.007-2.332C284.547,284.147,284.654,283.668,284.71,283.279z M284.576,279.916
			c-0.008-0.51-0.353-0.68-0.778-0.687c-0.522-0.009-0.82,0.323-0.827,0.815c-0.007,0.451,0.286,0.727,0.754,0.734
			C284.215,280.787,284.582,280.4,284.576,279.916z"/>
		<path fill-rule="evenodd" clip-rule="evenodd" d="M284.71,283.279c-0.056,0.389-0.163,0.868-0.184,1.351
			c-0.033,0.776-0.016,1.555-0.007,2.332c0.005,0.501-0.297,0.839-0.715,0.865c-0.25,0.016-0.632-0.293-0.755-0.551
			c-0.135-0.282-0.036-0.674-0.047-1.019c-0.029-0.967-0.087-1.934-0.082-2.901c0.002-0.468,0.072-0.966,0.625-1.161
			C284.088,282.005,284.728,282.552,284.71,283.279z"/>
		<path fill-rule="evenodd" clip-rule="evenodd" d="M284.576,279.916c0.006,0.484-0.361,0.871-0.851,0.863
			c-0.469-0.008-0.761-0.283-0.754-0.734c0.007-0.493,0.305-0.825,0.827-0.815C284.224,279.236,284.568,279.406,284.576,279.916z"/>
	</g>
	<g>
	</g>
</g>
</svg>
