<?xml version="1.0" encoding="utf-8"?>
<!-- Generator: Adobe Illustrator 16.0.3, SVG Export Plug-In . SVG Version: 6.00 Build 0)  -->
<!DOCTYPE svg PUBLIC "-//W3C//DTD SVG 1.1//EN" "http://www.w3.org/Graphics/SVG/1.1/DTD/svg11.dtd">
<svg version="1.1" id="Ebene_1" xmlns="http://www.w3.org/2000/svg" xmlns:xlink="http://www.w3.org/1999/xlink" x="0px" y="0px"
	 width="566.93px" height="566.93px" viewBox="0 0 566.93 566.93" enable-background="new 0 0 566.93 566.93" xml:space="preserve">
<g>
	<g opacity="0.5">
		<path fill-rule="evenodd" clip-rule="evenodd" fill="#FFFFFF" d="M276.12,283.85c0-2.48,0.006-4.96-0.008-7.44
			c-0.002-0.3,0.067-0.369,0.368-0.368c4.52,0.011,9.04,0.011,13.56,0c0.3-0.001,0.368,0.068,0.367,0.368
			c-0.011,4.96-0.011,9.919,0,14.879c0.001,0.3-0.067,0.369-0.367,0.368c-4.521-0.012-9.04-0.012-13.56,0
			c-0.3,0.001-0.37-0.067-0.368-0.368C276.126,288.81,276.12,286.33,276.12,283.85z M283.078,289.968
			c1.069-0.038,1.697-0.405,1.88-1.311c0.193-0.955,0.23-1.943,0.33-2.917c0.02-0.196,0.009-0.395,0.024-0.592
			c0.061-0.76,0.143-1.519,0.185-2.28c0.05-0.892,0.073-1.785,0.095-2.678c0.014-0.555,0.04-1.115-0.018-1.664
			c-0.018-0.17-0.292-0.431-0.452-0.434c-0.158-0.002-0.432,0.249-0.464,0.424c-0.189,1.023-0.385,2.052-0.463,3.088
			c-0.15,2.004-0.21,4.015-0.337,6.021c-0.053,0.843-0.588,1.224-1.392,0.995c-1.026-0.291-1.92-0.768-2.3-1.88
			c-0.044-0.128-0.279-0.234-0.439-0.258c-0.066-0.01-0.262,0.25-0.237,0.345c0.104,0.401,0.253,0.795,0.416,1.179
			C280.53,289.479,281.846,289.999,283.078,289.968z"/>
		<path fill-rule="evenodd" clip-rule="evenodd" d="M283.078,289.968c-1.232,0.03-2.548-0.489-3.172-1.963
			c-0.163-0.384-0.312-0.777-0.416-1.179c-0.025-0.095,0.171-0.354,0.237-0.345c0.16,0.023,0.396,0.13,0.439,0.258
			c0.38,1.112,1.274,1.589,2.3,1.88c0.804,0.229,1.338-0.152,1.392-0.995c0.126-2.006,0.187-4.017,0.337-6.021
			c0.078-1.036,0.273-2.064,0.463-3.088c0.032-0.175,0.306-0.426,0.464-0.424c0.16,0.003,0.435,0.264,0.452,0.434
			c0.058,0.549,0.031,1.109,0.018,1.664c-0.021,0.893-0.045,1.786-0.095,2.678c-0.042,0.761-0.124,1.521-0.185,2.28
			c-0.016,0.197-0.005,0.396-0.024,0.592c-0.1,0.974-0.137,1.962-0.33,2.917C284.774,289.563,284.146,289.93,283.078,289.968z"/>
	</g>
	<g>
	</g>
</g>
</svg>
