<?xml version="1.0" encoding="utf-8"?>
<!-- Generator: Adobe Illustrator 16.0.3, SVG Export Plug-In . SVG Version: 6.00 Build 0)  -->
<!DOCTYPE svg PUBLIC "-//W3C//DTD SVG 1.1//EN" "http://www.w3.org/Graphics/SVG/1.1/DTD/svg11.dtd">
<svg version="1.1" id="Ebene_1" xmlns="http://www.w3.org/2000/svg" xmlns:xlink="http://www.w3.org/1999/xlink" x="0px" y="0px"
	 width="566.93px" height="566.93px" viewBox="0 0 566.93 566.93" enable-background="new 0 0 566.93 566.93" xml:space="preserve">
<g>
	<g opacity="0.5">
		<path fill-rule="evenodd" clip-rule="evenodd" fill="#FFFFFF" d="M287.88,283.214c0,2.557-0.005,5.114,0.007,7.67
			c0.001,0.286-0.047,0.376-0.361,0.374c-2.676-0.016-5.353-0.012-8.03-0.004c-0.261,0-0.387-0.008-0.386-0.348
			c0.015-5.174,0.013-10.348,0.004-15.521c0-0.266,0.031-0.347,0.331-0.345c2.697,0.017,5.393,0.018,8.09,0
			c0.334-0.002,0.352,0.117,0.351,0.383C287.877,278.021,287.88,280.617,287.88,283.214z M282.077,287.909
			c-0.268-0.104-0.573,0.137-0.532,0.463c0.043,0.343,0.293,0.875,0.551,0.94c1.481,0.376,2.787-0.31,3-1.945
			c0.162-1.254,0.256-2.519,0.336-3.781c0.061-0.961,0.062-1.925,0.071-2.889c0.003-0.337-0.579-0.885-0.908-0.897
			c-0.314-0.012-0.965,0.514-0.974,0.828c-0.017,0.611-0.029,1.225,0.01,1.834c0.039,0.597,0.196,1.189,0.207,1.786
			c0.016,0.833-0.099,1.67-0.072,2.503c0.014,0.422-0.063,0.765-0.358,1.027c-0.155,0.139-0.393,0.22-0.603,0.249
			C282.618,288.052,282.417,287.97,282.077,287.909z M284.297,278.682c0.479-0.016,0.935-0.395,0.786-0.751
			c-0.154-0.369-0.478-0.696-0.796-0.956c-0.138-0.112-0.884,0.819-0.866,1.084C283.444,278.406,283.854,278.697,284.297,278.682z"
			/>
		<path fill-rule="evenodd" clip-rule="evenodd" d="M282.077,287.909c0.34,0.062,0.541,0.144,0.728,0.118
			c0.21-0.029,0.448-0.11,0.603-0.249c0.295-0.263,0.373-0.605,0.358-1.027c-0.027-0.833,0.087-1.67,0.072-2.503
			c-0.011-0.597-0.168-1.189-0.207-1.786c-0.04-0.609-0.027-1.223-0.01-1.834c0.009-0.313,0.659-0.84,0.974-0.828
			c0.329,0.013,0.911,0.561,0.908,0.897c-0.01,0.963-0.011,1.928-0.071,2.889c-0.08,1.262-0.174,2.527-0.336,3.781
			c-0.213,1.636-1.519,2.321-3,1.945c-0.257-0.065-0.507-0.598-0.551-0.94C281.504,288.045,281.809,287.805,282.077,287.909z"/>
		<path fill-rule="evenodd" clip-rule="evenodd" d="M284.297,278.682c-0.443,0.015-0.853-0.276-0.876-0.623
			c-0.018-0.265,0.729-1.196,0.866-1.084c0.318,0.26,0.642,0.587,0.796,0.956C285.231,278.288,284.776,278.667,284.297,278.682z"/>
	</g>
	<g>
	</g>
</g>
</svg>
