<?xml version="1.0" encoding="utf-8"?>
<!-- Generator: Adobe Illustrator 16.0.3, SVG Export Plug-In . SVG Version: 6.00 Build 0)  -->
<!DOCTYPE svg PUBLIC "-//W3C//DTD SVG 1.1//EN" "http://www.w3.org/Graphics/SVG/1.1/DTD/svg11.dtd">
<svg version="1.1" id="Ebene_1" xmlns="http://www.w3.org/2000/svg" xmlns:xlink="http://www.w3.org/1999/xlink" x="0px" y="0px"
	 width="566.93px" height="566.93px" viewBox="0 0 566.93 566.93" enable-background="new 0 0 566.93 566.93" xml:space="preserve">
<g>
	<g opacity="0.5">
		<path fill-rule="evenodd" clip-rule="evenodd" fill="#FFFFFF" d="M289.12,283.89c0,2.12-0.007,4.24,0.008,6.36
			c0.002,0.3-0.068,0.368-0.368,0.367c-3.76-0.012-7.52-0.012-11.28,0c-0.3,0.001-0.369-0.067-0.368-0.367
			c0.011-4.28,0.011-8.56,0-12.84c-0.001-0.3,0.068-0.369,0.368-0.368c3.76,0.012,7.52,0.012,11.28,0
			c0.3-0.001,0.37,0.067,0.368,0.368C289.113,279.57,289.12,281.73,289.12,283.89z M279.963,282.048c0,0.666,0,1.166,0,1.665
			c0.001,0.517,0.016,1.034-0.001,1.55c-0.006,0.172-0.104,0.339-0.143,0.512c-0.064,0.285-0.144,0.572-0.166,0.862
			c-0.03,0.407,0.128,0.698,0.588,0.744c0.444,0.045,0.804-0.022,0.892-0.55c0.131-0.794,0.225-1.589,0.814-2.233
			c0.291-0.318,0.476-0.431,0.706,0c0.459,0.857,0.925,1.71,1.356,2.581c0.243,0.492,0.661,0.679,1.181,0.448
			c0.436-0.192,0.67-0.797,0.446-1.205c-0.522-0.958-1.045-1.916-1.593-2.859c-0.398-0.686-0.352-0.845,0.313-1.316
			c0.502-0.357,0.977-0.762,1.416-1.195c0.391-0.384,0.126-0.798-0.132-1.117c-0.061-0.075-0.49,0.031-0.644,0.171
			c-0.966,0.887-1.899,1.808-2.85,2.712c-0.137,0.13-0.306,0.227-0.46,0.339c-0.077-0.217-0.199-0.429-0.225-0.651
			c-0.091-0.792-0.112-1.594-0.246-2.377c-0.04-0.236-0.357-0.425-0.547-0.636c-0.188,0.23-0.494,0.439-0.541,0.696
			C280.009,280.852,280.003,281.536,279.963,282.048z"/>
		<path fill-rule="evenodd" clip-rule="evenodd" d="M279.963,282.048c0.04-0.513,0.045-1.196,0.166-1.859
			c0.047-0.256,0.353-0.465,0.541-0.696c0.19,0.21,0.507,0.4,0.547,0.636c0.133,0.784,0.154,1.585,0.246,2.377
			c0.026,0.223,0.147,0.435,0.225,0.651c0.154-0.112,0.323-0.209,0.46-0.339c0.951-0.904,1.884-1.826,2.85-2.712
			c0.153-0.14,0.583-0.246,0.644-0.171c0.258,0.319,0.522,0.733,0.132,1.117c-0.439,0.433-0.914,0.838-1.416,1.195
			c-0.665,0.471-0.711,0.63-0.313,1.316c0.548,0.943,1.07,1.901,1.593,2.859c0.224,0.408-0.011,1.013-0.446,1.205
			c-0.52,0.23-0.938,0.044-1.181-0.448c-0.431-0.871-0.897-1.724-1.356-2.581c-0.23-0.431-0.415-0.318-0.706,0
			c-0.59,0.645-0.683,1.439-0.814,2.233c-0.088,0.527-0.447,0.595-0.892,0.55c-0.46-0.046-0.619-0.337-0.588-0.744
			c0.021-0.29,0.101-0.577,0.166-0.862c0.039-0.173,0.137-0.34,0.143-0.512c0.018-0.517,0.002-1.033,0.001-1.55
			C279.963,283.214,279.963,282.714,279.963,282.048z"/>
	</g>
	<g>
	</g>
</g>
</svg>
