<?xml version="1.0" encoding="utf-8"?>
<!-- Generator: Adobe Illustrator 16.0.3, SVG Export Plug-In . SVG Version: 6.00 Build 0)  -->
<!DOCTYPE svg PUBLIC "-//W3C//DTD SVG 1.1//EN" "http://www.w3.org/Graphics/SVG/1.1/DTD/svg11.dtd">
<svg version="1.1" id="Ebene_1" xmlns="http://www.w3.org/2000/svg" xmlns:xlink="http://www.w3.org/1999/xlink" x="0px" y="0px"
	 width="566.93px" height="566.93px" viewBox="0 0 566.93 566.93" enable-background="new 0 0 566.93 566.93" xml:space="preserve">
<g>
	<g opacity="0.5">
		<path fill-rule="evenodd" clip-rule="evenodd" fill="#FFFFFF" d="M278.12,276.05c3.64,0,7.28,0,10.92,0c0,4.84,0,9.68,0,14.52
			c-3.64,0-7.28,0-10.92,0C278.12,285.73,278.12,280.89,278.12,276.05z M284.245,284.103c0.335-0.283,0.698-0.664,1.132-0.934
			c0.372-0.231,0.444-0.563,0.573-0.917c0.129-0.355-0.077-0.506-0.289-0.688c-0.244-0.21-0.464-0.061-0.65,0.072
			c-0.289,0.205-0.553,0.446-0.818,0.682c-0.335,0.297-0.646,0.623-0.996,0.901c-0.157,0.125-0.382,0.167-0.576,0.246
			c-0.05-0.201-0.141-0.403-0.139-0.604c0.002-0.231,0.123-0.462,0.127-0.694c0.015-0.842,0.006-1.684,0-2.526
			c-0.001-0.198,0.029-0.427-0.058-0.587c-0.122-0.224-0.354-0.571-0.511-0.556c-0.32,0.03-0.792,0.193-0.893,0.431
			c-0.188,0.449-0.209,0.99-0.205,1.492c0.006,0.65,0.146,1.298,0.156,1.949c0.012,0.814-0.041,1.629-0.08,2.443
			c-0.019,0.388-0.083,0.772-0.102,1.16c-0.027,0.543-0.118,1.099,0.061,1.622c0.081,0.234,0.282,0.489,0.498,0.596
			c0.14,0.068,0.476-0.055,0.595-0.199c0.148-0.179,0.209-0.465,0.229-0.711c0.044-0.579,0.062-1.164,0.048-1.745
			c-0.006-0.275,0.073-0.415,0.338-0.459c0.272-0.045,0.342,0.15,0.407,0.344c0.075,0.223,0.089,0.485,0.218,0.668
			c0.464,0.653,0.958,1.285,1.458,1.912c0.094,0.117,0.257,0.19,0.401,0.251c0.072,0.03,0.209,0.02,0.259-0.03
			c0.168-0.168,0.326-0.351,0.453-0.55c0.052-0.081,0.062-0.247,0.012-0.324c-0.26-0.405-0.55-0.792-0.817-1.192
			c-0.063-0.095-0.093-0.219-0.113-0.333c-0.05-0.279-0.033-0.583-0.14-0.836C284.7,284.693,284.476,284.444,284.245,284.103z"/>
		<path fill-rule="evenodd" clip-rule="evenodd" d="M284.245,284.103c0.23,0.341,0.455,0.59,0.577,0.882
			c0.106,0.253,0.09,0.557,0.14,0.836c0.021,0.114,0.051,0.238,0.113,0.333c0.268,0.4,0.558,0.787,0.817,1.192
			c0.05,0.077,0.04,0.243-0.012,0.324c-0.127,0.199-0.285,0.382-0.453,0.55c-0.05,0.05-0.187,0.061-0.259,0.03
			c-0.145-0.061-0.308-0.134-0.401-0.251c-0.5-0.627-0.994-1.259-1.458-1.912c-0.129-0.183-0.143-0.445-0.218-0.668
			c-0.065-0.193-0.134-0.389-0.407-0.344c-0.265,0.044-0.345,0.184-0.338,0.459c0.014,0.581-0.003,1.166-0.048,1.745
			c-0.019,0.246-0.08,0.532-0.229,0.711c-0.12,0.145-0.455,0.268-0.595,0.199c-0.215-0.106-0.417-0.361-0.498-0.596
			c-0.179-0.523-0.087-1.079-0.061-1.622c0.02-0.388,0.083-0.772,0.102-1.16c0.039-0.814,0.092-1.629,0.08-2.443
			c-0.01-0.65-0.149-1.299-0.156-1.949c-0.005-0.502,0.016-1.043,0.205-1.492c0.1-0.238,0.573-0.401,0.893-0.431
			c0.157-0.015,0.389,0.332,0.511,0.556c0.086,0.16,0.056,0.389,0.058,0.587c0.006,0.842,0.016,1.685,0,2.526
			c-0.004,0.232-0.125,0.463-0.127,0.694c-0.002,0.201,0.089,0.403,0.139,0.604c0.194-0.079,0.419-0.12,0.576-0.246
			c0.35-0.278,0.661-0.604,0.996-0.901c0.266-0.236,0.529-0.477,0.818-0.682c0.187-0.133,0.406-0.282,0.65-0.072
			c0.212,0.182,0.418,0.333,0.289,0.688c-0.129,0.354-0.201,0.687-0.573,0.917C284.943,283.439,284.58,283.82,284.245,284.103z"/>
	</g>
	<g>
	</g>
</g>
</svg>
