<?xml version="1.0" encoding="utf-8"?>
<!-- Generator: Adobe Illustrator 16.0.3, SVG Export Plug-In . SVG Version: 6.00 Build 0)  -->
<!DOCTYPE svg PUBLIC "-//W3C//DTD SVG 1.1//EN" "http://www.w3.org/Graphics/SVG/1.1/DTD/svg11.dtd">
<svg version="1.1" id="Ebene_1" xmlns="http://www.w3.org/2000/svg" xmlns:xlink="http://www.w3.org/1999/xlink" x="0px" y="0px"
	 width="566.93px" height="566.93px" viewBox="0 0 566.93 566.93" enable-background="new 0 0 566.93 566.93" xml:space="preserve">
<g>
	<g opacity="0.5">
		<path fill-rule="evenodd" clip-rule="evenodd" fill="#FFFFFF" d="M289.24,290.846c-4.033,0-8.066,0-12.109,0
			c0-4.584,0-9.171,0-13.777c4.029,0,8.069,0,12.109,0C289.24,281.654,289.24,286.249,289.24,290.846z M282.167,282.599
			c-0.042-0.002-0.085-0.005-0.128-0.007c0-0.473,0.08-0.964-0.027-1.412c-0.077-0.321-0.408-0.829-0.615-0.824
			c-0.507,0.012-0.714,0.438-0.656,0.979c0.056,0.52-0.005,1.055,0.074,1.569c0.26,1.677-0.188,3.294-0.346,4.936
			c-0.011,0.118,0.204,0.357,0.33,0.37c0.527,0.051,1.063,0.074,1.592,0.039c1.261-0.086,2.522-0.19,3.777-0.337
			c0.229-0.027,0.442-0.282,0.637-0.46c0.04-0.037-0.011-0.274-0.063-0.293c-0.342-0.12-0.693-0.278-1.046-0.287
			c-1.103-0.029-2.208,0.03-3.309-0.018c-0.196-0.009-0.545-0.38-0.536-0.568C281.912,285.055,282.052,283.828,282.167,282.599z"/>
		<path fill-rule="evenodd" clip-rule="evenodd" d="M282.167,282.599c-0.114,1.229-0.255,2.456-0.316,3.688
			c-0.009,0.188,0.34,0.56,0.536,0.568c1.101,0.048,2.206-0.012,3.309,0.018c0.353,0.009,0.704,0.167,1.046,0.287
			c0.053,0.019,0.104,0.256,0.063,0.293c-0.194,0.178-0.407,0.433-0.637,0.46c-1.255,0.146-2.516,0.251-3.777,0.337
			c-0.529,0.035-1.065,0.012-1.592-0.039c-0.126-0.013-0.341-0.252-0.33-0.37c0.157-1.642,0.605-3.259,0.346-4.936
			c-0.08-0.514-0.019-1.049-0.074-1.569c-0.058-0.541,0.149-0.967,0.656-0.979c0.208-0.005,0.539,0.502,0.615,0.824
			c0.106,0.447,0.027,0.939,0.027,1.412C282.081,282.594,282.124,282.597,282.167,282.599z"/>
	</g>
	<g>
	</g>
</g>
</svg>
