<?xml version="1.0" encoding="utf-8"?>
<!-- Generator: Adobe Illustrator 16.0.3, SVG Export Plug-In . SVG Version: 6.00 Build 0)  -->
<!DOCTYPE svg PUBLIC "-//W3C//DTD SVG 1.1//EN" "http://www.w3.org/Graphics/SVG/1.1/DTD/svg11.dtd">
<svg version="1.1" id="Ebene_1" xmlns="http://www.w3.org/2000/svg" xmlns:xlink="http://www.w3.org/1999/xlink" x="0px" y="0px"
	 width="566.93px" height="566.93px" viewBox="0 0 566.93 566.93" enable-background="new 0 0 566.93 566.93" xml:space="preserve">
<g>
	<g opacity="0.5">
		<path fill-rule="evenodd" clip-rule="evenodd" fill="#FFFFFF" d="M288.555,290.53c-3.514,0-7.028,0-10.56,0
			c0-4.367,0.003-8.736-0.007-13.104c0-0.271,0.04-0.344,0.333-0.343c3.411,0.014,6.823,0.009,10.234,0.009
			C288.555,281.579,288.555,286.053,288.555,290.53z M281.477,286.744c-0.005,0.001-0.01,0.001-0.015,0.002
			c0.012,0.138,0.025,0.276,0.037,0.414c0.089,1.038,0.91,1.592,1.889,1.241c0.416-0.149,0.841-0.331,1.186-0.597
			c0.176-0.136,0.234-0.485,0.249-0.744c0.006-0.116-0.214-0.338-0.346-0.351c-0.209-0.02-0.436,0.082-0.643,0.163
			c-0.08,0.031-0.109,0.179-0.189,0.221c-0.147,0.075-0.344,0.188-0.464,0.142c-0.125-0.048-0.247-0.262-0.259-0.412
			c-0.056-0.696-0.118-1.397-0.093-2.094c0.025-0.684-0.085-1.355,0.01-2.058c0.075-0.558,0.27-1.148,0.114-1.765
			c-0.177-0.696-0.042-1.445-0.512-2.103c-0.258-0.362-0.491-0.354-0.793-0.227c-0.373,0.158-0.7,0.391-0.647,0.871
			c0.048,0.439,0.154,0.874,0.174,1.313c0.033,0.741-0.011,1.485,0.03,2.225C281.272,284.239,281.383,285.491,281.477,286.744z"/>
		<path fill-rule="evenodd" clip-rule="evenodd" d="M281.477,286.744c-0.094-1.253-0.205-2.505-0.274-3.758
			c-0.041-0.74,0.003-1.484-0.03-2.225c-0.02-0.439-0.126-0.874-0.174-1.313c-0.053-0.48,0.274-0.713,0.647-0.871
			c0.302-0.128,0.535-0.135,0.793,0.227c0.471,0.658,0.335,1.407,0.512,2.103c0.156,0.616-0.039,1.207-0.114,1.765
			c-0.095,0.703,0.015,1.375-0.01,2.058c-0.025,0.696,0.037,1.397,0.093,2.094c0.012,0.15,0.135,0.364,0.259,0.412
			c0.121,0.047,0.317-0.066,0.464-0.142c0.08-0.042,0.11-0.189,0.189-0.221c0.207-0.081,0.434-0.183,0.643-0.163
			c0.132,0.013,0.352,0.234,0.346,0.351c-0.015,0.259-0.073,0.608-0.249,0.744c-0.345,0.266-0.77,0.447-1.186,0.597
			c-0.979,0.351-1.8-0.203-1.889-1.241c-0.012-0.138-0.024-0.276-0.037-0.414C281.467,286.745,281.472,286.745,281.477,286.744z"/>
	</g>
	<g>
	</g>
</g>
</svg>
