<?xml version="1.0" encoding="utf-8"?>
<!-- Generator: Adobe Illustrator 16.0.3, SVG Export Plug-In . SVG Version: 6.00 Build 0)  -->
<!DOCTYPE svg PUBLIC "-//W3C//DTD SVG 1.1//EN" "http://www.w3.org/Graphics/SVG/1.1/DTD/svg11.dtd">
<svg version="1.1" id="Ebene_1" xmlns="http://www.w3.org/2000/svg" xmlns:xlink="http://www.w3.org/1999/xlink" x="0px" y="0px"
	 width="566.93px" height="566.93px" viewBox="0 0 566.93 566.93" enable-background="new 0 0 566.93 566.93" xml:space="preserve">
<g>
	<path fill-rule="evenodd" clip-rule="evenodd" d="M281.625,285.571c-0.104,0.984-0.185,1.855-0.256,2.843
		c-0.044,0.622-0.492,0.447-0.823,0.468c-0.431,0.027-0.447-0.263-0.418-0.606c0.101-1.175,0.208-2.35,0.257-3.527
		c0.046-1.104-0.011-2.213,0.048-3.315c0.019-0.355,0.213-0.732,0.424-1.032c0.083-0.119,0.535-0.158,0.636-0.055
		c0.53,0.544,1.01,1.139,1.492,1.729c0.426,0.521,0.815,1.074,1.269,1.569c0.053,0.058,0.466-0.105,0.611-0.261
		c0.658-0.702,1.282-1.436,1.914-2.163c0.073-0.084,0.173-0.19,0.173-0.287c-0.001-0.474,0.381-0.522,0.665-0.506
		c0.248,0.014,0.563,0.178,0.711,0.378c0.397,0.538,0.057,1.137,0.041,1.713c-0.038,1.433-0.04,2.866-0.065,4.299
		c-0.007,0.385-0.022,0.772-0.083,1.151c-0.021,0.127-0.049,0.32-0.064,0.477c-0.025,0.249,0,0.219-0.078,0.469
		s-0.117,0.349-0.334,0.337c-0.321-0.018-0.638-0.158-0.953-0.258c-0.042-0.014-0.087-0.116-0.089-0.136
		c-0.093-0.912,0.017-1.209,0.032-1.881c0.015-0.642,0.082-1.328,0.128-1.984c0.025-0.373,0.027-0.752-0.002-1.125
		c-0.01-0.137-0.114-0.305-0.228-0.38c-0.061-0.04-0.26,0.062-0.349,0.148c-0.27,0.266-0.523,0.548-0.77,0.836
		c-0.704,0.824-1.648,0.891-2.455,0.154c-0.324-0.296-0.63-0.61-0.952-0.91c-0.088-0.083-0.203-0.138-0.305-0.205
		c-0.031,0.108-0.083,0.216-0.09,0.326c-0.033,0.539-0.055,1.078-0.081,1.617C281.646,285.455,281.612,285.569,281.625,285.571z"/>
</g>
</svg>
