<?xml version="1.0" encoding="utf-8"?>
<!-- Generator: Adobe Illustrator 16.0.3, SVG Export Plug-In . SVG Version: 6.00 Build 0)  -->
<!DOCTYPE svg PUBLIC "-//W3C//DTD SVG 1.1//EN" "http://www.w3.org/Graphics/SVG/1.1/DTD/svg11.dtd">
<svg version="1.1" id="Ebene_1" xmlns="http://www.w3.org/2000/svg" xmlns:xlink="http://www.w3.org/1999/xlink" x="0px" y="0px"
	 width="566.93px" height="566.93px" viewBox="0 0 566.93 566.93" enable-background="new 0 0 566.93 566.93" xml:space="preserve">
<g>
	<path fill-rule="evenodd" clip-rule="evenodd" d="M283.337,284.723c-0.101-0.526-0.186-1.057-0.315-1.576
		c-0.028-0.114-0.236-0.28-0.329-0.262c-0.29,0.057-0.714,0.113-0.817,0.31c-0.377,0.722-0.669,1.492-0.942,2.263
		c-0.105,0.297-0.076,0.642-0.107,0.964c-0.004,0.04-0.114,0.168-0.131,0.178c-0.329,0.181-0.522,0.357-0.876,0.435
		c-0.134,0.029-0.489-0.306-0.506-0.495c-0.072-0.833-0.019-1.676-0.086-2.509c-0.053-0.657-0.29-1.304-0.297-1.957
		c-0.003-0.297,0.29-0.692,0.562-0.877c0.537-0.366,0.892,0.005,1.15,0.472c0.061,0.11,0.111,0.227,0.166,0.34
		c0.109-0.076,0.247-0.13,0.324-0.231c0.701-0.914,2.408-0.92,3.101,0.022c0.332,0.452,0.465,0.611,1.031,0.118
		c0.508-0.442,1.379-0.653,2.08-0.63c0.656,0.021,1.238,1.544,1.092,2.371c-0.047,0.267-0.07,0.535-0.094,0.797
		c-0.031,0.37-0.031,0.781-0.029,1.125c0.006,1.09,0.016,1.424-0.975,1.679c-0.063,0.017-0.227-0.118-0.238-0.196
		c-0.084-0.621-0.166-1.244-0.201-1.869c-0.031-0.56,0.021-1.124-0.014-1.683c-0.012-0.162-0.168-0.399-0.309-0.447
		c-0.166-0.057-0.432-0.003-0.582,0.104c-0.891,0.631-0.859,1.674-1.119,2.589c-0.133,0.47,0.162,1.175-0.637,1.298
		c-0.523,0.081-0.916-0.143-0.963-0.705c-0.044-0.532,0.038-0.931,0.038-1.466C283.336,284.876,283.313,284.73,283.337,284.723z"/>
</g>
</svg>
