<?xml version="1.0" encoding="utf-8"?>
<!-- Generator: Adobe Illustrator 16.0.3, SVG Export Plug-In . SVG Version: 6.00 Build 0)  -->
<!DOCTYPE svg PUBLIC "-//W3C//DTD SVG 1.1//EN" "http://www.w3.org/Graphics/SVG/1.1/DTD/svg11.dtd">
<svg version="1.1" id="Ebene_1" xmlns="http://www.w3.org/2000/svg" xmlns:xlink="http://www.w3.org/1999/xlink" x="0px" y="0px"
	 width="566.93px" height="566.93px" viewBox="0 0 566.93 566.93" enable-background="new 0 0 566.93 566.93" xml:space="preserve">
<g>
	<g opacity="0.5">
		<path fill-rule="evenodd" clip-rule="evenodd" fill="#FFFFFF" d="M277.12,276.05c4.36,0,8.72,0,13.08,0c0,4.88,0,9.76,0,14.64
			c-4.36,0-8.72,0-13.08,0C277.12,285.81,277.12,280.93,277.12,276.05z M286.19,279.971c0,0.32-0.019,0.695,0.003,1.068
			c0.085,1.455,0.184,2.909,0.271,4.364c0.006,0.105-0.017,0.289-0.068,0.306c-0.113,0.038-0.301,0.04-0.375-0.03
			c-0.209-0.197-0.415-0.418-0.553-0.667c-0.382-0.688-0.661-1.442-1.106-2.084c-0.554-0.798-1.221-1.519-1.863-2.253
			c-0.452-0.517-1.103-0.421-1.609-0.237c-0.245,0.089-0.411,0.679-0.431,1.051c-0.069,1.289-0.058,2.582-0.08,3.874
			c-0.01,0.614-0.054,1.229-0.022,1.841c0.009,0.178,0.224,0.485,0.345,0.486c0.232,0,0.604-0.123,0.669-0.291
			c0.131-0.338,0.083-0.741,0.129-1.114c0.125-0.994,0.253-1.987,0.397-2.979c0.019-0.132,0.107-0.294,0.214-0.358
			c0.06-0.036,0.257,0.072,0.334,0.164c0.444,0.528,0.895,1.052,1.298,1.612c0.576,0.799,1.115,1.623,1.664,2.441
			c0.371,0.554,0.951,0.831,1.544,0.748c0.537-0.075,0.597-0.644,0.553-1.142c-0.003-0.035,0.043-0.072,0.045-0.109
			c0.042-0.868,0.108-1.736,0.113-2.605s-0.06-1.739-0.078-2.609c-0.009-0.398,0.132-0.836,0.006-1.186
			C287.341,279.568,286.801,279.561,286.19,279.971z"/>
		<path fill-rule="evenodd" clip-rule="evenodd" d="M286.19,279.971c0.61-0.41,1.15-0.402,1.398,0.292
			c0.126,0.349-0.015,0.788-0.006,1.186c0.019,0.87,0.083,1.74,0.078,2.609s-0.071,1.737-0.113,2.605
			c-0.002,0.037-0.048,0.074-0.045,0.109c0.044,0.498-0.016,1.066-0.553,1.142c-0.593,0.083-1.173-0.194-1.544-0.748
			c-0.549-0.818-1.088-1.643-1.664-2.441c-0.403-0.56-0.854-1.084-1.298-1.612c-0.077-0.092-0.274-0.2-0.334-0.164
			c-0.107,0.064-0.195,0.226-0.214,0.358c-0.144,0.991-0.272,1.984-0.397,2.979c-0.046,0.373,0.002,0.776-0.129,1.114
			c-0.065,0.168-0.437,0.291-0.669,0.291c-0.121-0.001-0.335-0.309-0.345-0.486c-0.031-0.611,0.012-1.227,0.022-1.841
			c0.022-1.292,0.01-2.585,0.08-3.874c0.02-0.373,0.186-0.962,0.431-1.051c0.506-0.184,1.157-0.28,1.609,0.237
			c0.642,0.734,1.309,1.455,1.863,2.253c0.445,0.642,0.725,1.396,1.106,2.084c0.138,0.249,0.344,0.47,0.553,0.667
			c0.074,0.07,0.262,0.068,0.375,0.03c0.052-0.017,0.074-0.2,0.068-0.306c-0.087-1.455-0.186-2.909-0.271-4.364
			C286.172,280.666,286.19,280.291,286.19,279.971z"/>
	</g>
	<g>
	</g>
</g>
</svg>
