<?xml version="1.0" encoding="utf-8"?>
<!-- Generator: Adobe Illustrator 16.0.3, SVG Export Plug-In . SVG Version: 6.00 Build 0)  -->
<!DOCTYPE svg PUBLIC "-//W3C//DTD SVG 1.1//EN" "http://www.w3.org/Graphics/SVG/1.1/DTD/svg11.dtd">
<svg version="1.1" id="Ebene_1" xmlns="http://www.w3.org/2000/svg" xmlns:xlink="http://www.w3.org/1999/xlink" x="0px" y="0px"
	 width="566.93px" height="566.93px" viewBox="0 0 566.93 566.93" enable-background="new 0 0 566.93 566.93" xml:space="preserve">
<g>
	<g opacity="0.5">
		<path fill-rule="evenodd" clip-rule="evenodd" fill="#FFFFFF" d="M289.64,288.61c-3.84,0-7.68,0-11.52,0c0-3.52,0-7.04,0-10.56
			c3.84,0,7.68,0,11.52,0C289.64,281.57,289.64,285.09,289.64,288.61z M281.857,281.808c-0.044-0.364-0.007-0.593-0.103-0.726
			c-0.192-0.266-0.47-0.683-0.688-0.668c-0.349,0.023-0.689,0.274-0.625,0.829c0.091,0.776,0.043,1.568,0.063,2.353
			c0.018,0.73,0.017,1.463,0.094,2.188c0.016,0.146,0.345,0.364,0.53,0.365c0.657,0.003,0.795-0.443,0.765-1.014
			c-0.088-1.654,1.567-3.213,3.234-3.092c0.452,0.033,0.641,0.261,0.637,0.618c-0.01,0.939-0.095,1.878-0.116,2.818
			c-0.007,0.302-0.009,0.757,0.166,0.876c0.286,0.192,0.721,0.207,1.092,0.202c0.084-0.001,0.22-0.385,0.234-0.6
			c0.066-0.939-0.01-1.903,0.173-2.817c0.171-0.853-0.045-1.517-0.531-2.141c-0.137-0.175-0.412-0.313-0.638-0.337
			C284.648,280.509,283.205,280.63,281.857,281.808z"/>
		<path fill-rule="evenodd" clip-rule="evenodd" d="M281.857,281.808c1.348-1.177,2.792-1.298,4.287-1.146
			c0.226,0.023,0.501,0.162,0.638,0.337c0.486,0.624,0.702,1.288,0.531,2.141c-0.183,0.914-0.106,1.878-0.173,2.817
			c-0.015,0.215-0.15,0.599-0.234,0.6c-0.371,0.005-0.806-0.01-1.092-0.202c-0.175-0.119-0.173-0.574-0.166-0.876
			c0.021-0.94,0.106-1.879,0.116-2.818c0.004-0.357-0.185-0.585-0.637-0.618c-1.667-0.122-3.323,1.438-3.234,3.092
			c0.03,0.57-0.107,1.017-0.765,1.014c-0.186-0.001-0.515-0.22-0.53-0.365c-0.077-0.725-0.076-1.458-0.094-2.188
			c-0.019-0.785,0.028-1.577-0.063-2.353c-0.064-0.555,0.276-0.806,0.625-0.829c0.218-0.015,0.497,0.402,0.688,0.668
			C281.85,281.214,281.813,281.443,281.857,281.808z"/>
	</g>
	<g>
	</g>
</g>
</svg>
