<?xml version="1.0" encoding="utf-8"?>
<!-- Generator: Adobe Illustrator 16.0.3, SVG Export Plug-In . SVG Version: 6.00 Build 0)  -->
<!DOCTYPE svg PUBLIC "-//W3C//DTD SVG 1.1//EN" "http://www.w3.org/Graphics/SVG/1.1/DTD/svg11.dtd">
<svg version="1.1" id="Ebene_1" xmlns="http://www.w3.org/2000/svg" xmlns:xlink="http://www.w3.org/1999/xlink" x="0px" y="0px"
	 width="566.93px" height="566.93px" viewBox="0 0 566.93 566.93" enable-background="new 0 0 566.93 566.93" xml:space="preserve">
<g>
	<g opacity="0.5">
		<path fill-rule="evenodd" clip-rule="evenodd" fill="#FFFFFF" d="M283.301,289.411c-1.917,0-3.835,0.009-5.753-0.018
			c-0.145-0.002-0.409-0.256-0.41-0.394c-0.022-3.855-0.022-7.711-0.001-11.566c0-0.128,0.247-0.366,0.38-0.367
			c3.855-0.02,7.711-0.02,11.565,0c0.134,0,0.381,0.237,0.382,0.365c0.021,3.875,0.02,7.75,0.001,11.626
			c0,0.118-0.228,0.336-0.351,0.337C287.177,289.417,285.238,289.411,283.301,289.411z M286.753,283.044
			c0.025-1.821-1.198-3.474-2.602-3.514c-2.254-0.064-3.778,1.696-3.845,4.44c-0.046,1.894,1.272,3.643,2.763,3.666
			C285.225,287.67,286.713,285.815,286.753,283.044z"/>
		<path fill-rule="evenodd" clip-rule="evenodd" d="M286.753,283.044c-0.04,2.771-1.528,4.626-3.683,4.592
			c-1.491-0.023-2.81-1.772-2.763-3.666c0.066-2.744,1.59-4.504,3.845-4.44C285.555,279.57,286.778,281.223,286.753,283.044z
			 M283.53,286.185c1.659-0.077,2.169-1.045,1.964-4.19c-0.022-0.343-0.944-0.892-1.448-0.892c-1.841,0.002-2.319,1.331-2.14,2.838
			C282.017,284.873,281.859,286.274,283.53,286.185z"/>
		<path fill-rule="evenodd" clip-rule="evenodd" fill="#FFFFFF" d="M283.53,286.185c-1.67,0.089-1.513-1.313-1.624-2.243
			c-0.179-1.507,0.299-2.836,2.14-2.838c0.504,0,1.426,0.548,1.448,0.892C285.699,285.14,285.188,286.108,283.53,286.185z"/>
	</g>
	<g>
	</g>
</g>
</svg>
