<?xml version="1.0" encoding="utf-8"?>
<!-- Generator: Adobe Illustrator 16.0.3, SVG Export Plug-In . SVG Version: 6.00 Build 0)  -->
<!DOCTYPE svg PUBLIC "-//W3C//DTD SVG 1.1//EN" "http://www.w3.org/Graphics/SVG/1.1/DTD/svg11.dtd">
<svg version="1.1" id="Ebene_1" xmlns="http://www.w3.org/2000/svg" xmlns:xlink="http://www.w3.org/1999/xlink" x="0px" y="0px"
	 width="566.93px" height="566.93px" viewBox="0 0 566.93 566.93" enable-background="new 0 0 566.93 566.93" xml:space="preserve">
<g>
	<g opacity="0.5">
		<path fill-rule="evenodd" clip-rule="evenodd" fill="#FFFFFF" d="M288.439,288.61c-3.439,0-6.879,0-10.319,0
			c0-3.52,0-7.04,0-10.56c3.44,0,6.88,0,10.319,0C288.439,281.57,288.439,285.09,288.439,288.61z M285.866,282.28
			c-0.143-0.934-0.229-1.698-1.07-2.189c-1.624-0.948-3.837-0.157-4.449,1.639c-0.343,1.009-0.28,1.987,0.084,2.968
			c0.253,0.682,0.695,1.137,1.385,1.434c0.835,0.359,1.583,0.11,2.294-0.223c0.883-0.412,1.627-1,1.654-2.124
			C285.777,283.241,285.836,282.699,285.866,282.28z"/>
		<path fill-rule="evenodd" clip-rule="evenodd" d="M285.866,282.28c-0.03,0.419-0.089,0.961-0.102,1.505
			c-0.027,1.124-0.771,1.712-1.654,2.124c-0.711,0.333-1.459,0.582-2.294,0.223c-0.689-0.297-1.131-0.752-1.385-1.434
			c-0.365-0.98-0.428-1.959-0.084-2.968c0.611-1.796,2.825-2.587,4.449-1.639C285.637,280.582,285.724,281.346,285.866,282.28z
			 M284.593,282.822c-0.07-0.252-0.101-0.83-0.375-1.245c-0.449-0.679-1.761-0.527-2.135,0.209
			c-0.211,0.415-0.367,0.879-0.436,1.338c-0.19,1.257,0.729,2.011,1.911,1.61C284.386,284.454,284.536,284.213,284.593,282.822z"/>
		<path fill-rule="evenodd" clip-rule="evenodd" fill="#FFFFFF" d="M284.593,282.822c-0.057,1.391-0.207,1.631-1.035,1.913
			c-1.182,0.401-2.101-0.353-1.911-1.61c0.069-0.459,0.225-0.924,0.436-1.338c0.374-0.736,1.686-0.889,2.135-0.209
			C284.492,281.993,284.522,282.57,284.593,282.822z"/>
	</g>
	<g>
	</g>
</g>
</svg>
