<?xml version="1.0" encoding="utf-8"?>
<!-- Generator: Adobe Illustrator 16.0.3, SVG Export Plug-In . SVG Version: 6.00 Build 0)  -->
<!DOCTYPE svg PUBLIC "-//W3C//DTD SVG 1.1//EN" "http://www.w3.org/Graphics/SVG/1.1/DTD/svg11.dtd">
<svg version="1.1" id="Ebene_1" xmlns="http://www.w3.org/2000/svg" xmlns:xlink="http://www.w3.org/1999/xlink" x="0px" y="0px"
	 width="566.93px" height="566.93px" viewBox="0 0 566.93 566.93" enable-background="new 0 0 566.93 566.93" xml:space="preserve">
<g>
	<g opacity="0.5">
		<path fill-rule="evenodd" clip-rule="evenodd" fill="#FFFFFF" d="M278.12,277.05c3.52,0,7.04,0,10.56,0c0,4.28,0,8.56,0,12.839
			c-3.52,0-7.04,0-10.56,0C278.12,285.61,278.12,281.33,278.12,277.05z M282.681,284.311c0.236-0.023,0.486-0.005,0.705-0.08
			c0.674-0.232,1.372-0.438,1.991-0.781c0.375-0.208,0.761-0.602,0.896-0.997c0.261-0.761,0.241-1.588-0.355-2.229
			c-0.587-0.632-1.305-1.023-2.225-0.825c-0.671,0.145-1.325,0.276-2.011-0.054c-0.432-0.208-0.796,0.089-0.819,0.583
			c-0.022,0.469,0.051,0.946,0,1.41c-0.049,0.452-0.2,0.893-0.31,1.337c-0.095,0.384-0.391,0.868-0.256,1.131
			c0.354,0.687,0.201,1.33,0.125,2.006c-0.046,0.406-0.063,0.824-0.016,1.228c0.021,0.176,0.217,0.438,0.366,0.462
			c0.15,0.025,0.387-0.161,0.505-0.315c0.477-0.624,0.516-1.38,0.557-2.123C281.875,284.338,281.963,284.239,282.681,284.311z"/>
		<path fill-rule="evenodd" clip-rule="evenodd" d="M282.681,284.311c-0.718-0.072-0.806,0.027-0.847,0.753
			c-0.042,0.743-0.08,1.499-0.557,2.123c-0.119,0.154-0.355,0.341-0.505,0.315c-0.149-0.024-0.345-0.286-0.366-0.462
			c-0.047-0.403-0.03-0.821,0.016-1.228c0.076-0.677,0.229-1.319-0.125-2.006c-0.135-0.263,0.161-0.747,0.256-1.131
			c0.11-0.444,0.261-0.885,0.31-1.337c0.051-0.464-0.023-0.941,0-1.41c0.023-0.494,0.388-0.791,0.819-0.583
			c0.686,0.331,1.339,0.199,2.011,0.054c0.92-0.199,1.638,0.193,2.225,0.825c0.597,0.641,0.616,1.468,0.355,2.229
			c-0.135,0.395-0.521,0.789-0.896,0.997c-0.619,0.343-1.316,0.549-1.991,0.781C283.167,284.306,282.917,284.288,282.681,284.311z
			 M282.249,283.186c0.849,0.241,1.27,0.131,2.385-0.447c0.461-0.239,0.616-0.629,0.631-1.026c0.017-0.462-0.675-1.056-1.137-1.04
			c-0.531,0.018-1.065,0.089-1.583,0.203c-0.145,0.032-0.293,0.277-0.345,0.453c-0.104,0.35-0.143,0.719-0.221,1.148
			C282.028,282.604,282.12,282.845,282.249,283.186z"/>
		<path fill-rule="evenodd" clip-rule="evenodd" fill="#FFFFFF" d="M282.249,283.186c-0.129-0.341-0.221-0.582-0.27-0.71
			c0.078-0.429,0.117-0.798,0.221-1.148c0.052-0.175,0.2-0.421,0.345-0.453c0.518-0.113,1.052-0.185,1.583-0.203
			c0.462-0.016,1.153,0.578,1.137,1.04c-0.015,0.397-0.17,0.787-0.631,1.026C283.519,283.317,283.098,283.427,282.249,283.186z"/>
	</g>
	<g>
	</g>
</g>
</svg>
