<?xml version="1.0" encoding="utf-8"?>
<!-- Generator: Adobe Illustrator 16.0.3, SVG Export Plug-In . SVG Version: 6.00 Build 0)  -->
<!DOCTYPE svg PUBLIC "-//W3C//DTD SVG 1.1//EN" "http://www.w3.org/Graphics/SVG/1.1/DTD/svg11.dtd">
<svg version="1.1" id="Ebene_1" xmlns="http://www.w3.org/2000/svg" xmlns:xlink="http://www.w3.org/1999/xlink" x="0px" y="0px"
	 width="566.93px" height="566.93px" viewBox="0 0 566.93 566.93" enable-background="new 0 0 566.93 566.93" xml:space="preserve">
<g>
	<g opacity="0.5">
		<path fill-rule="evenodd" clip-rule="evenodd" fill="#FFFFFF" d="M278.12,283.33c0-2.28,0.004-4.56-0.005-6.84
			c-0.001-0.303-0.01-0.458,0.405-0.455c3.18,0.026,6.36,0.022,9.54,0.003c0.354-0.002,0.389,0.1,0.388,0.411
			c-0.011,4.62-0.013,9.24,0.003,13.86c0.002,0.354-0.099,0.389-0.41,0.388c-3.181-0.013-6.36-0.016-9.54,0.003
			c-0.355,0.002-0.39-0.099-0.388-0.411C278.127,287.97,278.12,285.65,278.12,283.33z M286.868,281.502
			c-0.055-0.502-0.025-0.942-0.164-1.32c-0.176-0.478-0.494-0.903-0.741-1.357c-0.292-0.539-1.217-0.946-1.789-0.741
			c-0.392,0.141-0.792,0.3-1.132,0.534c-0.336,0.231-0.577,0.245-0.809-0.087c-0.214-0.307-0.555-0.359-0.783-0.171
			c-0.233,0.192-0.414,0.531-0.47,0.833c-0.063,0.34,0.066,0.71,0.061,1.067c-0.012,0.862-0.043,1.724-0.086,2.584
			c-0.03,0.583-0.128,1.135-0.05,1.755c0.122,0.971-0.136,1.989-0.239,2.986c-0.04,0.386,0.465,0.959,0.785,0.839
			c0.43-0.16,0.856-0.353,0.887-0.927c0.042-0.789,0.147-1.577,0.153-2.366c0.006-0.877,0.093-1.006,0.941-1.083
			c0.957-0.086,1.837-0.403,2.557-1.047C286.455,282.584,286.772,282.05,286.868,281.502z"/>
		<path fill-rule="evenodd" clip-rule="evenodd" d="M286.868,281.502c-0.096,0.547-0.413,1.082-0.88,1.5
			c-0.72,0.645-1.601,0.961-2.557,1.047c-0.848,0.077-0.935,0.206-0.941,1.083c-0.006,0.789-0.111,1.577-0.153,2.366
			c-0.031,0.574-0.458,0.767-0.887,0.927c-0.32,0.12-0.825-0.453-0.785-0.839c0.103-0.997,0.361-2.016,0.239-2.986
			c-0.078-0.62,0.02-1.172,0.05-1.755c0.043-0.861,0.075-1.723,0.086-2.584c0.005-0.356-0.125-0.727-0.061-1.067
			c0.056-0.302,0.237-0.641,0.47-0.833c0.229-0.188,0.569-0.136,0.783,0.171c0.232,0.332,0.473,0.318,0.809,0.087
			c0.34-0.234,0.74-0.393,1.132-0.534c0.572-0.206,1.497,0.202,1.789,0.741c0.247,0.454,0.565,0.879,0.741,1.357
			C286.843,280.56,286.813,281,286.868,281.502z M283.242,282.863c0.599-0.136,1.363-0.315,1.868-0.908
			c0.439-0.516,0.052-1.092-0.12-1.629c-0.006-0.018,0.002-0.042-0.005-0.059c-0.175-0.432-0.808-0.652-1.137-0.352
			c-0.31,0.283-0.669,0.596-0.799,0.968c-0.174,0.5-0.451,0.986-0.323,1.604C282.79,282.796,282.805,282.892,283.242,282.863z"/>
		<path fill-rule="evenodd" clip-rule="evenodd" fill="#FFFFFF" d="M283.242,282.863c-0.437,0.029-0.452-0.066-0.516-0.376
			c-0.128-0.617,0.148-1.104,0.323-1.604c0.13-0.372,0.49-0.685,0.799-0.968c0.329-0.301,0.962-0.081,1.137,0.352
			c0.007,0.018-0.001,0.041,0.005,0.059c0.172,0.538,0.56,1.113,0.12,1.629C284.604,282.547,283.84,282.727,283.242,282.863z"/>
	</g>
	<g>
	</g>
</g>
</svg>
