<?xml version="1.0" encoding="utf-8"?>
<!-- Generator: Adobe Illustrator 16.0.3, SVG Export Plug-In . SVG Version: 6.00 Build 0)  -->
<!DOCTYPE svg PUBLIC "-//W3C//DTD SVG 1.1//EN" "http://www.w3.org/Graphics/SVG/1.1/DTD/svg11.dtd">
<svg version="1.1" id="Ebene_1" xmlns="http://www.w3.org/2000/svg" xmlns:xlink="http://www.w3.org/1999/xlink" x="0px" y="0px"
	 width="566.93px" height="566.93px" viewBox="0 0 566.93 566.93" enable-background="new 0 0 566.93 566.93" xml:space="preserve">
<g>
	<path fill-rule="evenodd" clip-rule="evenodd" d="M280.301,284.716c0.141-1.484,0.251-2.543,1.196-3.724
		c0.489-0.308,0.965-0.639,1.471-0.916c0.235-0.128,0.525-0.167,0.795-0.218c0.233-0.043,0.475-0.093,0.711-0.07
		c0.627,0.061,0.986,0.123,1.393,0.404c0.578,0.32,0.906,0.563,1.305,0.919c0.322,0.447,0.477,0.924,0.539,1.456
		c0.021,0.174,0.049,0.342,0.07,0.519c0.139,1.155,0.018,2.3-0.553,3.347c-0.111,0.205-0.596,0.549-0.74,0.74
		c-0.041,0.375,0.328,0.541,0.281,0.969c-0.174,0.059-0.699,0.332-1.063,0.453c-0.262-0.113-0.289-0.459-0.594-0.594
		c-0.51,0-1.145,0.074-1.638,0.039c-0.808-0.059-1.566-0.346-2.227-0.781c-0.5-0.328-0.608-0.928-0.758-1.486
		c-0.063-0.234-0.062-0.379-0.141-0.609C280.348,285.123,280.301,284.904,280.301,284.716z M282.928,281.698
		c-1.559,1.579-1.538,3.217-0.411,4.585c0.529,0.272,1.143,0.607,1.799,0.297c-0.031-0.23-0.201-0.469-0.234-0.715
		c0.227-0.357,0.488-0.666,1.029-0.633c0.295,0.197,0.377,0.504,0.658,0.754c0.5-0.375,0.797-0.631,0.811-1.045
		c0.033-1.076,0.141-2.176-0.73-3.103c-0.205-0.262-0.361-0.418-0.689-0.559c-0.344-0.125-0.422-0.156-0.807-0.136
		C283.848,281.201,283.332,281.373,282.928,281.698z"/>
</g>
</svg>
