<?xml version="1.0" encoding="utf-8"?>
<!-- Generator: Adobe Illustrator 16.0.3, SVG Export Plug-In . SVG Version: 6.00 Build 0)  -->
<!DOCTYPE svg PUBLIC "-//W3C//DTD SVG 1.1//EN" "http://www.w3.org/Graphics/SVG/1.1/DTD/svg11.dtd">
<svg version="1.1" id="Ebene_1" xmlns="http://www.w3.org/2000/svg" xmlns:xlink="http://www.w3.org/1999/xlink" x="0px" y="0px"
	 width="566.93px" height="566.93px" viewBox="0 0 566.93 566.93" enable-background="new 0 0 566.93 566.93" xml:space="preserve">
<g>
	<g opacity="0.5">
		<path fill-rule="evenodd" clip-rule="evenodd" fill="#FFFFFF" d="M278.12,283.263c0-2.28,0.004-4.56-0.005-6.84
			c-0.001-0.27,0.021-0.384,0.353-0.383c3.28,0.017,6.56,0.013,9.84,0.005c0.27,0,0.384,0.021,0.383,0.353
			c-0.015,4.56-0.012,9.121-0.005,13.68c0,0.271-0.021,0.385-0.353,0.383c-3.28-0.017-6.561-0.019-9.84,0.002
			c-0.371,0.002-0.381-0.122-0.379-0.419C278.125,287.783,278.12,285.523,278.12,283.263z M280.629,281.984
			c0.146,0.53,0.271,1.066,0.441,1.588c0.295,0.905,1.263,1.461,2.202,1.292c0.331-0.06,0.662-0.124,0.994-0.173
			c0.869-0.13,0.871-0.127,0.787,0.715c-0.063,0.635-0.151,1.268-0.191,1.903c-0.021,0.322-0.041,0.688,0.091,0.961
			c0.087,0.18,0.442,0.315,0.681,0.319c0.472,0.008,0.773-0.326,0.884-0.755c0.084-0.329,0.053-0.688,0.066-1.035
			c0.019-0.468,0.021-0.937,0.046-1.403c0.049-0.946,0.111-1.892,0.163-2.837c0.045-0.828,0.075-1.656,0.124-2.483
			c0.048-0.803-0.226-1.189-0.993-1.331c-0.383-0.07-0.771-0.124-1.158-0.156C282.618,278.408,280.758,279.601,280.629,281.984z"/>
		<path fill-rule="evenodd" clip-rule="evenodd" d="M280.629,281.984c0.129-2.384,1.989-3.576,4.136-3.395
			c0.388,0.033,0.775,0.086,1.158,0.156c0.768,0.141,1.041,0.528,0.993,1.331c-0.049,0.828-0.079,1.656-0.124,2.483
			c-0.052,0.946-0.114,1.891-0.163,2.837c-0.024,0.467-0.027,0.936-0.046,1.403c-0.014,0.347,0.018,0.706-0.066,1.035
			c-0.11,0.429-0.412,0.763-0.884,0.755c-0.238-0.004-0.594-0.14-0.681-0.319c-0.132-0.272-0.111-0.639-0.091-0.961
			c0.04-0.636,0.128-1.269,0.191-1.903c0.084-0.842,0.082-0.845-0.787-0.715c-0.332,0.049-0.663,0.113-0.994,0.173
			c-0.939,0.169-1.907-0.387-2.202-1.292C280.9,283.051,280.774,282.514,280.629,281.984z M284.271,280.067
			c-0.458,0.116-0.975,0.134-1.36,0.369c-0.751,0.458-1.016,2.236-0.437,2.912c0.212,0.248,0.679,0.435,1,0.397
			c0.565-0.066,1.387-0.052,1.521-0.714c0.159-0.783,0.014-1.634-0.037-2.453C284.936,280.189,284.663,280.051,284.271,280.067z"/>
		<path fill-rule="evenodd" clip-rule="evenodd" fill="#FFFFFF" d="M284.271,280.067c0.392-0.016,0.664,0.122,0.688,0.512
			c0.051,0.819,0.196,1.669,0.037,2.453c-0.134,0.662-0.956,0.647-1.521,0.714c-0.321,0.038-0.789-0.149-1-0.397
			c-0.579-0.676-0.314-2.454,0.437-2.912C283.296,280.201,283.814,280.183,284.271,280.067z"/>
	</g>
	<g>
	</g>
</g>
</svg>
