<?xml version="1.0" encoding="utf-8"?>
<!-- Generator: Adobe Illustrator 16.0.3, SVG Export Plug-In . SVG Version: 6.00 Build 0)  -->
<!DOCTYPE svg PUBLIC "-//W3C//DTD SVG 1.1//EN" "http://www.w3.org/Graphics/SVG/1.1/DTD/svg11.dtd">
<svg version="1.1" id="Ebene_1" xmlns="http://www.w3.org/2000/svg" xmlns:xlink="http://www.w3.org/1999/xlink" x="0px" y="0px"
	 width="566.93px" height="566.93px" viewBox="0 0 566.93 566.93" enable-background="new 0 0 566.93 566.93" xml:space="preserve">
<g>
	<path fill-rule="evenodd" clip-rule="evenodd" d="M280.967,285.354c0-1.367,0.029-2.734-0.011-4.101
		c-0.025-0.879,0.329-1.25,1.225-1.275c0.705-0.02,1.414-0.266,2.108-0.219c1.435,0.096,2.8,1.55,2.174,2.835
		c-0.166,0.341-0.5,0.609-0.787,0.879c-0.327,0.308-0.455,0.609-0.238,1.052c0.287,0.588,0.616,1.186,0.727,1.814
		c0.053,0.306-0.226,0.833-0.572,1.021c-0.154,0.084-0.435-0.029-0.599-0.145c-0.687-0.484-0.681-1.345-1.045-2.006
		c-0.164-0.297-0.39-0.736-0.635-0.771c-0.491-0.069-0.666,0.399-0.707,0.833c-0.046,0.487,0.026,0.997-0.089,1.464
		c-0.079,0.317-0.25,0.803-0.601,0.861c-0.415-0.012-0.691-0.499-0.795-0.825c-0.138-0.433-0.135-0.601-0.135-1.077
		C280.945,285.696,281.006,285.354,280.967,285.354z M283.559,281.329c-0.77,0.007-0.886,0.247-0.814,1.761
		c0.003,0.08,0.152,0.22,0.232,0.22c1.006-0.007,2.075-0.641,2.045-1.193C285.001,281.715,284.271,281.322,283.559,281.329z"/>
	<path fill-rule="evenodd" clip-rule="evenodd" fill="#FFFFFF" d="M283.606,281.235c0.711-0.007,1.442,0.386,1.463,0.787
		c0.029,0.552-1.039,1.187-2.045,1.193c-0.08,0-0.229-0.14-0.232-0.22C282.72,281.482,282.836,281.242,283.606,281.235z"/>
</g>
</svg>
