<?xml version="1.0" encoding="utf-8"?>
<!-- Generator: Adobe Illustrator 16.0.3, SVG Export Plug-In . SVG Version: 6.00 Build 0)  -->
<!DOCTYPE svg PUBLIC "-//W3C//DTD SVG 1.1//EN" "http://www.w3.org/Graphics/SVG/1.1/DTD/svg11.dtd">
<svg version="1.1" id="Ebene_1" xmlns="http://www.w3.org/2000/svg" xmlns:xlink="http://www.w3.org/1999/xlink" x="0px" y="0px"
	 width="566.93px" height="566.93px" viewBox="0 0 566.93 566.93" enable-background="new 0 0 566.93 566.93" xml:space="preserve">
<g>
	<g opacity="0.5">
		<path fill-rule="evenodd" clip-rule="evenodd" fill="#FFFFFF" d="M279.12,283.791c0-1.48,0.008-2.96-0.008-4.44
			c-0.003-0.258,0.05-0.309,0.308-0.308c2.88,0.012,5.76,0.012,8.641,0c0.258-0.001,0.309,0.05,0.308,0.308
			c-0.013,2.96-0.013,5.92,0,8.88c0.001,0.258-0.05,0.309-0.308,0.308c-2.881-0.012-5.76-0.012-8.641,0
			c-0.258,0.001-0.311-0.049-0.308-0.308C279.128,286.75,279.12,285.27,279.12,283.791z M284.671,280.314
			c-0.651-0.033-1.217,0.099-1.7,0.587c-0.163,0.166-0.464,0.275-0.699,0.271c-0.491-0.008-0.634,0.261-0.676,0.661
			c-0.107,1.013-0.253,2.024-0.291,3.04c-0.02,0.522-0.158,1.058,0.134,1.605c0.135,0.253,0.258,0.519,0.454,0.382
			c0.306-0.215,0.945,0.036,0.93-0.664c-0.009-0.428,0.071-0.863,0.156-1.285c0.16-0.785,0.299-1.582,0.557-2.335
			c0.103-0.298,0.464-0.611,0.774-0.708c0.461-0.146,0.992-0.053,1.47-0.166c0.271-0.064,0.704-0.35,0.693-0.511
			c-0.021-0.34-0.15-0.773-0.705-0.753C285.405,280.449,285.037,280.359,284.671,280.314z"/>
		<path fill-rule="evenodd" clip-rule="evenodd" d="M284.671,280.314c0.366,0.044,0.734,0.135,1.098,0.122
			c0.555-0.02,0.684,0.413,0.705,0.753c0.011,0.162-0.423,0.447-0.693,0.511c-0.478,0.113-1.009,0.021-1.47,0.166
			c-0.31,0.098-0.671,0.411-0.774,0.708c-0.258,0.753-0.397,1.55-0.557,2.335c-0.085,0.422-0.166,0.857-0.156,1.285
			c0.015,0.7-0.625,0.449-0.93,0.664c-0.195,0.137-0.319-0.129-0.454-0.382c-0.292-0.548-0.154-1.083-0.134-1.605
			c0.038-1.015,0.183-2.027,0.291-3.04c0.042-0.399,0.186-0.669,0.676-0.661c0.235,0.004,0.536-0.105,0.699-0.271
			C283.454,280.413,284.02,280.281,284.671,280.314z"/>
	</g>
	<g>
	</g>
</g>
</svg>
