<?xml version="1.0" encoding="utf-8"?>
<!-- Generator: Adobe Illustrator 16.0.3, SVG Export Plug-In . SVG Version: 6.00 Build 0)  -->
<!DOCTYPE svg PUBLIC "-//W3C//DTD SVG 1.1//EN" "http://www.w3.org/Graphics/SVG/1.1/DTD/svg11.dtd">
<svg version="1.1" id="Ebene_1" xmlns="http://www.w3.org/2000/svg" xmlns:xlink="http://www.w3.org/1999/xlink" x="0px" y="0px"
	 width="566.93px" height="566.93px" viewBox="0 0 566.93 566.93" enable-background="new 0 0 566.93 566.93" xml:space="preserve">
<g>
	<g opacity="0.5">
		<path fill-rule="evenodd" clip-rule="evenodd" fill="#FFFFFF" d="M278.12,283.38c0-1.998,0.005-3.995-0.006-5.992
			c-0.001-0.26,0.022-0.349,0.328-0.348c3.476,0.016,6.951,0.014,10.426,0.002c0.271-0.001,0.298,0.077,0.298,0.316
			c-0.009,4.035-0.009,8.07,0,12.104c0,0.24-0.027,0.316-0.298,0.315c-3.476-0.012-6.951-0.014-10.427,0.002
			c-0.307,0.002-0.329-0.089-0.328-0.348C278.125,287.415,278.12,285.397,278.12,283.38z M282.55,280.285
			c-0.404,0.115-0.811,0.176-1.165,0.346c-0.384,0.185-0.704,1.068-0.503,1.346c0.555,0.77,1.163,1.465,2.093,1.853
			c0.923,0.385,1.854,0.816,2.323,1.823c0.146,0.313,0.152,0.596-0.186,0.676c-0.53,0.126-1.083,0.179-1.629,0.209
			c-0.455,0.024-0.854-0.113-1.112-0.559c-0.087-0.15-0.304-0.245-0.481-0.32c-0.228-0.096-0.901,0.396-0.824,0.615
			c0.099,0.285,0.243,0.616,0.472,0.783c1.286,0.937,2.695,1.123,4.177,0.517c1.372-0.563,1.641-2.333,0.469-3.283
			c-0.666-0.54-1.43-0.959-2.146-1.438c-0.371-0.248-0.749-0.487-1.095-0.767c-0.178-0.144-0.232-0.292,0.124-0.349
			c0.378-0.061,0.741-0.148,1.129-0.077c0.538,0.098,1.111,0.009,1.593,0.385c0.278,0.217,0.465,0.104,0.545-0.249
			c0.142-0.627-0.134-1.168-0.759-1.249C284.576,280.42,283.57,280.37,282.55,280.285z"/>
		<path fill-rule="evenodd" clip-rule="evenodd" d="M282.55,280.285c1.02,0.085,2.026,0.136,3.022,0.263
			c0.625,0.081,0.9,0.621,0.759,1.249c-0.08,0.352-0.267,0.465-0.545,0.249c-0.481-0.376-1.055-0.287-1.593-0.385
			c-0.388-0.071-0.751,0.016-1.129,0.077c-0.356,0.057-0.302,0.205-0.124,0.349c0.346,0.279,0.724,0.519,1.095,0.767
			c0.717,0.479,1.48,0.897,2.146,1.438c1.172,0.95,0.903,2.721-0.469,3.283c-1.481,0.606-2.891,0.42-4.177-0.517
			c-0.229-0.167-0.373-0.498-0.472-0.783c-0.077-0.22,0.597-0.711,0.824-0.615c0.177,0.075,0.394,0.17,0.481,0.32
			c0.258,0.445,0.658,0.583,1.112,0.559c0.546-0.03,1.099-0.083,1.629-0.209c0.338-0.08,0.331-0.363,0.186-0.676
			c-0.469-1.007-1.399-1.438-2.323-1.823c-0.93-0.388-1.538-1.083-2.093-1.853c-0.201-0.278,0.12-1.162,0.503-1.346
			C281.739,280.46,282.146,280.399,282.55,280.285z"/>
	</g>
	<g>
	</g>
</g>
</svg>
