<?xml version="1.0" encoding="utf-8"?>
<!-- Generator: Adobe Illustrator 16.0.3, SVG Export Plug-In . SVG Version: 6.00 Build 0)  -->
<!DOCTYPE svg PUBLIC "-//W3C//DTD SVG 1.1//EN" "http://www.w3.org/Graphics/SVG/1.1/DTD/svg11.dtd">
<svg version="1.1" id="Ebene_1" xmlns="http://www.w3.org/2000/svg" xmlns:xlink="http://www.w3.org/1999/xlink" x="0px" y="0px"
	 width="566.93px" height="566.93px" viewBox="0 0 566.93 566.93" enable-background="new 0 0 566.93 566.93" xml:space="preserve">
<g>
	<g opacity="0.5">
		<path fill-rule="evenodd" clip-rule="evenodd" fill="#FFFFFF" d="M279.12,284.002c0-1.878,0.003-3.757-0.005-5.635
			c-0.001-0.221-0.005-0.328,0.287-0.327c3.057,0.015,6.115,0.013,9.172,0.002c0.236,0,0.271,0.067,0.271,0.281
			c-0.007,3.757-0.011,7.514,0.005,11.271c0.001,0.323-0.107,0.341-0.369,0.34c-3.018-0.008-6.036-0.009-9.053,0.001
			c-0.24,0.001-0.318-0.027-0.316-0.298C279.127,287.759,279.12,285.881,279.12,284.002z M284.517,280.937
			c-0.951-0.098-1.606,0.171-2.597,0.967c-0.42,0.336-0.49,0.571-0.251,1.03c0.275,0.53,0.624,1.001,1.199,1.273
			c0.483,0.229,0.947,0.505,1.401,0.789c0.268,0.168,0.521,0.372,0.743,0.597c0.195,0.198,0.141,0.411-0.12,0.517
			c-0.452,0.183-0.939,0.253-1.398,0.096c-0.4-0.137-0.909-0.226-0.911-0.834c0-0.071-0.062-0.146-0.107-0.211
			c-0.13-0.184-0.395-0.228-0.578-0.101c-0.244,0.168-0.502,0.865-0.368,1.12c0.146,0.277,0.334,0.54,0.542,0.777
			c0.49,0.559,1.202,0.621,1.86,0.676c0.768,0.063,1.519-0.14,2.227-0.481c0.258-0.124,0.508-0.215,0.577-0.532
			c0.128-0.585,0.156-1.146-0.326-1.607c-0.3-0.287-0.604-0.572-0.888-0.875c-0.253-0.269-0.557-0.423-0.895-0.567
			c-0.375-0.16-0.709-0.424-1.039-0.672c-0.117-0.087-0.231-0.312,0.009-0.375c0.32-0.084,0.666-0.125,0.996-0.104
			c0.275,0.018,0.547,0.138,0.527,0.523c-0.004,0.095,0.069,0.239,0.15,0.286c0.276,0.16,0.555,0.051,0.786-0.105
			c0.218-0.147,0.485-0.275,0.449-0.639c-0.069-0.698-0.649-1.406-1.332-1.541C284.963,280.902,284.736,280.937,284.517,280.937z"/>
		<path fill-rule="evenodd" clip-rule="evenodd" d="M284.517,280.937c0.22,0,0.446-0.035,0.657,0.006
			c0.683,0.135,1.263,0.843,1.332,1.541c0.036,0.364-0.231,0.491-0.449,0.639c-0.231,0.156-0.51,0.265-0.786,0.105
			c-0.081-0.047-0.154-0.191-0.15-0.286c0.02-0.385-0.252-0.505-0.527-0.523c-0.33-0.021-0.676,0.02-0.996,0.104
			c-0.24,0.063-0.125,0.288-0.009,0.375c0.33,0.248,0.664,0.512,1.039,0.672c0.338,0.145,0.642,0.298,0.895,0.567
			c0.284,0.303,0.588,0.588,0.888,0.875c0.482,0.462,0.454,1.022,0.326,1.607c-0.069,0.317-0.319,0.408-0.577,0.532
			c-0.708,0.342-1.459,0.545-2.227,0.481c-0.658-0.055-1.37-0.117-1.86-0.676c-0.207-0.237-0.396-0.5-0.542-0.777
			c-0.134-0.255,0.124-0.952,0.368-1.12c0.184-0.127,0.448-0.083,0.578,0.101c0.045,0.064,0.106,0.14,0.107,0.211
			c0.002,0.608,0.511,0.697,0.911,0.834c0.459,0.157,0.946,0.087,1.398-0.096c0.261-0.105,0.315-0.318,0.12-0.517
			c-0.223-0.225-0.476-0.429-0.743-0.597c-0.455-0.284-0.918-0.56-1.401-0.789c-0.575-0.272-0.924-0.743-1.199-1.273
			c-0.238-0.459-0.168-0.693,0.251-1.03C282.911,281.108,283.566,280.839,284.517,280.937z"/>
	</g>
	<g>
	</g>
</g>
</svg>
