<?xml version="1.0" encoding="utf-8"?>
<!-- Generator: Adobe Illustrator 16.0.3, SVG Export Plug-In . SVG Version: 6.00 Build 0)  -->
<!DOCTYPE svg PUBLIC "-//W3C//DTD SVG 1.1//EN" "http://www.w3.org/Graphics/SVG/1.1/DTD/svg11.dtd">
<svg version="1.1" id="Ebene_1" xmlns="http://www.w3.org/2000/svg" xmlns:xlink="http://www.w3.org/1999/xlink" x="0px" y="0px"
	 width="566.93px" height="566.93px" viewBox="0 0 566.93 566.93" enable-background="new 0 0 566.93 566.93" xml:space="preserve">
<g>
	<g opacity="0.5">
		<path fill-rule="evenodd" clip-rule="evenodd" fill="#FFFFFF" d="M278.12,278.05c3.88,0,7.76,0,11.64,0c0,3.88,0,7.76,0,11.64
			c-3.88,0-7.76,0-11.64,0C278.12,285.81,278.12,281.93,278.12,278.05z M281.812,281.645c0,0.007,0.001,0.015,0.001,0.023
			c0.237-0.017,0.475-0.04,0.712-0.048c0.385-0.013,0.579,0.201,0.592,0.579c0.029,0.797,0.084,1.593,0.119,2.391
			c0.028,0.633,0.035,1.267,0.063,1.9c0.023,0.531,0.045,1.063,0.106,1.592c0.013,0.114,0.179,0.281,0.295,0.301
			c0.387,0.064,1.135-0.717,1.139-1.125c0.009-0.933,0.034-1.866,0.05-2.799c0.002-0.096-0.014-0.191-0.02-0.286
			c-0.048-0.764-0.105-1.527-0.139-2.292c-0.011-0.24,0.14-0.338,0.393-0.329c0.438,0.017,0.879,0.013,1.317-0.007
			c0.357-0.016,0.528-0.262,0.564-0.587c0.035-0.319-0.12-0.563-0.445-0.605c-0.545-0.071-1.096-0.148-1.643-0.137
			c-1.307,0.026-2.613,0.1-3.919,0.159c-0.372,0.017-0.729,0.328-0.742,0.629c-0.019,0.417,0.228,0.671,0.718,0.692
			C281.253,281.709,281.533,281.664,281.812,281.645z"/>
		<path fill-rule="evenodd" clip-rule="evenodd" d="M281.812,281.645c-0.279,0.019-0.559,0.064-0.837,0.052
			c-0.491-0.021-0.737-0.276-0.718-0.692c0.013-0.301,0.37-0.612,0.742-0.629c1.306-0.059,2.612-0.133,3.919-0.159
			c0.547-0.011,1.098,0.065,1.643,0.137c0.325,0.042,0.48,0.287,0.445,0.605c-0.036,0.325-0.207,0.571-0.564,0.587
			c-0.438,0.02-0.879,0.023-1.317,0.007c-0.253-0.009-0.403,0.089-0.393,0.329c0.033,0.764,0.091,1.527,0.139,2.292
			c0.006,0.095,0.021,0.19,0.02,0.286c-0.016,0.933-0.041,1.866-0.05,2.799c-0.004,0.408-0.752,1.189-1.139,1.125
			c-0.116-0.02-0.282-0.187-0.295-0.301c-0.061-0.528-0.083-1.061-0.106-1.592c-0.027-0.634-0.035-1.268-0.063-1.9
			c-0.035-0.797-0.09-1.593-0.119-2.391c-0.014-0.378-0.208-0.592-0.592-0.579c-0.238,0.008-0.475,0.031-0.712,0.048
			C281.813,281.66,281.813,281.652,281.812,281.645z"/>
	</g>
	<g>
	</g>
</g>
</svg>
