<?xml version="1.0" encoding="utf-8"?>
<!-- Generator: Adobe Illustrator 16.0.3, SVG Export Plug-In . SVG Version: 6.00 Build 0)  -->
<!DOCTYPE svg PUBLIC "-//W3C//DTD SVG 1.1//EN" "http://www.w3.org/Graphics/SVG/1.1/DTD/svg11.dtd">
<svg version="1.1" id="Ebene_1" xmlns="http://www.w3.org/2000/svg" xmlns:xlink="http://www.w3.org/1999/xlink" x="0px" y="0px"
	 width="566.93px" height="566.93px" viewBox="0 0 566.93 566.93" enable-background="new 0 0 566.93 566.93" xml:space="preserve">
<g>
	<g opacity="0.5">
		<path fill-rule="evenodd" clip-rule="evenodd" fill="#FFFFFF" d="M288.08,283.65c0,2.04-0.008,4.08,0.008,6.12
			c0.002,0.301-0.068,0.369-0.368,0.368c-3.08-0.013-6.16-0.013-9.24,0c-0.3,0.001-0.369-0.068-0.368-0.368
			c0.011-4.12,0.011-8.24,0-12.36c-0.001-0.3,0.067-0.369,0.368-0.368c3.08,0.013,6.16,0.013,9.24,0
			c0.3-0.001,0.37,0.067,0.368,0.368C288.073,279.49,288.08,281.57,288.08,283.65z M283.174,279.876
			c-0.005-0.083,0.004-0.306-0.035-0.519c-0.086-0.467-0.363-0.671-0.774-0.601c-0.429,0.073-0.735,0.472-0.728,0.859
			c0.012,0.642-0.008,1.286-0.042,1.927c-0.005,0.098-0.138,0.223-0.242,0.274c-0.272,0.135-0.561,0.239-0.844,0.351
			c-0.272,0.107-0.45,0.26-0.283,0.577c0.167,0.317,0.333,0.661,0.766,0.636c0.568-0.033,0.573-0.048,0.599,0.512
			c0.011,0.238-0.022,0.478-0.016,0.716c0.024,0.867,0.026,1.747,0.414,2.544c0.273,0.563,0.798,0.953,1.388,0.568
			c0.503-0.328,1.052-0.589,1.55-0.924c0.163-0.109,0.273-0.347,0.334-0.548c0.094-0.313-0.112-0.512-0.418-0.402
			c-0.347,0.125-0.681,0.292-1.004,0.469c-0.443,0.242-0.525,0.177-0.689-0.297c-0.29-0.839-0.08-1.691-0.136-2.535
			c-0.007-0.101,0.183-0.255,0.314-0.317c0.654-0.309,1.319-0.03,1.979,0c0.338,0.016,0.604,0.015,0.633-0.413
			c0.032-0.467-0.144-0.651-0.582-0.704c-0.611-0.072-1.218-0.185-1.823-0.294c-0.278-0.05-0.469-0.178-0.43-0.525
			C283.151,280.828,283.149,280.419,283.174,279.876z"/>
		<path fill-rule="evenodd" clip-rule="evenodd" d="M283.174,279.876c-0.025,0.542-0.023,0.952-0.069,1.355
			c-0.039,0.347,0.152,0.475,0.43,0.525c0.605,0.11,1.211,0.222,1.823,0.294c0.438,0.052,0.614,0.237,0.582,0.704
			c-0.029,0.427-0.295,0.428-0.633,0.413c-0.659-0.031-1.325-0.31-1.979,0c-0.131,0.062-0.321,0.216-0.314,0.317
			c0.056,0.843-0.154,1.696,0.136,2.535c0.164,0.474,0.247,0.539,0.689,0.297c0.324-0.177,0.658-0.344,1.004-0.469
			c0.306-0.109,0.512,0.089,0.418,0.402c-0.061,0.201-0.171,0.438-0.334,0.548c-0.498,0.335-1.047,0.596-1.55,0.924
			c-0.589,0.385-1.114-0.006-1.388-0.568c-0.388-0.797-0.39-1.677-0.414-2.544c-0.006-0.238,0.027-0.479,0.016-0.716
			c-0.026-0.56-0.031-0.544-0.599-0.512c-0.433,0.025-0.599-0.319-0.766-0.636c-0.167-0.317,0.01-0.47,0.283-0.577
			c0.283-0.112,0.572-0.215,0.844-0.351c0.104-0.051,0.237-0.177,0.242-0.274c0.034-0.641,0.054-1.285,0.042-1.927
			c-0.007-0.388,0.299-0.786,0.728-0.859c0.411-0.07,0.688,0.134,0.774,0.601C283.179,279.571,283.169,279.793,283.174,279.876z"/>
	</g>
	<g>
	</g>
</g>
</svg>
