<?xml version="1.0" encoding="utf-8"?>
<!-- Generator: Adobe Illustrator 16.0.3, SVG Export Plug-In . SVG Version: 6.00 Build 0)  -->
<!DOCTYPE svg PUBLIC "-//W3C//DTD SVG 1.1//EN" "http://www.w3.org/Graphics/SVG/1.1/DTD/svg11.dtd">
<svg version="1.1" id="Ebene_1" xmlns="http://www.w3.org/2000/svg" xmlns:xlink="http://www.w3.org/1999/xlink" x="0px" y="0px"
	 width="566.93px" height="566.93px" viewBox="0 0 566.93 566.93" enable-background="new 0 0 566.93 566.93" xml:space="preserve">
<g>
	<g opacity="0.5">
		<path fill-rule="evenodd" clip-rule="evenodd" fill="#FFFFFF" d="M289.16,283.869c0,1.817-0.006,3.635,0.006,5.453
			c0.002,0.278-0.035,0.379-0.357,0.377c-3.455-0.015-6.91-0.015-10.366,0.001c-0.3,0.001-0.33-0.082-0.33-0.346
			c0.01-3.655,0.01-7.311,0.001-10.965c-0.001-0.258,0.02-0.35,0.327-0.349c3.475,0.016,6.951,0.014,10.425,0.002
			c0.269-0.001,0.302,0.071,0.3,0.314C289.154,280.194,289.16,282.031,289.16,283.869z M285.169,282.839c-0.001,0-0.003,0-0.004,0
			c0,0.239,0.01,0.479-0.002,0.718c-0.06,1.184-0.672,2.173-1.828,2.523c-0.805,0.244-1.834-0.371-1.819-1.181
			c0.021-1.127,0.164-2.252,0.173-3.378c0.004-0.475-0.138-0.979-0.336-1.414c-0.084-0.183-0.491-0.309-0.741-0.293
			c-0.16,0.01-0.417,0.316-0.433,0.505c-0.123,1.517-0.3,3.04-0.264,4.556c0.046,1.922,2.26,3.105,3.993,2.229
			c0.444-0.224,0.805-0.109,1.053,0.334c0.276,0.495,0.53,0.478,0.943,0.083c0.64-0.612,0.568-1.42,0.677-2.167
			c0.193-1.336,0.289-2.686,0.482-4.021c0.069-0.479,0.073-0.907-0.34-1.173c-0.218-0.14-0.689-0.242-0.798-0.127
			c-0.319,0.339-0.621,0.769-0.729,1.212C285.074,281.75,285.169,282.306,285.169,282.839z"/>
		<path fill-rule="evenodd" clip-rule="evenodd" d="M285.169,282.839c0-0.533-0.095-1.089,0.028-1.593
			c0.108-0.443,0.41-0.873,0.729-1.212c0.108-0.115,0.58-0.013,0.798,0.127c0.413,0.266,0.409,0.694,0.34,1.173
			c-0.193,1.335-0.289,2.685-0.482,4.021c-0.108,0.747-0.037,1.555-0.677,2.167c-0.413,0.395-0.667,0.412-0.943-0.083
			c-0.248-0.443-0.608-0.558-1.053-0.334c-1.733,0.876-3.947-0.308-3.993-2.229c-0.036-1.516,0.141-3.039,0.264-4.556
			c0.015-0.189,0.272-0.495,0.433-0.505c0.25-0.015,0.657,0.11,0.741,0.293c0.198,0.435,0.34,0.939,0.336,1.414
			c-0.01,1.126-0.152,2.251-0.173,3.378c-0.015,0.81,1.014,1.425,1.819,1.181c1.156-0.351,1.769-1.34,1.828-2.523
			c0.012-0.239,0.002-0.479,0.002-0.718C285.166,282.839,285.168,282.839,285.169,282.839z"/>
	</g>
	<g>
	</g>
</g>
</svg>
