<?xml version="1.0" encoding="utf-8"?>
<!-- Generator: Adobe Illustrator 16.0.3, SVG Export Plug-In . SVG Version: 6.00 Build 0)  -->
<!DOCTYPE svg PUBLIC "-//W3C//DTD SVG 1.1//EN" "http://www.w3.org/Graphics/SVG/1.1/DTD/svg11.dtd">
<svg version="1.1" id="Ebene_1" xmlns="http://www.w3.org/2000/svg" xmlns:xlink="http://www.w3.org/1999/xlink" x="0px" y="0px"
	 width="566.93px" height="566.93px" viewBox="0 0 566.93 566.93" enable-background="new 0 0 566.93 566.93" xml:space="preserve">
<g>
	<g opacity="0.5">
		<path fill-rule="evenodd" clip-rule="evenodd" fill="#FFFFFF" d="M283.954,289.45c-1.817,0-3.635-0.003-5.453,0.003
			c-0.248,0.001-0.395,0.015-0.393-0.341c0.019-3.575,0.015-7.15,0.005-10.725c-0.001-0.263,0.026-0.348,0.329-0.346
			c3.675,0.015,7.35,0.014,11.025,0.001c0.271,0,0.299,0.076,0.298,0.316c-0.009,3.595-0.009,7.19,0,10.785
			c0.001,0.242-0.03,0.317-0.299,0.315C287.629,289.443,285.792,289.45,283.954,289.45z M280.181,283.699
			c0.07,0.563,0.125,1.235,0.241,1.896c0.139,0.788,0.452,1.013,1.252,1.106c0.822,0.096,1.574-0.204,2.353-0.351
			c0.082-0.016,0.15-0.112,0.223-0.175c0.399-0.347,0.869-0.217,1.039,0.282c0.051,0.149,0.103,0.305,0.19,0.433
			c0.313,0.458,0.353,0.459,0.81,0.164c0.082-0.053,0.185-0.073,0.274-0.117c0.186-0.092,0.312-0.191,0.294-0.453
			c-0.034-0.509-0.052-1.026,0.003-1.531c0.11-1.02,0.271-2.034,0.416-3.05c0.059-0.406,0.03-0.787-0.208-1.142
			c-0.272-0.406-0.795-0.503-1.092-0.126c-0.237,0.302-0.443,0.674-0.522,1.045c-0.141,0.67-0.147,1.369-0.265,2.045
			c-0.109,0.629-0.453,1.104-1.116,1.257c-0.523,0.12-1.051,0.223-1.579,0.321c-0.319,0.059-0.533-0.141-0.565-0.408
			c-0.073-0.607-0.149-1.229-0.096-1.834c0.063-0.719,0.412-1.402,0.234-2.159c-0.073-0.309-0.397-0.788-0.659-0.839
			c-0.449-0.087-0.644,0.015-0.881,0.499c-0.087,0.178-0.178,0.371-0.193,0.563C280.271,281.947,280.234,282.769,280.181,283.699z"
			/>
		<path fill-rule="evenodd" clip-rule="evenodd" d="M280.181,283.699c0.053-0.93,0.09-1.752,0.154-2.572
			c0.015-0.192,0.106-0.386,0.193-0.563c0.237-0.484,0.432-0.586,0.881-0.499c0.261,0.051,0.586,0.53,0.659,0.839
			c0.178,0.756-0.171,1.44-0.234,2.159c-0.053,0.604,0.023,1.227,0.096,1.834c0.032,0.268,0.246,0.467,0.565,0.408
			c0.528-0.099,1.056-0.201,1.579-0.321c0.663-0.152,1.007-0.628,1.116-1.257c0.117-0.677,0.124-1.375,0.265-2.045
			c0.079-0.371,0.285-0.743,0.522-1.045c0.297-0.377,0.819-0.28,1.092,0.126c0.238,0.355,0.267,0.736,0.208,1.142
			c-0.146,1.016-0.306,2.03-0.416,3.05c-0.055,0.505-0.037,1.022-0.003,1.531c0.018,0.262-0.108,0.361-0.294,0.453
			c-0.09,0.044-0.192,0.064-0.274,0.117c-0.457,0.295-0.497,0.294-0.81-0.164c-0.088-0.128-0.14-0.283-0.19-0.433
			c-0.17-0.499-0.64-0.629-1.039-0.282c-0.072,0.063-0.141,0.159-0.223,0.175c-0.779,0.146-1.531,0.446-2.353,0.351
			c-0.8-0.094-1.114-0.318-1.252-1.106C280.306,284.934,280.25,284.262,280.181,283.699z"/>
	</g>
	<g>
	</g>
</g>
</svg>
