<?xml version="1.0" encoding="utf-8"?>
<!-- Generator: Adobe Illustrator 16.0.3, SVG Export Plug-In . SVG Version: 6.00 Build 0)  -->
<!DOCTYPE svg PUBLIC "-//W3C//DTD SVG 1.1//EN" "http://www.w3.org/Graphics/SVG/1.1/DTD/svg11.dtd">
<svg version="1.1" id="Ebene_1" xmlns="http://www.w3.org/2000/svg" xmlns:xlink="http://www.w3.org/1999/xlink" x="0px" y="0px"
	 width="566.93px" height="566.93px" viewBox="0 0 566.93 566.93" enable-background="new 0 0 566.93 566.93" xml:space="preserve">
<g>
	<g opacity="0.5">
		<path fill-rule="evenodd" clip-rule="evenodd" fill="#FFFFFF" d="M278.12,290.591c0-4.504,0-9.019,0-13.538
			c3.793,0,7.586,0,11.39,0c0,4.504,0,9.011,0,13.538C285.721,290.591,281.92,290.591,278.12,290.591z M283.741,287.083
			c-0.078-0.408-0.153-0.736-0.203-1.068c-0.146-0.977-0.276-1.956-0.426-2.932c-0.021-0.131-0.127-0.247-0.172-0.378
			c-0.069-0.199-0.146-0.402-0.172-0.609c-0.083-0.684-0.191-1.346-0.801-1.797c-0.211-0.156-0.375-0.317-0.688-0.18
			c-0.326,0.143-0.414,0.406-0.38,0.671c0.06,0.458,0.208,0.903,0.316,1.354c0.26,1.093,0.685,2.149,0.718,3.293
			c0.008,0.29,0.054,0.58,0.096,0.868c0.054,0.37,0.146,0.736,0.178,1.107c0.052,0.605,0.363,0.956,0.998,1.082
			c0.112,0.022,0.222,0.081,0.32,0.143c0.634,0.401,1.061,0.248,1.268-0.461c0.039-0.134,0.08-0.269,0.139-0.394
			c0.306-0.654,0.637-1.298,0.919-1.962c0.215-0.505,0.355-1.041,0.556-1.552c0.523-1.337,0.879-2.711,0.897-4.151
			c0.003-0.257-0.127-0.548-0.278-0.765c-0.205-0.292-0.699-0.248-0.783,0.056c-0.107,0.386-0.146,0.792-0.209,1.189
			c-0.041,0.254-0.05,0.516-0.116,0.763c-0.309,1.143-0.62,2.286-0.954,3.421c-0.194,0.663-0.423,1.316-0.653,1.967
			C284.197,287.062,283.956,287.146,283.741,287.083z"/>
		<path fill-rule="evenodd" clip-rule="evenodd" d="M283.741,287.083c0.215,0.063,0.456-0.021,0.567-0.334
			c0.23-0.65,0.459-1.304,0.653-1.967c0.334-1.136,0.646-2.278,0.954-3.421c0.066-0.247,0.075-0.508,0.116-0.763
			c0.063-0.397,0.102-0.803,0.209-1.189c0.084-0.303,0.578-0.348,0.783-0.056c0.151,0.217,0.281,0.508,0.278,0.765
			c-0.019,1.44-0.374,2.814-0.897,4.151c-0.2,0.511-0.341,1.047-0.556,1.552c-0.282,0.664-0.613,1.308-0.919,1.962
			c-0.059,0.125-0.1,0.26-0.139,0.394c-0.207,0.709-0.634,0.862-1.268,0.461c-0.098-0.062-0.208-0.12-0.32-0.143
			c-0.635-0.126-0.946-0.477-0.998-1.082c-0.032-0.371-0.124-0.737-0.178-1.107c-0.042-0.288-0.088-0.578-0.096-0.868
			c-0.033-1.144-0.458-2.2-0.718-3.293c-0.107-0.452-0.256-0.897-0.316-1.354c-0.034-0.265,0.054-0.528,0.38-0.671
			c0.314-0.137,0.478,0.023,0.688,0.18c0.609,0.451,0.717,1.114,0.801,1.797c0.025,0.207,0.103,0.41,0.172,0.609
			c0.045,0.131,0.152,0.247,0.172,0.378c0.149,0.976,0.28,1.955,0.426,2.932C283.588,286.347,283.663,286.675,283.741,287.083z"/>
	</g>
	<g>
	</g>
</g>
</svg>
