<?xml version="1.0" encoding="utf-8"?>
<!-- Generator: Adobe Illustrator 16.0.3, SVG Export Plug-In . SVG Version: 6.00 Build 0)  -->
<!DOCTYPE svg PUBLIC "-//W3C//DTD SVG 1.1//EN" "http://www.w3.org/Graphics/SVG/1.1/DTD/svg11.dtd">
<svg version="1.1" id="Ebene_1" xmlns="http://www.w3.org/2000/svg" xmlns:xlink="http://www.w3.org/1999/xlink" x="0px" y="0px"
	 width="566.93px" height="566.93px" viewBox="0 0 566.93 566.93" enable-background="new 0 0 566.93 566.93" xml:space="preserve">
<g>
	<g opacity="0.5">
		<path fill-rule="evenodd" clip-rule="evenodd" fill="#FFFFFF" d="M278.12,278.05c3.8,0,7.601,0,11.4,0c0,3.88,0,7.76,0,11.641
			c-3.8,0-7.601,0-11.4,0C278.12,285.81,278.12,281.93,278.12,278.05z M283.696,284.731c-0.073-0.012-0.146-0.023-0.219-0.035
			c-0.189-0.494-0.352-1.001-0.574-1.481c-0.375-0.808-0.761-1.612-1.195-2.39c-0.222-0.398-0.642-0.336-0.945-0.107
			c-0.274,0.207-0.599,0.411-0.338,0.926c0.479,0.946,0.841,1.95,1.273,2.92c0.253,0.569,0.502,1.149,0.835,1.672
			c0.367,0.575,1.373,0.654,1.724,0.154c0.485-0.69,0.931-1.41,1.357-2.139c0.37-0.629,0.695-1.285,1.032-1.933
			c0.289-0.555,0.238-1.111-0.203-1.457c-0.152-0.119-0.552-0.159-0.655-0.055c-0.264,0.269-0.461,0.622-0.616,0.972
			c-0.167,0.375-0.201,0.813-0.39,1.172C284.459,283.566,284.062,284.14,283.696,284.731z"/>
		<path fill-rule="evenodd" clip-rule="evenodd" d="M283.696,284.731c0.366-0.591,0.763-1.165,1.085-1.779
			c0.188-0.359,0.223-0.797,0.39-1.172c0.155-0.35,0.353-0.704,0.616-0.972c0.104-0.104,0.503-0.064,0.655,0.055
			c0.441,0.346,0.492,0.902,0.203,1.457c-0.337,0.648-0.662,1.304-1.032,1.933c-0.427,0.729-0.872,1.448-1.357,2.139
			c-0.351,0.5-1.357,0.421-1.724-0.154c-0.333-0.522-0.582-1.103-0.835-1.672c-0.432-0.97-0.794-1.975-1.273-2.92
			c-0.26-0.515,0.064-0.719,0.338-0.926c0.304-0.229,0.724-0.291,0.945,0.107c0.434,0.777,0.82,1.582,1.195,2.39
			c0.222,0.479,0.385,0.987,0.574,1.481C283.55,284.708,283.623,284.719,283.696,284.731z"/>
	</g>
	<g>
	</g>
</g>
</svg>
