<?xml version="1.0" encoding="utf-8"?>
<!-- Generator: Adobe Illustrator 16.0.3, SVG Export Plug-In . SVG Version: 6.00 Build 0)  -->
<!DOCTYPE svg PUBLIC "-//W3C//DTD SVG 1.1//EN" "http://www.w3.org/Graphics/SVG/1.1/DTD/svg11.dtd">
<svg version="1.1" id="Ebene_1" xmlns="http://www.w3.org/2000/svg" xmlns:xlink="http://www.w3.org/1999/xlink" x="0px" y="0px"
	 width="566.93px" height="566.93px" viewBox="0 0 566.93 566.93" enable-background="new 0 0 566.93 566.93" xml:space="preserve">
<g>
	<g opacity="0.5">
		<path fill-rule="evenodd" clip-rule="evenodd" fill="#FFFFFF" d="M276.12,289.451c0-3.801,0-7.601,0-11.4c5.08,0,10.16,0,15.24,0
			c0,3.8,0,7.6,0,11.4C286.28,289.451,281.2,289.451,276.12,289.451z M283.316,284.333c0.096-0.006,0.192-0.013,0.288-0.02
			c0.422,0.673,0.938,1.307,1.242,2.029c0.394,0.938,1.081,1.553,2.074,1.541c0.118-0.001,0.315-0.082,0.339-0.165
			c0.154-0.546,0.595-0.91,0.603-1.603c0.021-1.776,0.325-3.548,0.427-5.326c0.015-0.265-0.443-0.571-0.719-0.817
			c-0.028-0.025-0.402,0.203-0.456,0.366c-0.175,0.53-0.33,1.078-0.391,1.63c-0.115,1.037-0.158,2.082-0.24,3.244
			c-0.218-0.15-0.399-0.213-0.477-0.339c-0.474-0.771-0.925-1.555-1.38-2.336c-0.301-0.516-1.459-0.787-1.728-0.359
			c-0.247,0.393-0.354,0.873-0.534,1.309c-0.229,0.555-0.469,1.106-0.705,1.659c-0.074-0.022-0.148-0.045-0.222-0.067
			c-0.178-0.798-0.341-1.6-0.541-2.392c-0.134-0.532-0.248-1.092-0.512-1.56c-0.129-0.23-0.731-0.471-0.853-0.374
			c-0.307,0.246-0.706,0.738-0.637,1.029c0.286,1.209,0.755,2.372,1.108,3.567c0.205,0.694,0.282,1.426,0.484,2.121
			c0.082,0.281,0.294,0.634,0.537,0.732c0.36,0.147,0.843,0.107,1.03-0.344c0.254-0.614,0.419-1.265,0.641-1.894
			C282.891,285.417,283.109,284.876,283.316,284.333z"/>
		<path fill-rule="evenodd" clip-rule="evenodd" d="M283.316,284.333c-0.208,0.544-0.426,1.084-0.619,1.633
			c-0.222,0.629-0.387,1.279-0.641,1.894c-0.187,0.451-0.67,0.491-1.03,0.344c-0.243-0.099-0.455-0.451-0.537-0.732
			c-0.202-0.695-0.279-1.427-0.484-2.121c-0.353-1.195-0.822-2.358-1.108-3.567c-0.069-0.291,0.331-0.783,0.637-1.029
			c0.121-0.097,0.723,0.144,0.853,0.374c0.264,0.468,0.378,1.027,0.512,1.56c0.199,0.792,0.362,1.594,0.541,2.392
			c0.074,0.022,0.147,0.045,0.222,0.067c0.235-0.553,0.476-1.104,0.705-1.659c0.18-0.437,0.287-0.916,0.534-1.309
			c0.269-0.427,1.427-0.157,1.728,0.359c0.455,0.781,0.906,1.565,1.38,2.336c0.077,0.126,0.259,0.188,0.477,0.339
			c0.082-1.162,0.125-2.207,0.24-3.244c0.061-0.552,0.216-1.1,0.391-1.63c0.054-0.164,0.428-0.392,0.456-0.366
			c0.275,0.246,0.733,0.552,0.719,0.817c-0.102,1.778-0.406,3.55-0.427,5.326c-0.008,0.692-0.448,1.057-0.603,1.603
			c-0.023,0.083-0.221,0.164-0.339,0.165c-0.993,0.012-1.681-0.603-2.074-1.541c-0.304-0.723-0.82-1.356-1.242-2.029
			C283.509,284.32,283.413,284.327,283.316,284.333z"/>
	</g>
	<g>
	</g>
</g>
</svg>
