<?xml version="1.0" encoding="utf-8"?>
<!-- Generator: Adobe Illustrator 16.0.3, SVG Export Plug-In . SVG Version: 6.00 Build 0)  -->
<!DOCTYPE svg PUBLIC "-//W3C//DTD SVG 1.1//EN" "http://www.w3.org/Graphics/SVG/1.1/DTD/svg11.dtd">
<svg version="1.1" id="Ebene_1" xmlns="http://www.w3.org/2000/svg" xmlns:xlink="http://www.w3.org/1999/xlink" x="0px" y="0px"
	 width="566.93px" height="566.93px" viewBox="0 0 566.93 566.93" enable-background="new 0 0 566.93 566.93" xml:space="preserve">
<g>
	<g opacity="0.5">
		<path fill-rule="evenodd" clip-rule="evenodd" fill="#FFFFFF" d="M276.12,289.451c0-3.801,0-7.601,0-11.4c5.2,0,10.4,0,15.601,0
			c0,3.8,0,7.6,0,11.4C286.521,289.451,281.32,289.451,276.12,289.451z M287.018,282.267c0.024,0.003,0.049,0.006,0.073,0.009
			c-0.101,0.788-0.195,1.576-0.311,2.362c-0.018,0.115-0.136,0.216-0.208,0.324c-0.104-0.073-0.243-0.123-0.306-0.223
			c-0.509-0.795-0.979-1.615-1.514-2.392c-0.222-0.323-0.534-0.616-0.868-0.823c-0.477-0.296-0.965-0.061-1.107,0.479
			c-0.188,0.711-0.333,1.435-0.543,2.139c-0.137,0.458-0.351,0.895-0.542,1.335c-0.137,0.313-0.288,0.218-0.392-0.021
			c-0.063-0.143-0.075-0.308-0.112-0.462c-0.331-1.364-0.634-2.736-1.007-4.089c-0.149-0.542-0.774-0.657-1.252-0.355
			c-0.547,0.347-0.217,0.795-0.137,1.173c0.171,0.812,0.421,1.607,0.646,2.406c0.241,0.853,0.433,1.726,0.763,2.543
			c0.145,0.357,0.624,0.871,0.876,0.832c0.471-0.073,1.017-0.407,1.297-0.8c0.434-0.609,0.674-1.358,0.991-2.05
			c0.258-0.563,0.502-0.594,0.862-0.072c0.359,0.521,0.682,1.068,1.035,1.594c0.308,0.456,0.669,0.897,1.276,0.866
			c0.592-0.029,0.963-0.431,1.21-0.946c0.044-0.09,0.105-0.177,0.124-0.271c0.12-0.637,0.237-1.273,0.345-1.912
			c0.167-0.998,0.326-1.996,0.485-2.995c0.073-0.46-0.169-0.86-0.545-0.915c-0.463-0.068-0.919,0.197-0.978,0.611
			C287.104,281.163,287.07,281.716,287.018,282.267z"/>
		<path fill-rule="evenodd" clip-rule="evenodd" d="M287.018,282.267c0.053-0.551,0.087-1.104,0.164-1.651
			c0.059-0.415,0.515-0.679,0.978-0.611c0.376,0.055,0.618,0.455,0.545,0.915c-0.159,0.999-0.318,1.997-0.485,2.995
			c-0.107,0.639-0.225,1.275-0.345,1.912c-0.019,0.095-0.08,0.182-0.124,0.271c-0.247,0.516-0.618,0.917-1.21,0.946
			c-0.607,0.031-0.969-0.41-1.276-0.866c-0.354-0.525-0.676-1.073-1.035-1.594c-0.36-0.521-0.604-0.491-0.862,0.072
			c-0.317,0.691-0.557,1.44-0.991,2.05c-0.28,0.393-0.826,0.727-1.297,0.8c-0.252,0.039-0.731-0.475-0.876-0.832
			c-0.331-0.817-0.522-1.69-0.763-2.543c-0.226-0.799-0.475-1.595-0.646-2.406c-0.08-0.378-0.41-0.827,0.137-1.173
			c0.478-0.302,1.104-0.187,1.252,0.355c0.373,1.353,0.677,2.725,1.007,4.089c0.038,0.154,0.05,0.319,0.112,0.462
			c0.104,0.238,0.255,0.334,0.392,0.021c0.192-0.44,0.406-0.877,0.542-1.335c0.21-0.704,0.355-1.427,0.543-2.139
			c0.142-0.54,0.63-0.775,1.107-0.479c0.333,0.207,0.646,0.5,0.868,0.823c0.534,0.777,1.005,1.597,1.514,2.392
			c0.063,0.1,0.202,0.149,0.306,0.223c0.072-0.108,0.19-0.209,0.208-0.324c0.115-0.786,0.21-1.575,0.311-2.362
			C287.066,282.273,287.042,282.27,287.018,282.267z"/>
	</g>
	<g>
	</g>
</g>
</svg>
