<?xml version="1.0" encoding="utf-8"?>
<!-- Generator: Adobe Illustrator 16.0.3, SVG Export Plug-In . SVG Version: 6.00 Build 0)  -->
<!DOCTYPE svg PUBLIC "-//W3C//DTD SVG 1.1//EN" "http://www.w3.org/Graphics/SVG/1.1/DTD/svg11.dtd">
<svg version="1.1" id="Ebene_1" xmlns="http://www.w3.org/2000/svg" xmlns:xlink="http://www.w3.org/1999/xlink" x="0px" y="0px"
	 width="566.93px" height="566.93px" viewBox="0 0 566.93 566.93" enable-background="new 0 0 566.93 566.93" xml:space="preserve">
<g>
	<path fill-rule="evenodd" clip-rule="evenodd" d="M280.834,288.006c0.172-0.527,0.352-1.081,0.71-1.619
		c0.441-0.663,0.755-1.441,0.964-2.214c0.073-0.27-0.271-0.719-0.524-0.995c-0.348-0.379-0.577-0.873-1.121-1.088
		c-0.302-0.119-0.342-0.746-0.164-1.086c0.464-0.886,1.115-0.909,1.715-0.1c0.279,0.376,0.64,0.697,0.99,1.014
		c0.062,0.056,0.326,0.014,0.369-0.059c0.17-0.287,0.303-0.599,0.425-0.912c0.158-0.406,0.366-0.797,0.829-0.844
		c0.197-0.021,0.494,0.154,0.618,0.33c0.293,0.416,0.227,0.854-0.078,1.272c-0.332,0.456-0.64,0.929-0.938,1.408
		c-0.033,0.053,0.044,0.211,0.109,0.283c0.803,0.879,1.592,1.771,2.431,2.614c0.346,0.348,0.424,0.748,0.197,1.068
		c-0.189,0.268-0.608,0.38-0.938,0.536c-0.061,0.028-0.199-0.039-0.265-0.101c-0.595-0.568-1.181-1.146-1.772-1.718
		c-0.114-0.111-0.232-0.219-0.359-0.315c-0.456-0.346-0.456-0.314-0.699,0.19c-0.409,0.851-0.82,1.71-1.346,2.486
		c-0.16,0.235-0.629,0.318-1.073,0.305C280.766,288.352,280.797,288.196,280.834,288.006z"/>
</g>
</svg>
