<?xml version="1.0" encoding="utf-8"?>
<!-- Generator: Adobe Illustrator 16.0.3, SVG Export Plug-In . SVG Version: 6.00 Build 0)  -->
<!DOCTYPE svg PUBLIC "-//W3C//DTD SVG 1.1//EN" "http://www.w3.org/Graphics/SVG/1.1/DTD/svg11.dtd">
<svg version="1.1" id="Ebene_1" xmlns="http://www.w3.org/2000/svg" xmlns:xlink="http://www.w3.org/1999/xlink" x="0px" y="0px"
	 width="566.93px" height="566.93px" viewBox="0 0 566.93 566.93" enable-background="new 0 0 566.93 566.93" xml:space="preserve">
<g>
	<path fill-rule="evenodd" clip-rule="evenodd" d="M284.763,283.529c-0.219,0.328-0.1,0.329,0.313,0.984
		c0.175,0.277,1.15,1.776,1.304,2.063c0.399,0.743,0.301,0.951-0.501,1.163c-0.131,0.034-0.269,0.004-0.394-0.027
		c-0.166-0.073-0.961-1.371-1.418-2.083c-0.243-0.377-0.526-0.311-0.711-0.027c-0.397,0.608-0.792,1.024-1.309,1.688
		c-0.109,0.141-0.411,0.476-0.702,0.529c-0.148,0.026-0.449-0.171-0.491-0.32c-0.068-0.245-0.077-0.6,0.056-0.793
		c0.538-0.781,1.104-1.55,1.729-2.262c0.462-0.526,0.036-0.823-0.215-1.125c-0.426-0.514-0.934-0.959-1.384-1.455
		c-0.222-0.246-0.17-1.088,0.09-1.223c0.383-0.199,0.734-0.237,1.06,0.236c0.418,0.606,0.966,1.121,1.45,1.682
		c0.231,0.268,0.401,0.164,0.578-0.058c0.367-0.462,0.752-0.91,1.105-1.383c0.244-0.327,0.511-0.602,0.938-0.398
		c0.267,0.128,0.227,0.977-0.028,1.244c-0.287,0.301-0.589,0.588-0.866,0.897C285.111,283.147,284.935,283.248,284.763,283.529z"/>
</g>
</svg>
