<?xml version="1.0" encoding="utf-8"?>
<!-- Generator: Adobe Illustrator 16.0.3, SVG Export Plug-In . SVG Version: 6.00 Build 0)  -->
<!DOCTYPE svg PUBLIC "-//W3C//DTD SVG 1.1//EN" "http://www.w3.org/Graphics/SVG/1.1/DTD/svg11.dtd">
<svg version="1.1" id="Ebene_1" xmlns="http://www.w3.org/2000/svg" xmlns:xlink="http://www.w3.org/1999/xlink" x="0px" y="0px"
	 width="566.93px" height="566.93px" viewBox="0 0 566.93 566.93" enable-background="new 0 0 566.93 566.93" xml:space="preserve">
<g>
	<path fill-rule="evenodd" clip-rule="evenodd" d="M284.351,289.169c-0.397-0.021-0.59-0.412-0.569-1.005
		c0.008-0.217,0.008-0.538-0.012-0.756c-0.055-0.611-0.215-1.219-0.218-1.829c-0.005-1.061-0.733-1.717-1.288-2.458
		c-0.52-0.694-1.21-1.268-1.669-1.994c-0.174-0.276,0.012-0.863,0.178-1.246c0.167-0.386,0.575-0.514,0.946-0.202
		c0.438,0.369,0.885,0.746,1.244,1.188c0.461,0.567,0.85,1.193,1.249,1.809c0.269,0.417,0.491,0.449,0.712-0.014
		c0.374-0.786,0.661-1.613,1.023-2.405c0.13-0.284,0.332-0.573,0.58-0.75c0.13-0.092,0.499-0.016,0.634,0.115
		c0.155,0.15,0.297,0.5,0.224,0.667c-0.449,1.033-0.908,2.068-1.468,3.043c-0.434,0.757-0.509,1.487-0.528,2.355
		c-0.023,1.047,0.206,2.586-0.497,3.258C284.756,289.08,284.516,289.18,284.351,289.169z"/>
</g>
</svg>
