<?xml version="1.0" encoding="utf-8"?>
<!-- Generator: Adobe Illustrator 16.0.3, SVG Export Plug-In . SVG Version: 6.00 Build 0)  -->
<!DOCTYPE svg PUBLIC "-//W3C//DTD SVG 1.1//EN" "http://www.w3.org/Graphics/SVG/1.1/DTD/svg11.dtd">
<svg version="1.1" id="Ebene_1" xmlns="http://www.w3.org/2000/svg" xmlns:xlink="http://www.w3.org/1999/xlink" x="0px" y="0px"
	 width="566.93px" height="566.93px" viewBox="0 0 566.93 566.93" enable-background="new 0 0 566.93 566.93" xml:space="preserve">
<g>
	<g opacity="0.5">
		<path fill-rule="evenodd" clip-rule="evenodd" fill="#FFFFFF" d="M278.12,277.05c3.56,0,7.12,0,10.68,0c0,4.68,0,9.359,0,14.039
			c-3.56,0-7.12,0-10.68,0C278.12,286.41,278.12,281.73,278.12,277.05z M284.498,283.983c-0.094,0.003-0.187,0.006-0.279,0.009
			c-0.133-0.234-0.283-0.459-0.395-0.702c-0.517-1.125-1.106-2.209-1.99-3.085c-0.495-0.491-0.889-0.615-1.303,0.151
			c-0.227,0.418-0.143,0.761,0.256,1.067c0.185,0.142,0.373,0.302,0.5,0.493c0.776,1.16,1.539,2.33,2.295,3.503
			c0.051,0.079,0.055,0.227,0.018,0.317c-0.134,0.329-0.305,0.643-0.443,0.97c-0.259,0.612-0.515,1.226-0.753,1.846
			c-0.115,0.3-0.146,0.619,0.27,0.709c0.34,0.074,0.672,0.049,0.857-0.334c0.173-0.356,0.368-0.701,0.546-1.056
			c0.513-1.021,1.082-2.02,1.514-3.074c0.395-0.965,0.662-1.985,0.94-2.993c0.184-0.665,0.355-1.349,0.394-2.032
			c0.015-0.279-0.323-0.589-0.534-0.859c-0.038-0.049-0.311-0.014-0.352,0.055c-0.206,0.345-0.407,0.703-0.542,1.08
			c-0.203,0.569-0.354,1.157-0.521,1.738c-0.041,0.145-0.063,0.295-0.096,0.443C284.753,282.813,284.625,283.398,284.498,283.983z"
			/>
		<path fill-rule="evenodd" clip-rule="evenodd" d="M284.498,283.983c0.127-0.585,0.255-1.17,0.382-1.755
			c0.032-0.148,0.055-0.298,0.096-0.443c0.168-0.582,0.318-1.169,0.521-1.738c0.135-0.377,0.336-0.734,0.542-1.08
			c0.041-0.069,0.313-0.104,0.352-0.055c0.211,0.27,0.549,0.58,0.534,0.859c-0.038,0.684-0.21,1.367-0.394,2.032
			c-0.278,1.008-0.546,2.028-0.94,2.993c-0.432,1.055-1.001,2.053-1.514,3.074c-0.178,0.354-0.373,0.699-0.546,1.056
			c-0.186,0.383-0.518,0.408-0.857,0.334c-0.415-0.09-0.384-0.409-0.27-0.709c0.238-0.62,0.494-1.233,0.753-1.846
			c0.138-0.327,0.309-0.641,0.443-0.97c0.037-0.091,0.033-0.238-0.018-0.317c-0.757-1.173-1.519-2.343-2.295-3.503
			c-0.128-0.191-0.315-0.352-0.5-0.493c-0.399-0.306-0.483-0.649-0.256-1.067c0.415-0.766,0.809-0.643,1.303-0.151
			c0.884,0.876,1.474,1.961,1.99,3.085c0.112,0.243,0.262,0.468,0.395,0.702C284.312,283.989,284.404,283.986,284.498,283.983z"/>
	</g>
	<g>
	</g>
</g>
</svg>
