<?xml version="1.0" encoding="utf-8"?>
<!-- Generator: Adobe Illustrator 16.0.3, SVG Export Plug-In . SVG Version: 6.00 Build 0)  -->
<!DOCTYPE svg PUBLIC "-//W3C//DTD SVG 1.1//EN" "http://www.w3.org/Graphics/SVG/1.1/DTD/svg11.dtd">
<svg version="1.1" id="Ebene_1" xmlns="http://www.w3.org/2000/svg" xmlns:xlink="http://www.w3.org/1999/xlink" x="0px" y="0px"
	 width="566.93px" height="566.93px" viewBox="0 0 566.93 566.93" enable-background="new 0 0 566.93 566.93" xml:space="preserve">
<g>
	<g opacity="0.5">
		<path fill-rule="evenodd" clip-rule="evenodd" fill="#FFFFFF" d="M288.68,283.71c0,2.08-0.006,4.16,0.008,6.24
			c0.001,0.258-0.051,0.309-0.308,0.308c-3.32-0.012-6.64-0.012-9.96,0c-0.258,0.001-0.308-0.05-0.307-0.308
			c0.01-4.2,0.01-8.4,0-12.6c-0.001-0.257,0.049-0.308,0.307-0.308c3.32,0.012,6.64,0.012,9.96,0c0.257,0,0.309,0.05,0.308,0.308
			C288.674,279.47,288.68,281.59,288.68,283.71z M283.174,279.62c-0.808,0.005-1.587,0.121-2.303,0.521
			c-0.212,0.118-0.54,0.156-0.391,0.54c0.115,0.298,0.494,0.49,0.786,0.457c0.619-0.07,1.242-0.151,1.862-0.138
			c0.553,0.011,0.61,0.204,0.327,0.674c-0.462,0.766-0.92,1.535-1.357,2.316c-0.173,0.311-0.239,0.687-0.436,0.977
			c-0.275,0.406-0.649,0.744-0.938,1.143c-0.224,0.309-0.431,0.647-0.555,1.005c-0.197,0.566,0.141,1.124,0.653,1.087
			c0.592-0.044,1.212-0.087,1.757-0.294c0.749-0.285,1.509-0.343,2.282-0.423c0.305-0.031,0.596-0.183,0.897-0.257
			c0.399-0.097,0.199-0.393,0.158-0.571c-0.032-0.14-0.229-0.323-0.372-0.343c-0.907-0.128-1.815-0.059-2.711,0.102
			c-0.623,0.112-0.625,0.14-0.454-0.453c0.048-0.166,0.145-0.319,0.229-0.474c0.121-0.22,0.25-0.437,0.378-0.651
			c0.496-0.831,0.84-1.756,1.566-2.444c0.405-0.383,0.725-0.832,0.891-1.381c0.17-0.564-0.198-1.187-0.788-1.26
			C284.164,279.691,283.668,279.663,283.174,279.62z"/>
		<path fill-rule="evenodd" clip-rule="evenodd" d="M283.174,279.62c0.494,0.043,0.99,0.072,1.482,0.132
			c0.59,0.073,0.958,0.695,0.788,1.26c-0.166,0.549-0.485,0.998-0.891,1.381c-0.727,0.688-1.07,1.613-1.566,2.444
			c-0.129,0.215-0.257,0.432-0.378,0.651c-0.084,0.154-0.181,0.308-0.229,0.474c-0.171,0.593-0.169,0.565,0.454,0.453
			c0.896-0.16,1.804-0.229,2.711-0.102c0.144,0.02,0.34,0.203,0.372,0.343c0.041,0.179,0.241,0.475-0.158,0.571
			c-0.302,0.074-0.593,0.226-0.897,0.257c-0.772,0.08-1.533,0.138-2.282,0.423c-0.545,0.207-1.165,0.25-1.757,0.294
			c-0.512,0.037-0.85-0.521-0.653-1.087c0.124-0.357,0.331-0.696,0.555-1.005c0.288-0.398,0.663-0.736,0.938-1.143
			c0.196-0.29,0.262-0.666,0.436-0.977c0.437-0.781,0.896-1.55,1.357-2.316c0.284-0.47,0.226-0.663-0.327-0.674
			c-0.62-0.013-1.244,0.068-1.862,0.138c-0.292,0.033-0.67-0.159-0.786-0.457c-0.148-0.384,0.179-0.422,0.391-0.54
			C281.587,279.741,282.366,279.625,283.174,279.62z"/>
	</g>
	<g>
	</g>
</g>
</svg>
