<?xml version="1.0" encoding="utf-8"?>
<!-- Generator: Adobe Illustrator 16.0.3, SVG Export Plug-In . SVG Version: 6.00 Build 0)  -->
<!DOCTYPE svg PUBLIC "-//W3C//DTD SVG 1.1//EN" "http://www.w3.org/Graphics/SVG/1.1/DTD/svg11.dtd">
<svg version="1.1" id="Ebene_1" xmlns="http://www.w3.org/2000/svg" xmlns:xlink="http://www.w3.org/1999/xlink" x="0px" y="0px"
	 width="566.93px" height="566.93px" viewBox="0 0 566.93 566.93" enable-background="new 0 0 566.93 566.93" xml:space="preserve">
<g>
	<g opacity="0.5">
		<path fill-rule="evenodd" clip-rule="evenodd" fill="#FFFFFF" d="M283.28,278.05c1.62,0,3.24,0.007,4.859-0.008
			c0.259-0.002,0.309,0.05,0.308,0.308c-0.011,3.16-0.011,6.32,0,9.48c0.001,0.258-0.05,0.308-0.308,0.308
			c-3.239-0.012-6.479-0.012-9.72,0c-0.258,0-0.308-0.05-0.308-0.308c0.012-3.16,0.012-6.32,0-9.48c0-0.258,0.05-0.31,0.308-0.308
			C280.04,278.058,281.66,278.05,283.28,278.05z M282.307,281.166c0,0.008,0.001,0.016,0.001,0.024c0.299,0,0.598,0.002,0.897,0
			c0.437-0.004,0.483,0.199,0.264,0.517c-0.215,0.312-0.455,0.606-0.675,0.913c-0.702,0.976-1.408,1.95-2.097,2.935
			c-0.208,0.298-0.01,0.975,0.326,1.042c0.419,0.085,0.868,0.133,1.288,0.077c0.763-0.1,1.514-0.287,2.27-0.44
			c0.449-0.09,0.82-0.286,0.913-0.782c0.067-0.363-0.044-0.56-0.475-0.499c-0.742,0.106-1.489,0.181-2.236,0.25
			c-0.051,0.005-0.179-0.188-0.165-0.206c0.701-0.906,1.443-1.782,2.112-2.711c0.293-0.406,0.516-0.901,0.622-1.388
			c0.072-0.333-0.059-0.677-0.547-0.845c-1.103-0.38-2.155-0.271-3.187,0.151c-0.279,0.114-0.48,0.438-0.683,0.694
			c-0.026,0.033,0.153,0.331,0.244,0.334C281.554,281.245,281.931,281.193,282.307,281.166z"/>
		<path fill-rule="evenodd" clip-rule="evenodd" d="M282.307,281.166c-0.375,0.027-0.752,0.079-1.126,0.064
			c-0.091-0.003-0.27-0.302-0.244-0.334c0.203-0.255,0.404-0.58,0.683-0.694c1.032-0.421,2.083-0.531,3.187-0.151
			c0.488,0.168,0.619,0.513,0.547,0.845c-0.106,0.487-0.329,0.982-0.622,1.388c-0.669,0.929-1.411,1.805-2.112,2.711
			c-0.014,0.019,0.114,0.211,0.165,0.206c0.747-0.069,1.494-0.144,2.236-0.25c0.431-0.061,0.542,0.136,0.475,0.499
			c-0.093,0.496-0.464,0.692-0.913,0.782c-0.756,0.153-1.507,0.341-2.27,0.44c-0.42,0.056-0.869,0.008-1.288-0.077
			c-0.336-0.067-0.535-0.744-0.326-1.042c0.688-0.985,1.395-1.959,2.097-2.935c0.221-0.307,0.46-0.602,0.675-0.913
			c0.219-0.318,0.173-0.521-0.264-0.517c-0.299,0.003-0.598,0-0.897,0C282.308,281.182,282.307,281.174,282.307,281.166z"/>
	</g>
	<g>
	</g>
</g>
</svg>
