<?xml version="1.0" encoding="utf-8"?>
<!-- Generator: Adobe Illustrator 16.0.3, SVG Export Plug-In . SVG Version: 6.00 Build 0)  -->
<!DOCTYPE svg PUBLIC "-//W3C//DTD SVG 1.1//EN" "http://www.w3.org/Graphics/SVG/1.1/DTD/svg11.dtd">
<svg version="1.1" id="Ebene_1" xmlns="http://www.w3.org/2000/svg" xmlns:xlink="http://www.w3.org/1999/xlink" x="0px" y="0px"
	 width="566.93px" height="566.93px" viewBox="0 0 566.93 566.93" enable-background="new 0 0 566.93 566.93" xml:space="preserve">
<g>
	<g opacity="0.5">
		<path fill-rule="evenodd" clip-rule="evenodd" fill="#FFFFFF" d="M277.12,288.25c0-3.399,0-6.799,0-10.199c4.52,0,9.039,0,13.56,0
			c0,3.399,0,6.8,0,10.199C286.16,288.25,281.64,288.25,277.12,288.25z M283.481,281.082c-0.336,0.186-0.692,0.285-0.901,0.517
			c-0.715,0.791-1.388,1.622-2.055,2.456c-0.127,0.158-0.263,0.524-0.201,0.579c0.185,0.166,0.498,0.352,0.7,0.298
			c0.321-0.087,0.635-0.318,0.875-0.563c0.318-0.323,0.551-0.727,0.841-1.08c0.236-0.286,0.954-0.358,1.169-0.163
			c0.625,0.566,1.256,1.124,1.893,1.675c0.064,0.057,0.189,0.096,0.268,0.075c0.568-0.15,0.757-0.891,0.324-1.31
			c-0.709-0.688-1.426-1.368-2.159-2.03C284.03,281.352,283.756,281.244,283.481,281.082z"/>
		<path fill-rule="evenodd" clip-rule="evenodd" d="M283.481,281.082c0.275,0.162,0.549,0.27,0.754,0.455
			c0.733,0.662,1.45,1.342,2.159,2.03c0.433,0.419,0.244,1.159-0.324,1.31c-0.078,0.021-0.203-0.019-0.268-0.075
			c-0.637-0.552-1.269-1.109-1.893-1.675c-0.216-0.195-0.934-0.123-1.169,0.163c-0.29,0.353-0.523,0.756-0.841,1.08
			c-0.241,0.245-0.554,0.477-0.875,0.563c-0.202,0.054-0.515-0.132-0.7-0.298c-0.062-0.055,0.074-0.421,0.201-0.579
			c0.667-0.834,1.339-1.665,2.055-2.456C282.789,281.367,283.145,281.268,283.481,281.082z"/>
	</g>
	<g>
	</g>
</g>
</svg>
