<?xml version="1.0" encoding="utf-8"?>
<!-- Generator: Adobe Illustrator 16.0.3, SVG Export Plug-In . SVG Version: 6.00 Build 0)  -->
<!DOCTYPE svg PUBLIC "-//W3C//DTD SVG 1.1//EN" "http://www.w3.org/Graphics/SVG/1.1/DTD/svg11.dtd">
<svg version="1.1" id="Ebene_1" xmlns="http://www.w3.org/2000/svg" xmlns:xlink="http://www.w3.org/1999/xlink" x="0px" y="0px"
	 width="566.93px" height="566.93px" viewBox="0 0 566.93 566.93" enable-background="new 0 0 566.93 566.93" xml:space="preserve">
<g>
	<g opacity="0.5">
		<path fill-rule="evenodd" clip-rule="evenodd" fill="#FFFFFF" d="M278.12,288.65c0-3.2,0-6.4,0-9.6c3.6,0,7.199,0,10.8,0
			c0,3.2,0,6.399,0,9.6C285.319,288.65,281.72,288.65,278.12,288.65z M281.785,282.169c-0.28,0.275-0.606,0.448-0.626,0.649
			c-0.026,0.274,0.1,0.697,0.307,0.833c0.854,0.564,1.754,1.062,2.656,1.549c0.334,0.18,0.817-0.089,0.851-0.409
			c0.046-0.432-0.386-0.953-0.805-1.126c-0.369-0.152-0.691-0.417-1.033-0.634C282.716,282.766,282.299,282.498,281.785,282.169z"/>
		<path fill-rule="evenodd" clip-rule="evenodd" d="M281.785,282.169c0.515,0.329,0.931,0.597,1.349,0.862
			c0.342,0.217,0.664,0.482,1.033,0.634c0.419,0.173,0.851,0.694,0.805,1.126c-0.033,0.32-0.517,0.589-0.851,0.409
			c-0.902-0.487-1.802-0.984-2.656-1.549c-0.207-0.137-0.333-0.56-0.307-0.833C281.178,282.617,281.504,282.444,281.785,282.169z"/>
	</g>
	<g>
	</g>
</g>
</svg>
