<?xml version="1.0" encoding="utf-8"?>
<!-- Generator: Adobe Illustrator 16.0.3, SVG Export Plug-In . SVG Version: 6.00 Build 0)  -->
<!DOCTYPE svg PUBLIC "-//W3C//DTD SVG 1.1//EN" "http://www.w3.org/Graphics/SVG/1.1/DTD/svg11.dtd">
<svg version="1.1" id="Ebene_1" xmlns="http://www.w3.org/2000/svg" xmlns:xlink="http://www.w3.org/1999/xlink" x="0px" y="0px"
	 width="566.93px" height="566.93px" viewBox="0 0 566.93 566.93" enable-background="new 0 0 566.93 566.93" xml:space="preserve">
<g>
	<g opacity="0.5">
		<path fill-rule="evenodd" clip-rule="evenodd" fill="#FFFFFF" d="M277.12,290.61c0-4.52,0-9.04,0-13.56c4.04,0,8.08,0,12.12,0
			c0,4.52,0,9.04,0,13.56C285.2,290.61,281.16,290.61,277.12,290.61z M281.205,284.128c0.012,0.805,0.65,1.154,1.136,0.839
			c0.767-0.498,1.518-1.023,2.262-1.556c0.208-0.149,0.381-0.354,0.547-0.552c0.264-0.314,0.147-0.59-0.124-0.833
			c-0.299-0.267-0.479-0.069-0.704,0.138c-0.189,0.175-0.443,0.284-0.676,0.409c-0.227,0.121-0.463,0.222-0.693,0.336
			c-0.37,0.184-0.765,0.333-1.099,0.568C281.561,283.686,281.336,283.993,281.205,284.128z"/>
		<path fill-rule="evenodd" clip-rule="evenodd" d="M281.205,284.128c0.131-0.136,0.355-0.443,0.65-0.651
			c0.333-0.236,0.729-0.385,1.099-0.568c0.23-0.114,0.466-0.216,0.693-0.336c0.232-0.125,0.486-0.233,0.676-0.409
			c0.225-0.207,0.405-0.405,0.704-0.138c0.271,0.244,0.388,0.519,0.124,0.833c-0.166,0.199-0.339,0.403-0.547,0.552
			c-0.745,0.533-1.495,1.058-2.262,1.556C281.855,285.283,281.217,284.933,281.205,284.128z"/>
	</g>
	<g>
	</g>
</g>
</svg>
