<?xml version="1.0" encoding="utf-8"?>
<!-- Generator: Adobe Illustrator 16.0.3, SVG Export Plug-In . SVG Version: 6.00 Build 0)  -->
<!DOCTYPE svg PUBLIC "-//W3C//DTD SVG 1.1//EN" "http://www.w3.org/Graphics/SVG/1.1/DTD/svg11.dtd">
<svg version="1.1" id="Ebene_1" xmlns="http://www.w3.org/2000/svg" xmlns:xlink="http://www.w3.org/1999/xlink" x="0px" y="0px"
	 width="566.93px" height="566.93px" viewBox="0 0 566.93 566.93" enable-background="new 0 0 566.93 566.93" xml:space="preserve">
<g>
	<g opacity="0.5">
		<path fill-rule="evenodd" clip-rule="evenodd" fill="#FFFFFF" d="M277.123,277.05c4.411,0,8.786,0,13.179,0c0,4.64,0,9.28,0,13.92
			c-4.386,0-8.781,0-13.179,0C277.123,286.337,277.123,281.705,277.123,277.05z M283.031,280.865
			c-0.678,0.306-0.94,0.789-0.798,1.514c0.05,0.255,0.015,0.572-0.1,0.803c-0.241,0.485,0,0.863,0.307,1.086
			c0.204,0.147,0.644,0.094,0.923-0.014c0.646-0.247,1.538,0.318,1.485,1.01c-0.008,0.103-0.087,0.23-0.173,0.292
			c-0.452,0.324-1.223,0.239-1.669-0.106c-0.208-0.16-0.502-0.308-0.746-0.291c-0.177,0.013-0.491,0.325-0.471,0.467
			c0.053,0.384,0.162,0.98,0.409,1.075c0.661,0.252,1.404,0.376,2.116,0.386c1.118,0.017,2.164-1.209,2.003-2.217
			c-0.184-1.146-1.001-2.044-2.146-2.249c-0.385-0.069-0.462-0.251-0.446-0.554C283.757,281.514,283.631,281.06,283.031,280.865z"/>
		<path fill-rule="evenodd" clip-rule="evenodd" d="M283.031,280.865c0.6,0.195,0.726,0.649,0.695,1.202
			c-0.017,0.302,0.061,0.485,0.446,0.554c1.145,0.205,1.962,1.103,2.146,2.249c0.161,1.008-0.885,2.233-2.003,2.217
			c-0.712-0.01-1.455-0.134-2.116-0.386c-0.247-0.095-0.355-0.691-0.409-1.075c-0.02-0.142,0.294-0.454,0.471-0.467
			c0.243-0.017,0.538,0.131,0.746,0.291c0.446,0.346,1.217,0.431,1.669,0.106c0.086-0.062,0.165-0.189,0.173-0.292
			c0.053-0.691-0.839-1.257-1.485-1.01c-0.279,0.107-0.72,0.161-0.923,0.014c-0.308-0.224-0.548-0.602-0.307-1.086
			c0.115-0.23,0.15-0.548,0.1-0.803C282.091,281.654,282.354,281.171,283.031,280.865z"/>
	</g>
	<g>
	</g>
</g>
</svg>
