<?xml version="1.0" encoding="utf-8"?>
<!-- Generator: Adobe Illustrator 16.0.3, SVG Export Plug-In . SVG Version: 6.00 Build 0)  -->
<!DOCTYPE svg PUBLIC "-//W3C//DTD SVG 1.1//EN" "http://www.w3.org/Graphics/SVG/1.1/DTD/svg11.dtd">
<svg version="1.1" id="Ebene_1" xmlns="http://www.w3.org/2000/svg" xmlns:xlink="http://www.w3.org/1999/xlink" x="0px" y="0px"
	 width="566.93px" height="566.93px" viewBox="0 0 566.93 566.93" enable-background="new 0 0 566.93 566.93" xml:space="preserve">
<g>
	<g opacity="0.5">
		<path fill-rule="evenodd" clip-rule="evenodd" fill="#FFFFFF" d="M280.12,287.69c0-2.88,0-5.76,0-8.64c2.48,0,4.96,0,7.439,0
			c0,2.88,0,5.76,0,8.64C285.08,287.69,282.6,287.69,280.12,287.69z M283.978,284.382c0.485-0.005,1.064-0.407,1.077-0.747
			c0.013-0.363-0.503-0.999-0.801-0.986c-0.431,0.019-0.944,0.424-0.918,0.761C283.397,284.208,283.525,284.411,283.978,284.382z"/>
		<path fill-rule="evenodd" clip-rule="evenodd" d="M283.978,284.382c-0.453,0.028-0.58-0.175-0.642-0.972
			c-0.026-0.337,0.487-0.743,0.918-0.761c0.298-0.013,0.813,0.623,0.801,0.986C285.042,283.975,284.463,284.377,283.978,284.382z"/>
	</g>
	<g>
	</g>
</g>
</svg>
