<?xml version="1.0" encoding="utf-8"?>
<!-- Generator: Adobe Illustrator 16.0.3, SVG Export Plug-In . SVG Version: 6.00 Build 0)  -->
<!DOCTYPE svg PUBLIC "-//W3C//DTD SVG 1.1//EN" "http://www.w3.org/Graphics/SVG/1.1/DTD/svg11.dtd">
<svg version="1.1" id="Ebene_1" xmlns="http://www.w3.org/2000/svg" xmlns:xlink="http://www.w3.org/1999/xlink" x="0px" y="0px"
	 width="566.93px" height="566.93px" viewBox="0 0 566.93 566.93" enable-background="new 0 0 566.93 566.93" xml:space="preserve">
<g>
	<path fill-rule="evenodd" clip-rule="evenodd" d="M280.984,282.852c0.391,0,0.797,0.109,0.877,0.692
		c0.082,0.592-0.494,1.197-0.908,1.169c-0.458-0.031-0.921-0.634-0.875-1.119C280.121,283.163,280.5,282.868,280.984,282.852z"/>
	<path fill-rule="evenodd" clip-rule="evenodd" d="M285.344,282.821c0.484,0.078,0.859,0.336,0.938,0.969
		c0.024,0.197-0.359,0.953-0.873,0.952c-0.144,0-0.642-0.28-0.75-0.535c-0.116-0.277-0.033-0.625,0.061-0.948
		C284.763,283.106,285.145,282.848,285.344,282.821z"/>
</g>
</svg>
