<?xml version="1.0" encoding="utf-8"?>
<!-- Generator: Adobe Illustrator 16.0.3, SVG Export Plug-In . SVG Version: 6.00 Build 0)  -->
<!DOCTYPE svg PUBLIC "-//W3C//DTD SVG 1.1//EN" "http://www.w3.org/Graphics/SVG/1.1/DTD/svg11.dtd">
<svg version="1.1" id="Ebene_1" xmlns="http://www.w3.org/2000/svg" xmlns:xlink="http://www.w3.org/1999/xlink" x="0px" y="0px"
	 width="566.93px" height="566.93px" viewBox="0 0 566.93 566.93" enable-background="new 0 0 566.93 566.93" xml:space="preserve">
<g>
	<g opacity="0.5">
		<path fill-rule="evenodd" clip-rule="evenodd" fill="#FFFFFF" d="M291.712,292.324c-5.21,0-10.401,0-15.592,0
			c0-5.762,0-11.517,0-17.272c5.194,0,10.389,0,15.592,0C291.712,280.799,291.712,286.549,291.712,292.324z M284.856,280.767
			c-1.248,0.018-2.246,0.306-2.981,1.16c-0.453,0.527-0.83,1.121-1.226,1.696c-0.244,0.354-0.098,1.016,0.245,1.217
			c0.271,0.157,0.665-0.138,0.919-0.54c0.348-0.55,0.698-1.139,1.185-1.55c0.941-0.796,2.288-0.55,3.104,0.467
			c0.31,0.384,0.555,0.833,0.915,1.159c0.254,0.229,0.643,0.347,0.991,0.411c0.126,0.023,0.425-0.233,0.444-0.389
			c0.07-0.551,0.049-1.124-0.423-1.527c-0.576-0.494-1.03-1.105-1.696-1.523C285.813,281.019,285.356,280.67,284.856,280.767z"/>
		<path fill-rule="evenodd" clip-rule="evenodd" d="M284.856,280.767c0.5-0.097,0.956,0.252,1.479,0.58
			c0.666,0.418,1.12,1.03,1.696,1.523c0.472,0.404,0.493,0.976,0.423,1.527c-0.02,0.155-0.318,0.412-0.444,0.389
			c-0.349-0.064-0.737-0.183-0.991-0.411c-0.36-0.325-0.605-0.774-0.915-1.159c-0.816-1.017-2.163-1.263-3.104-0.467
			c-0.486,0.411-0.837,1-1.185,1.55c-0.254,0.402-0.649,0.697-0.919,0.54c-0.343-0.201-0.489-0.862-0.245-1.217
			c0.396-0.575,0.772-1.169,1.226-1.696C282.611,281.073,283.608,280.784,284.856,280.767z"/>
	</g>
	<g>
	</g>
</g>
</svg>
