<?xml version="1.0" encoding="utf-8"?>
<!-- Generator: Adobe Illustrator 16.0.3, SVG Export Plug-In . SVG Version: 6.00 Build 0)  -->
<!DOCTYPE svg PUBLIC "-//W3C//DTD SVG 1.1//EN" "http://www.w3.org/Graphics/SVG/1.1/DTD/svg11.dtd">
<svg version="1.1" id="Ebene_1" xmlns="http://www.w3.org/2000/svg" xmlns:xlink="http://www.w3.org/1999/xlink" x="0px" y="0px"
	 width="566.93px" height="566.93px" viewBox="0 0 566.93 566.93" enable-background="new 0 0 566.93 566.93" xml:space="preserve">
<g>
	<g opacity="0.5">
		<path fill-rule="evenodd" clip-rule="evenodd" fill="#FFFFFF" d="M275.12,289.651c0-4.2,0-8.4,0-12.601c5.76,0,11.521,0,17.28,0
			c0,4.2,0,8.4,0,12.601C286.641,289.651,280.88,289.651,275.12,289.651z M281.315,282.955c0,0.012-0.001,0.024-0.001,0.036
			c-0.179,0-0.359-0.011-0.538,0.002c-0.412,0.031-0.679,0.314-0.661,0.685c0.018,0.362,0.237,0.579,0.653,0.584
			c0.987,0.014,1.974,0.005,2.961,0.014c0.275,0.003,0.552,0.067,0.824,0.047c0.725-0.057,1.447-0.148,2.172-0.215
			c0.502-0.047,1.008-0.051,1.506-0.116c0.474-0.063,0.729-0.615,0.488-1.016c-0.043-0.073-0.154-0.158-0.228-0.152
			c-0.424,0.038-0.847,0.098-1.269,0.155c-0.156,0.021-0.311,0.083-0.466,0.084c-0.867,0.01-1.729-0.083-2.603-0.027
			C283.213,283.096,282.262,282.989,281.315,282.955z"/>
		<path fill-rule="evenodd" clip-rule="evenodd" d="M281.315,282.955c0.947,0.034,1.898,0.141,2.839,0.081
			c0.874-0.056,1.735,0.037,2.603,0.027c0.155-0.001,0.31-0.063,0.466-0.084c0.422-0.058,0.845-0.118,1.269-0.155
			c0.073-0.006,0.185,0.079,0.228,0.152c0.24,0.401-0.015,0.953-0.488,1.016c-0.498,0.065-1.004,0.069-1.506,0.116
			c-0.725,0.066-1.447,0.158-2.172,0.215c-0.271,0.021-0.549-0.044-0.824-0.047c-0.987-0.009-1.975,0-2.961-0.014
			c-0.416-0.006-0.635-0.223-0.653-0.584c-0.018-0.37,0.25-0.653,0.661-0.685c0.178-0.013,0.358-0.002,0.538-0.002
			C281.314,282.979,281.314,282.967,281.315,282.955z"/>
	</g>
	<g>
	</g>
</g>
</svg>
