<?xml version="1.0" encoding="utf-8"?>
<!-- Generator: Adobe Illustrator 16.0.3, SVG Export Plug-In . SVG Version: 6.00 Build 0)  -->
<!DOCTYPE svg PUBLIC "-//W3C//DTD SVG 1.1//EN" "http://www.w3.org/Graphics/SVG/1.1/DTD/svg11.dtd">
<svg version="1.1" id="Ebene_1" xmlns="http://www.w3.org/2000/svg" xmlns:xlink="http://www.w3.org/1999/xlink" x="0px" y="0px"
	 width="566.93px" height="566.93px" viewBox="0 0 566.93 566.93" enable-background="new 0 0 566.93 566.93" xml:space="preserve">
<g>
	<g opacity="0.5">
		<path fill-rule="evenodd" clip-rule="evenodd" fill="#FFFFFF" d="M284.015,279.05c1.537,0,3.075,0.008,4.612-0.008
			c0.274-0.003,0.343,0.043,0.342,0.334c-0.015,2.975-0.017,5.951,0.001,8.925c0.002,0.33-0.111,0.354-0.382,0.353
			c-3.035-0.008-6.07-0.01-9.105,0.002c-0.292,0.002-0.372-0.057-0.371-0.363c0.014-2.955,0.017-5.911-0.003-8.866
			c-0.002-0.359,0.105-0.389,0.413-0.385C281.019,279.06,282.517,279.05,284.015,279.05z M283.679,286.141
			c1.068-0.012,1.787-0.616,2.341-1.79c0.293-0.62,0.214-1.161-0.178-1.608c-0.362-0.414-0.876-0.971-1.313-0.963
			c-0.412,0.007-0.827-0.121-1.234-0.056c-0.877,0.14-1.229,0.788-1.588,1.521C281.094,284.498,282.203,286.216,283.679,286.141z"/>
		<path fill-rule="evenodd" clip-rule="evenodd" d="M283.679,286.141c-1.476,0.075-2.584-1.644-1.972-2.896
			c0.358-0.733,0.711-1.381,1.588-1.521c0.407-0.065,0.822,0.063,1.234,0.056c0.438-0.008,0.951,0.549,1.313,0.963
			c0.392,0.447,0.471,0.988,0.178,1.608C285.466,285.525,284.747,286.129,283.679,286.141z M284.359,283.391
			c-0.36,0.05-0.575,0.096-0.791,0.107c-0.444,0.023-0.507,0.313-0.478,0.662c0.03,0.366,0.266,0.554,0.606,0.487
			c0.282-0.055,0.576-0.177,0.803-0.352c0.153-0.118,0.301-0.4,0.264-0.567C284.726,283.567,284.449,283.459,284.359,283.391z"/>
		<path fill-rule="evenodd" clip-rule="evenodd" fill="#FFFFFF" d="M284.359,283.391c0.09,0.069,0.366,0.176,0.403,0.338
			c0.037,0.167-0.11,0.449-0.264,0.567c-0.227,0.175-0.521,0.297-0.803,0.352c-0.34,0.066-0.576-0.121-0.606-0.487
			c-0.029-0.349,0.034-0.639,0.478-0.662C283.785,283.486,283.999,283.441,284.359,283.391z"/>
	</g>
	<g>
	</g>
</g>
</svg>
