<?xml version="1.0" encoding="utf-8"?>
<!-- Generator: Adobe Illustrator 16.0.3, SVG Export Plug-In . SVG Version: 6.00 Build 0)  -->
<!DOCTYPE svg PUBLIC "-//W3C//DTD SVG 1.1//EN" "http://www.w3.org/Graphics/SVG/1.1/DTD/svg11.dtd">
<svg version="1.1" id="Ebene_1" xmlns="http://www.w3.org/2000/svg" xmlns:xlink="http://www.w3.org/1999/xlink" x="0px" y="0px"
	 width="566.93px" height="566.93px" viewBox="0 0 566.93 566.93" enable-background="new 0 0 566.93 566.93" xml:space="preserve">
<g>
	<path fill-rule="evenodd" clip-rule="evenodd" d="M283.659,281.981c0.43,0.31,0.998,0.575,1.357,1.012
		c0.65,0.791,0.84,0.803,1.549,0.13c0.31-0.293,1.011-0.444,1.278-0.396c0.313,0.031,0.76,0.583,0.481,1.111
		c-0.09,0.172-0.286,0.34-0.435,0.482c-0.159,0.153-0.203,0.313-0.618,0.509c-0.591,0.279-1.302,0.459-1.915,0.377
		c-0.566-0.075-1.104-0.528-1.605-0.883c-0.402-0.284-0.659-0.201-0.993,0.096c-0.239,0.213-0.567,0.438-0.859,0.443
		c-0.254,0.004-0.582-0.244-0.741-0.476c-0.075-0.108,0.121-0.482,0.28-0.658c0.437-0.483,0.905-0.939,1.391-1.374
		C282.994,282.209,283.247,282.162,283.659,281.981z"/>
</g>
</svg>
